<svg width="20" height="20" fill="none" xmlns="http://www.w3.org/2000/svg"><path d="M19.8 8.837l-8.834-7.279a.554.554 0 00-.586-.074.553.553 0 00-.315.5v3.837c-4.288.155-7.235 1.668-8.767 4.5-1.32 2.443-1.308 5.337-1.296 7.25v.443a.556.556 0 00.554.554.546.546 0 00.48-.279c2.991-5.275 5.455-5.53 9.025-5.542v3.825c0 .213.123.41.32.5.196.09.421.061.59-.074l8.828-7.304a.557.557 0 000-.857zm-8.629 6.558v-3.2a.56.56 0 00-.553-.553c-2.23-.001-3.939.06-5.599.835-1.434.668-2.676 1.803-3.902 3.586.05-1.627.263-3.57 1.152-5.213 1.41-2.607 4.14-3.898 8.349-3.935a.555.555 0 00.55-.553V3.157l7.406 6.11-7.403 6.128z" fill="#2B3063"/></svg>