<svg width="14" height="15" fill="none" xmlns="http://www.w3.org/2000/svg"><g clip-path="url(#clip0)" fill="#D01215"><path d="M12.5 1.87H11v-1a.5.5 0 00-1 0v1H4v-1a.5.5 0 10-1 0v1H1.5A1.5 1.5 0 000 3.37v9.5a1.5 1.5 0 001.5 1.5h11a1.5 1.5 0 001.5-1.5v-9.5a1.5 1.5 0 00-1.5-1.5zm.5 11a.5.5 0 01-.5.5h-11a.5.5 0 01-.5-.5v-6.5h12v6.5zm0-7.5H1v-2a.5.5 0 01.5-.5H3v1a.5.5 0 101 0v-1h6v1a.5.5 0 001 0v-1h1.5a.5.5 0 01.5.5v2z"/><path d="M10.341 7.517a.5.5 0 00-.694 0L6 11.164 4.353 9.517a.5.5 0 00-.707.707l2 2a.5.5 0 00.707 0l4-4a.5.5 0 00-.012-.707z"/></g><defs><clipPath id="clip0"><path fill="#fff" transform="translate(0 .37)" d="M0 0h14v14H0z"/></clipPath></defs></svg>