<svg width="30" height="30" fill="none" xmlns="http://www.w3.org/2000/svg"><g clip-path="url(#clip0)"><path d="M29.25 12.99l-.002-.002L17.01.75a2.743 2.743 0 00-1.953-.81c-.738 0-1.431.288-1.953.81L.873 12.98a2.765 2.765 0 00-.007 3.912 2.746 2.746 0 001.918.81h.487v9.006a3.236 3.236 0 003.233 3.233h4.787a.879.879 0 00.88-.88v-7.06c0-.813.661-1.475 1.474-1.475h2.824c.813 0 1.475.662 1.475 1.475v7.06c0 .486.393.88.879.88h4.788a3.236 3.236 0 003.232-3.233v-9.005h.452c.738 0 1.431-.288 1.953-.81a2.766 2.766 0 00.002-3.904zm-1.245 2.661a.998.998 0 01-.71.295h-1.33a.879.879 0 00-.88.879v9.884c0 .813-.661 1.475-1.474 1.475H19.7v-6.182a3.236 3.236 0 00-3.232-3.232h-2.824a3.236 3.236 0 00-3.232 3.232v6.182h-3.91a1.476 1.476 0 01-1.474-1.475v-9.884a.879.879 0 00-.879-.88H2.842a.996.996 0 01-.733-.295 1.005 1.005 0 010-1.419h.001L14.348 1.992a.996.996 0 01.71-.294c.267 0 .52.105.709.294l12.234 12.235.006.005c.39.392.389 1.028-.002 1.418z" fill="#2B3063"/></g><defs><clipPath id="clip0"><path fill="#fff" d="M0 0h30v30H0z"/></clipPath></defs></svg>