<svg width="25" height="20" fill="none" xmlns="http://www.w3.org/2000/svg"><g clip-path="url(#clip0)" fill="#2B3063"><path d="M15.834 12.39c-.41-.427-.905-.655-1.43-.655-.52 0-1.018.224-1.445.65l-1.336 1.33c-.11-.06-.22-.114-.325-.17a5.17 5.17 0 01-.419-.223c-1.251-.793-2.388-1.828-3.479-3.166-.528-.667-.883-1.228-1.141-1.798.346-.316.668-.646.98-.962l.356-.36c.887-.886.887-2.034 0-2.92L6.44 2.963c-.132-.13-.267-.265-.394-.4a20.34 20.34 0 00-.794-.786c-.41-.405-.9-.62-1.417-.62-.515 0-1.014.215-1.437.62l-.008.009L.953 3.234a3.086 3.086 0 00-.917 1.962C-.065 6.43.298 7.577.577 8.33c.685 1.844 1.708 3.554 3.234 5.386a19.89 19.89 0 006.624 5.18c.973.46 2.27 1.004 3.72 1.097.09.004.182.008.267.008.976 0 1.796-.35 2.439-1.047.004-.008.013-.012.017-.02.22-.267.473-.508.74-.765.181-.173.367-.354.55-.544.418-.435.637-.942.637-1.461 0-.523-.224-1.026-.65-1.448l-2.321-2.326zm1.513 4.444c-.004 0-.004.004 0 0-.165.177-.334.338-.516.515-.274.262-.553.536-.816.844-.427.456-.93.671-1.589.671-.063 0-.131 0-.194-.004-1.256-.08-2.423-.57-3.298-.988a18.773 18.773 0 01-6.24-4.88c-1.44-1.734-2.405-3.338-3.043-5.06-.393-1.051-.537-1.87-.474-2.643.043-.494.233-.903.584-1.253l1.441-1.44c.208-.194.427-.3.643-.3.266 0 .482.161.617.296l.013.013c.258.24.503.49.76.755.132.135.267.27.402.41l1.154 1.152c.448.448.448.861 0 1.309-.122.122-.24.244-.363.363-.355.363-.693.7-1.061 1.03-.009.008-.017.012-.021.02-.364.364-.296.718-.22.959l.012.038c.3.726.723 1.41 1.366 2.225l.004.004c1.167 1.435 2.397 2.554 3.754 3.41.173.11.35.199.52.283.152.076.296.148.418.224.017.008.034.021.051.03a.93.93 0 00.419.105c.35 0 .57-.22.642-.291l1.446-1.444c.144-.143.372-.316.638-.316.262 0 .478.164.61.308l.008.008 2.329 2.326c.435.43.435.874.004 1.321zM10.828 4.757a5.363 5.363 0 012.917 1.512 5.378 5.378 0 011.513 2.912.567.567 0 00.563.473c.034 0 .063-.004.097-.008a.57.57 0 00.47-.659 6.508 6.508 0 00-1.831-3.525 6.524 6.524 0 00-3.53-1.827.574.574 0 00-.66.464.564.564 0 00.461.658zm9.182 4.065a10.706 10.706 0 00-3.014-5.804 10.732 10.732 0 00-5.813-3.01.569.569 0 10-.186 1.124 9.61 9.61 0 015.196 2.688 9.559 9.559 0 012.692 5.188.567.567 0 00.563.473.56.56 0 00.562-.659z"/></g><defs><clipPath id="clip0"><path fill="#fff" d="M0 0h25v20H0z"/></clipPath></defs></svg>