<svg width="30" height="30" fill="none" xmlns="http://www.w3.org/2000/svg"><g clip-path="url(#clip0)" fill="#D01215"><path d="M23.71 18.584c-.614-.64-1.355-.981-2.14-.981-.779 0-1.526.335-2.166.975l-2 1.994c-.165-.088-.33-.17-.488-.253a8.106 8.106 0 01-.627-.336c-1.874-1.19-3.577-2.741-5.21-4.748-.792-1-1.324-1.843-1.71-2.698.519-.475 1-.969 1.469-1.443.177-.178.354-.361.532-.539 1.33-1.33 1.33-3.051 0-4.381L9.64 4.445a26.366 26.366 0 01-.588-.601c-.38-.393-.779-.798-1.19-1.178-.614-.608-1.349-.93-2.121-.93-.773 0-1.52.322-2.153.93l-.013.013L1.422 4.85A4.632 4.632 0 00.048 7.795c-.152 1.849.393 3.57.81 4.698 1.027 2.767 2.559 5.331 4.845 8.08 2.773 3.31 6.11 5.926 9.921 7.768 1.457.69 3.4 1.507 5.572 1.646.133.007.272.013.4.013 1.462 0 2.69-.525 3.653-1.57.006-.013.019-.02.025-.032.33-.399.71-.76 1.108-1.146.272-.26.55-.532.823-.817.627-.652.956-1.412.956-2.19 0-.786-.335-1.539-.975-2.172l-3.476-3.489zm2.267 6.667c-.007 0-.007.007 0 0-.247.266-.5.507-.773.773-.411.392-.83.804-1.222 1.266-.64.684-1.393 1.007-2.38 1.007-.096 0-.197 0-.292-.006-1.88-.12-3.628-.855-4.938-1.482-3.584-1.735-6.731-4.198-9.346-7.32-2.16-2.602-3.603-5.008-4.559-7.591-.589-1.577-.804-2.805-.71-3.964.064-.74.35-1.355.875-1.88l2.159-2.16c.31-.29.64-.45.962-.45.4 0 .722.242.925.444l.019.02c.386.36.753.734 1.14 1.132.196.203.398.406.6.615l1.73 1.728c.67.671.67 1.292 0 1.963-.184.184-.361.367-.545.545a33.018 33.018 0 01-1.59 1.544c-.012.013-.025.02-.031.032-.545.545-.443 1.077-.33 1.438l.02.056c.45 1.09 1.082 2.115 2.045 3.337l.006.007c1.748 2.152 3.59 3.83 5.623 5.116.26.164.525.297.779.424.228.114.443.222.626.335.026.013.051.032.076.045.216.107.418.158.627.158.526 0 .855-.33.963-.437l2.165-2.165c.215-.216.557-.475.956-.475.393 0 .716.247.912.462l.013.013 3.488 3.489c.653.645.653 1.31.007 1.981zM16.213 7.136a8.03 8.03 0 014.368 2.267 8.071 8.071 0 012.267 4.369.85.85 0 00.842.709.856.856 0 00.848-1 9.766 9.766 0 00-2.74-5.287 9.766 9.766 0 00-5.288-2.742.86.86 0 00-.988.696.846.846 0 00.69.988zm13.752 6.098a16.067 16.067 0 00-4.514-8.706A16.067 16.067 0 0016.745.013a.852.852 0 00-.982.697.859.859 0 00.703.987c2.95.5 5.642 1.9 7.782 4.034a14.344 14.344 0 014.033 7.781c.07.418.43.71.842.71.05 0 .095-.007.146-.013a.839.839 0 00.696-.975z"/></g><defs><clipPath id="clip0"><path fill="#fff" d="M0 0h30v30H0z"/></clipPath></defs></svg>