<svg width="80" height="81" fill="none" xmlns="http://www.w3.org/2000/svg"><g clip-path="url(#clip0)" fill="#2B3063"><path d="M79.61 4.071L75.97.433c-.5-.5-1.385-.5-1.885 0L63.168 11.35a1.332 1.332 0 000 1.885l3.638 3.639a1.33 1.33 0 001.886 0L79.609 5.956a1.332 1.332 0 000-1.885zm-11.86 9.975l-1.754-1.753 9.032-9.032 1.753 1.753-9.032 9.032z"/><path d="M69.536 15.834l-5.328-5.328a4.003 4.003 0 00-5.656 0l-1.755 1.753a1.332 1.332 0 000 1.885l9.099 9.099a1.33 1.33 0 001.887 0l1.753-1.753a4.003 4.003 0 000-5.656zm-1.887 3.769l-.81.81-7.212-7.213.81-.81a1.337 1.337 0 011.886 0l5.326 5.328c.52.52.52 1.365 0 1.885z"/><path d="M68.461 22.036L58.003 11.578a10.594 10.594 0 00-7.542-3.124 10.592 10.592 0 00-7.54 3.124l-7.958 7.958a1.33 1.33 0 000 1.885l23.654 23.656a1.33 1.33 0 001.886 0l7.958-7.958c4.157-4.159 4.157-10.925 0-15.083zm-1.885 13.197L59.56 42.25 37.79 20.48l7.017-7.015a7.944 7.944 0 015.654-2.342c2.138 0 4.145.832 5.656 2.342l10.459 10.459c3.117 3.117 3.117 8.192 0 11.31z"/><path d="M57.775 18.628l-3.64-3.641a5.197 5.197 0 00-7.342 0l-3.64 3.641a1.332 1.332 0 101.885 1.885l3.64-3.64a2.528 2.528 0 013.571 0l3.64 3.64a1.33 1.33 0 001.886 0 1.332 1.332 0 000-1.885zM16.832 66.847l-3.638-3.639a1.33 1.33 0 00-1.886 0L.391 74.125a1.332 1.332 0 000 1.886l3.638 3.638a1.33 1.33 0 001.886 0l10.917-10.917a1.332 1.332 0 000-1.885zM4.972 76.82L3.22 75.068l9.032-9.032 1.753 1.753-9.032 9.032z"/><path d="M23.2 65.938l-9.098-9.098a1.33 1.33 0 00-1.886 0l-1.753 1.753a4.003 4.003 0 000 5.656l5.328 5.328c.78.78 1.804 1.17 2.828 1.17 1.024 0 2.048-.39 2.827-1.17l1.754-1.753a1.333 1.333 0 000-1.885zm-3.636 1.752c-.52.518-1.365.52-1.885 0l-5.328-5.328a1.334 1.334 0 010-1.885l.81-.81 7.214 7.213-.81.81z"/><path d="M46.856 56.837L23.202 33.183c-.5-.5-1.386-.5-1.886 0l-9.778 9.778c-4.158 4.159-4.158 10.926 0 15.083l10.458 10.458a10.594 10.594 0 007.542 3.124 10.59 10.59 0 007.541-3.125l9.777-9.778a1.332 1.332 0 000-1.886zm-11.664 9.78a7.944 7.944 0 01-5.654 2.343 7.945 7.945 0 01-5.656-2.343L13.423 56.16c-3.117-3.118-3.117-8.192 0-11.31l8.836-8.837 21.768 21.77-8.835 8.835z"/><path d="M38.67 28.636c-1.477-1.476-4.05-1.477-5.525 0l-8.189 8.188a1.33 1.33 0 000 1.885l3.639 3.64c.26.26.601.39.942.39.341 0 .683-.13.946-.39l8.187-8.189a3.882 3.882 0 001.145-2.762 3.878 3.878 0 00-1.144-2.762zm-1.889 3.638l-7.245 7.245-1.753-1.753 7.245-7.246c.468-.469 1.284-.469 1.753.002.234.233.363.544.363.874 0 .332-.128.643-.363.878zm14.626 9.098a3.909 3.909 0 00-5.526 0l-8.188 8.188a1.33 1.33 0 000 1.885l3.639 3.639a1.33 1.33 0 001.885.001l8.19-8.188a3.912 3.912 0 000-5.525zm-1.887 3.639l-7.245 7.245-1.754-1.753 7.246-7.245c.469-.47 1.285-.47 1.753 0 .483.482.483 1.27 0 1.753zm-9.943 11.828L23.202 40.463a1.332 1.332 0 00-1.886 0l-7.278 7.278a1.332 1.332 0 000 1.886l16.377 16.375a1.33 1.33 0 001.884 0l7.279-7.278a1.332 1.332 0 000-1.885zm-8.22 6.336l-14.491-14.49 5.393-5.394 14.49 14.49-5.393 5.394z"/><path d="M30.48 55.02l-5.458-5.46a1.332 1.332 0 00-1.886 0 1.332 1.332 0 000 1.886l5.459 5.46a1.33 1.33 0 001.885 0 1.332 1.332 0 000-1.886z"/></g><defs><clipPath id="clip0"><path fill="#fff" transform="translate(0 .049)" d="M0 0h80v80H0z"/></clipPath></defs></svg>