<svg width="80" height="81" fill="none" xmlns="http://www.w3.org/2000/svg"><g clip-path="url(#clip0)" fill="#2B3063"><path d="M70.561 64.795h-.168c.014-2.535.022-5.253-.01-5.63-.145-1.745-2.048-2.504-3.269-1.007-.6.736-3.37 5.73-4.204 7.243-.43.78.134 1.739 1.026 1.739h4.096c-.005.684-.01 1.34-.016 1.931-.013 1.556 2.332 1.584 2.345.02.003-.364.01-1.072.016-1.951h.184a1.172 1.172 0 000-2.345zm-2.514 0H65.93a231.49 231.49 0 012.132-3.745c0 1.008-.006 2.351-.014 3.745zm-7.767 3.449h-.016c-1.084.013-2.235.022-3.18.024 2.188-2.922 3.92-5.13 3.92-6.885a3.876 3.876 0 00-3.871-3.872 3.879 3.879 0 00-3.8 3.123 1.173 1.173 0 002.301.453 1.528 1.528 0 013.024.233c-.014.043.017.693-.96 2.09-1.672 2.388-2.67 3.694-3.205 4.395-.656.86-.955 1.251-.755 1.903.118.382.407.675.794.804.492.164 4.264.096 5.762.077a1.172 1.172 0 00-.014-2.345z"/><path d="M62.276 47.922c-8.858 0-16.065 7.206-16.065 16.064S53.419 80.05 62.276 80.05 78.34 72.844 78.34 63.986s-7.206-16.064-16.064-16.064zm0 29.783c-7.565 0-13.72-6.154-13.72-13.719 0-7.565 6.155-13.72 13.72-13.72s13.719 6.155 13.719 13.72-6.154 13.72-13.72 13.72z"/><path d="M47.029 74.6H40.39l-3.166-17.865 1.453-2.496a3.128 3.128 0 003.068-.766l.011-.011 7.087-7.098a20.16 20.16 0 013.847 1.492 1.173 1.173 0 001.068-2.087 22.53 22.53 0 00-4.804-1.8l-3.127-1.918a3.084 3.084 0 00-3.244.025l-.354.225c-.633-.923-.484-1.686-.42-2.912a16.62 16.62 0 001.974-1.496 13.039 13.039 0 002.64-3.216h2.39a4.913 4.913 0 004.907-4.907v-9.116c0-1.53-.89-2.88-2.219-3.51v-6.427a5.24 5.24 0 00-5.234-5.234h-.137a.2.2 0 01-.199-.199A5.24 5.24 0 0040.698.05H27.772c-6.39 0-11.59 5.199-11.59 11.59v5.505a3.884 3.884 0 00-2.219 3.509v4.636a3.89 3.89 0 003.886 3.886h1.614c.398 3.454 2.017 6.61 4.554 8.802.6.518 1.22.984 1.859 1.396-.07 1.203.211 2.017-.42 2.927l-.356-.225a3.084 3.084 0 00-3.243-.025l-3.126 1.917a22.626 22.626 0 00-12.22 7.895A22.627 22.627 0 001.66 65.832v4.703a6.416 6.416 0 006.409 6.409h38.96a1.172 1.172 0 000-2.345zM43.84 44.055a.724.724 0 01.761-.005l2.009 1.23-6.506 6.517a.789.789 0 01-1.054.036l-3.224-2.694 8.014-5.084zm-3.59-.5l-6.408 4.066-6.405-4.063c.933-1.401.762-2.779.783-2.944a14.824 14.824 0 005.682 1.144h.028a14.84 14.84 0 005.534-1.133c.022.165-.157 1.5.786 2.93zm-3.531 9.386l-1.399 2.402h-2.957l-1.399-2.403 2.878-2.403 2.877 2.404zm6.334-18.694H39.99a.945.945 0 010-1.887h3.063a.945.945 0 010 1.887zm8.323-4.478a2.566 2.566 0 01-2.563 2.563h-1.3c.36-1.01.607-2.069.733-3.157h1.589c.547 0 1.068-.114 1.54-.319v.913zm-.173-9.824c.11.213.173.454.173.708v4.636c0 .85-.692 1.54-1.541 1.54h-1.5v-4.682c.347-.185 2.069-.38 2.868-2.202zM19.349 26.83h-1.5c-.85 0-1.54-.691-1.54-1.54v-4.637c0-.254.061-.495.172-.708.8 1.823 2.526 2.02 2.868 2.201v4.684zm-.013-7.171a1.205 1.205 0 01-.808-1.137v-6.884c0-5.097 4.147-9.244 9.244-9.244h12.926a2.892 2.892 0 012.89 2.89 2.547 2.547 0 002.543 2.543h.137a2.892 2.892 0 012.89 2.89v7.805c0 .512-.325.968-.809 1.137l-2.564.893a.205.205 0 01-.274-.195l.004-4.851c.016-3.625-3.361-6.542-7.88-5.09-2.367.76-5.263.746-7.584 0-4.48-1.44-7.897 1.421-7.881 5.086l.005 4.855a.205.205 0 01-.273.195l-2.566-.893zm6.214 16.543c-3.982-3.441-3.797-8.29-3.856-8.589v-4.72a2.552 2.552 0 002.826-2.54l-.005-4.857c-.009-1.94 1.745-3.835 4.818-2.847 2.854.917 6.263.886 9.019 0 2.876-.924 4.827.71 4.818 2.851l-.005 4.854a2.552 2.552 0 002.826 2.54v5.026a12.084 12.084 0 01-.527 3.149 3.28 3.28 0 00-2.41-1.054H39.99a3.292 3.292 0 00-3.288 3.289 3.292 3.292 0 003.288 3.289h1.695c-2.242 1.785-4.844 2.771-7.779 2.82-3.181-.026-5.977-1.155-8.356-3.21zm-2.468 7.847a.724.724 0 01.762.006l8.014 5.084c-3.155 2.634-3.16 2.64-3.224 2.694a.789.789 0 01-1.054-.036l-6.506-6.516 2.008-1.231zm4.212 30.55H15.676v-5.504a1.173 1.173 0 00-2.345 0V74.6H8.07a4.069 4.069 0 01-4.064-4.064v-4.703c0-4.522 1.544-8.967 4.346-12.515a20.277 20.277 0 0110.49-6.953l7.087 7.098.011.012a3.128 3.128 0 003.068.765l1.453 2.496L27.294 74.6zm2.381 0l2.998-16.911h2.339l2.997 16.91h-8.334z"/></g><defs><clipPath id="clip0"><path fill="#fff" transform="translate(0 .05)" d="M0 0h80v80H0z"/></clipPath></defs></svg>