<svg width="14" height="15" fill="none" xmlns="http://www.w3.org/2000/svg"><g clip-path="url(#clip0)" fill="#D01215"><path d="M6.95 7.914h.092c.85-.014 1.537-.313 2.044-.884 1.116-1.258.93-3.415.91-3.621-.072-1.545-.803-2.285-1.406-2.63A3.223 3.223 0 007.03.371h-.049c-.322 0-.954.052-1.56.397-.608.345-1.35 1.084-1.423 2.64-.02.207-.206 2.364.91 3.622.505.571 1.192.87 2.041.884zM4.771 3.481c0-.008.003-.017.003-.023.095-2.078 1.571-2.302 2.203-2.302h.035c.783.018 2.113.337 2.203 2.302 0 .009 0 .018.003.023.003.02.206 1.992-.716 3.03-.365.412-.852.615-1.493.62h-.028c-.638-.005-1.128-.208-1.49-.62-.92-1.032-.722-3.012-.72-3.03z"/><path d="M12.953 11.492v-.009l-.002-.072c-.018-.575-.056-1.917-1.314-2.346l-.029-.009c-1.307-.333-2.395-1.087-2.406-1.095a.391.391 0 10-.45.64c.05.035 1.204.838 2.647 1.21.676.24.751.962.772 1.623a5.262 5.262 0 01-.058.968c-.47.267-2.311 1.189-5.112 1.189-2.789 0-4.641-.925-5.114-1.192a4.982 4.982 0 01-.06-.896l.002-.072c.02-.661.096-1.383.772-1.624 1.443-.37 2.597-1.177 2.646-1.209a.391.391 0 10-.449-.64c-.012.008-1.093.762-2.406 1.096-.012.002-.02.005-.03.008-1.257.432-1.295 1.774-1.313 2.346 0 .026 0 .049-.002.072v.009c-.003.15-.006.925.147 1.313.03.075.082.14.151.183.087.058 2.172 1.386 5.66 1.386 3.487 0 5.571-1.331 5.659-1.386a.389.389 0 00.15-.183c.145-.385.142-1.16.14-1.31z"/></g><defs><clipPath id="clip0"><path fill="#fff" transform="translate(0 .37)" d="M0 0h14v14H0z"/></clipPath></defs></svg>