<svg width="80" height="81" fill="none" xmlns="http://www.w3.org/2000/svg"><g clip-path="url(#clip0)" fill="#2B3063"><path d="M78.737 13.313l-2.4-12.101A1.333 1.333 0 0074.77.164L8.708 13.298H6.667c-.737 0-1.334.597-1.334 1.334v6.8A6.65 6.65 0 000 27.965v45.333a6.675 6.675 0 006.667 6.667h72c.736 0 1.333-.597 1.333-1.333v-64a1.333 1.333 0 00-1.263-1.319zM73.98 3.04l2.037 10.258H22.383L73.979 3.04zM3.823 25.136l.006.005c.426-.422.94-.745 1.504-.947v7.527c-.029-.01-.058-.016-.088-.027a3.929 3.929 0 01-.5-.241c-.08-.044-.165-.079-.242-.133a4.117 4.117 0 01-.667-.523 4.01 4.01 0 01-.013-5.661zm73.51 36.162H58.667V50.632h18.666v10.666zm0-13.333h-20c-.736 0-1.333.597-1.333 1.333v13.334c0 .736.597 1.333 1.333 1.333h20v13.333H6.667a4 4 0 01-4-4v-40c.06.046.126.076.188.119.117.083.238.153.36.228a6.71 6.71 0 001.096.54c.256.096.519.175.785.237.124.031.244.07.37.092.395.076.798.115 1.2.118h70.667v13.333zm-43.905-16a9.333 9.333 0 0118.477 0H33.428zm43.905 0H54.588c-.758-6.584-6.71-11.307-13.293-10.55a12 12 0 00-10.55 10.55H8v-16h69.333v16z"/><path d="M73.333 18.632h-8v2.666H72v6.667h2.667v-8c0-.737-.597-1.333-1.334-1.333zm-61.333 0c-.736 0-1.333.597-1.333 1.333v8h2.666v-6.667H20v-2.666h-8zm52 36h-2.667v2.666H64v-2.666z"/></g><defs><clipPath id="clip0"><path fill="#fff" transform="translate(0 .051)" d="M0 0h80v80H0z"/></clipPath></defs></svg>