<?xml version="1.0" standalone="no"?>
<!DOCTYPE svg PUBLIC "-//W3C//DTD SVG 20010904//EN"
 "http://www.w3.org/TR/2001/REC-SVG-20010904/DTD/svg10.dtd">
<svg version="1.0" xmlns="http://www.w3.org/2000/svg"
 width="944.000000pt" height="944.000000pt" viewBox="0 0 944.000000 944.000000"
 preserveAspectRatio="xMidYMid meet">
<metadata>
Created by potrace 1.11, written by Peter Selinger 2001-2013
</metadata>
<g transform="translate(0.000000,944.000000) scale(0.100000,-0.100000)"
fill="#000000" stroke="none">
<path d="M4117 7535 c3 -8 9 -12 14 -9 12 7 11 11 -5 17 -10 4 -13 1 -9 -8z"/>
<path d="M4167 7542 c5 -9 -42 -29 -52 -22 -20 14 -54 18 -49 6 3 -7 -5 -12
-18 -13 -17 -2 -19 0 -8 7 10 6 4 8 -18 6 -17 -1 -35 -6 -39 -11 -4 -4 -2 -5
6 0 10 6 12 4 6 -5 -6 -10 -11 -9 -22 5 -7 11 -13 13 -13 7 0 -7 -9 -12 -21
-12 -11 0 -18 -4 -15 -8 3 -5 -1 -9 -9 -9 -8 0 -12 3 -10 7 2 4 -2 7 -9 7 -8
0 -12 -5 -10 -11 2 -7 -10 -11 -31 -12 -19 -1 -32 3 -29 7 3 5 0 9 -5 9 -6 0
-11 -5 -11 -11 0 -5 -4 -7 -10 -4 -5 3 -10 2 -10 -4 0 -5 6 -11 13 -14 6 -3 2
-4 -9 -4 -13 1 -20 6 -17 13 7 18 -21 11 -42 -9 -9 -10 -20 -15 -23 -12 -4 3
0 10 8 15 8 5 12 12 8 15 -4 4 -14 -5 -23 -19 -10 -15 -22 -23 -28 -19 -16 10
-47 11 -47 2 0 -10 -41 -24 -59 -20 -8 1 -18 -3 -22 -11 -7 -10 -9 -10 -9 0 0
6 -5 12 -11 12 -5 0 -7 -4 -4 -10 3 -5 1 -10 -4 -10 -6 0 -11 5 -11 11 0 5 -4
8 -10 4 -5 -3 -7 -13 -4 -23 3 -9 -1 -6 -9 7 -12 20 -15 21 -21 6 -3 -9 -3
-22 1 -28 4 -7 -1 -6 -10 2 -15 12 -19 12 -32 -5 -14 -18 -14 -18 -10 4 3 20
2 22 -10 12 -8 -7 -13 -16 -10 -20 6 -9 -21 -7 -31 2 -8 9 -34 -2 -34 -14 0
-6 6 -5 15 2 9 7 15 8 15 2 0 -15 -28 -23 -36 -10 -4 7 -12 2 -21 -13 -8 -13
-12 -16 -9 -7 3 10 1 20 -4 23 -6 4 -10 -1 -10 -9 0 -8 -5 -18 -12 -22 -6 -4
-8 -3 -5 3 4 6 0 13 -7 16 -10 4 -14 0 -11 -13 3 -13 -1 -17 -11 -13 -8 3 -14
-1 -14 -8 0 -12 -2 -12 -9 0 -5 7 -14 10 -20 7 -6 -4 -9 -12 -6 -17 3 -5 -1
-6 -9 -3 -9 3 -13 10 -10 15 3 5 0 9 -5 9 -14 0 -14 -13 -1 -26 7 -7 6 -11 -5
-11 -8 0 -15 3 -15 6 0 3 -11 6 -23 6 -19 0 -23 -4 -20 -20 4 -17 3 -17 -6 -5
-7 10 -11 11 -11 3 0 -7 -9 -13 -19 -13 -11 0 -22 -6 -24 -12 -4 -10 -6 -10
-6 0 -1 6 -6 12 -12 12 -5 0 -7 -4 -4 -10 3 -5 -3 -10 -14 -10 -11 0 -22 -9
-26 -20 -4 -11 -11 -17 -17 -14 -7 4 -6 9 2 14 8 5 3 7 -12 7 -21 -2 -24 -5
-17 -19 7 -14 6 -16 -6 -12 -8 4 -15 1 -15 -7 0 -7 -3 -9 -7 -6 -3 4 -12 2
-19 -4 -8 -7 -14 -7 -19 1 -4 6 -3 10 2 9 14 -3 43 13 43 24 0 5 -8 3 -18 -6
-10 -10 -21 -15 -24 -12 -3 3 -11 -2 -19 -12 -12 -14 -12 -16 0 -8 10 5 12 4
7 -4 -4 -6 -12 -9 -17 -6 -5 4 -9 1 -9 -6 0 -8 -5 -7 -17 2 -10 8 -14 9 -10 2
4 -6 3 -14 -3 -18 -5 -3 -10 -1 -10 4 0 6 -5 11 -10 11 -7 0 -6 -8 1 -22 10
-20 10 -21 -2 -12 -16 13 -51 15 -43 2 5 -8 -11 -12 -30 -9 -5 1 -6 -5 -3 -13
4 -9 1 -18 -5 -22 -6 -4 -8 -3 -4 4 3 6 2 13 -4 17 -5 3 -10 -2 -10 -12 0 -15
-2 -16 -10 -3 -9 14 -15 7 -11 -14 1 -5 -6 -3 -15 5 -16 12 -17 12 -11 -3 3
-10 3 -17 -1 -17 -28 4 -41 -3 -35 -18 5 -15 3 -15 -9 1 -15 19 -16 19 -27 -3
-8 -14 -18 -20 -28 -17 -11 5 -14 2 -9 -10 5 -14 4 -15 -9 -4 -9 7 -18 10 -22
6 -3 -3 -2 -6 4 -6 5 0 10 -7 10 -15 0 -11 -4 -12 -13 -4 -16 13 -37 2 -27
-14 4 -7 -1 -6 -10 2 -16 12 -17 12 -10 -5 6 -16 4 -17 -8 -7 -11 9 -20 7 -39
-9 -14 -11 -20 -17 -13 -14 6 4 15 2 18 -4 4 -6 3 -10 -2 -9 -21 4 -34 -2 -27
-13 4 -7 3 -8 -5 -4 -6 4 -9 11 -6 16 3 5 0 12 -7 16 -7 4 -10 4 -6 -1 13 -14
-11 -45 -29 -38 -13 5 -15 2 -10 -12 7 -16 5 -16 -10 -4 -14 12 -16 12 -8 0 6
-11 3 -13 -12 -9 -17 5 -21 1 -18 -17 1 -16 -2 -22 -11 -18 -8 3 -11 10 -7 17
3 6 -3 3 -14 -7 -11 -9 -23 -14 -27 -10 -4 4 -4 -1 0 -11 5 -14 4 -17 -4 -12
-11 7 -17 -6 -13 -27 1 -5 -3 -6 -9 -2 -6 3 -8 10 -6 14 3 4 -1 8 -8 8 -8 0
-12 -7 -8 -15 4 -11 1 -13 -8 -7 -10 6 -12 4 -7 -8 4 -12 2 -14 -10 -10 -12 5
-14 3 -8 -7 6 -10 2 -12 -19 -8 -28 6 -44 -6 -25 -18 8 -5 9 -3 4 6 -5 9 -4
11 4 6 16 -11 3 -26 -16 -19 -10 4 -14 2 -9 -5 3 -6 1 -14 -5 -18 -7 -4 -9 -3
-6 3 4 6 0 13 -8 17 -8 3 -17 0 -21 -6 -4 -7 -3 -8 4 -4 7 4 12 4 12 -1 0 -14
-19 -38 -30 -39 -5 -1 -15 -2 -21 -3 -5 0 -7 -6 -3 -13 5 -8 2 -9 -10 -5 -14
5 -17 3 -12 -8 3 -8 1 -15 -4 -15 -6 0 -10 5 -10 10 0 6 -4 10 -9 10 -6 0 -8
-9 -6 -21 3 -16 1 -18 -8 -10 -9 7 -17 7 -27 -1 -12 -8 -12 -9 3 -4 9 3 17 1
17 -4 0 -6 -7 -10 -15 -10 -8 0 -15 -5 -15 -11 0 -5 -4 -7 -10 -4 -5 3 -10 -1
-10 -9 0 -8 -5 -18 -12 -22 -8 -5 -9 -2 -5 10 4 10 3 15 -3 11 -6 -3 -10 -13
-10 -21 0 -8 -5 -14 -11 -14 -5 0 -7 -4 -4 -10 4 -6 -1 -7 -11 -3 -13 5 -15 3
-9 -7 6 -10 2 -12 -18 -8 -23 4 -25 3 -16 -14 5 -10 6 -18 2 -17 -20 3 -33 -2
-31 -13 3 -11 -1 -13 -33 -17 -8 -1 -7 -7 2 -18 13 -15 12 -15 -7 -5 -21 11
-34 7 -34 -10 0 -5 5 -6 12 -2 7 4 8 3 4 -5 -4 -6 -11 -9 -16 -6 -5 3 -16 -2
-24 -11 -9 -8 -16 -12 -16 -7 0 4 -7 -3 -16 -15 -8 -12 -20 -19 -26 -16 -7 4
-8 2 -4 -4 5 -9 15 -7 34 4 l27 16 -25 -20 c-14 -11 -26 -19 -29 -17 -9 10
-41 -17 -39 -32 2 -9 -4 -18 -12 -20 -12 -4 -12 -3 -1 5 8 6 9 12 3 16 -11 7
-25 -21 -16 -35 3 -5 -2 -9 -10 -9 -9 0 -16 -4 -16 -10 0 -5 -6 -7 -14 -4 -8
3 -16 -4 -20 -20 -4 -16 -11 -23 -20 -20 -16 6 -29 -22 -19 -39 4 -7 -1 -6
-10 2 -10 8 -20 11 -24 7 -3 -3 -1 -6 5 -6 21 0 13 -20 -17 -38 -15 -9 -30
-21 -32 -27 -2 -5 -8 -9 -13 -7 -5 2 -6 -7 -3 -18 4 -17 3 -19 -8 -10 -12 10
-13 7 -10 -12 4 -23 4 -23 -12 -3 -9 11 -14 14 -11 5 6 -17 -16 -42 -28 -32
-5 4 -2 -1 5 -10 11 -15 10 -17 -8 -13 -11 2 -24 -1 -27 -7 -4 -6 -3 -8 3 -5
6 4 13 1 16 -7 4 -10 0 -12 -14 -9 -10 3 -19 0 -19 -6 0 -6 -9 -20 -20 -31
-12 -12 -18 -25 -15 -30 3 -5 0 -12 -6 -16 -8 -4 -9 -3 -5 4 10 17 -3 15 -20
-2 -19 -19 -18 -27 4 -20 14 5 14 4 2 -4 -8 -6 -17 -9 -21 -6 -4 2 -13 -4 -20
-13 -10 -12 -10 -14 -1 -9 6 4 12 2 12 -3 0 -6 -7 -11 -16 -11 -9 0 -12 -5 -8
-12 5 -8 2 -9 -11 -4 -15 5 -16 4 -5 -9 11 -13 11 -16 -1 -13 -8 2 -13 -3 -11
-12 2 -8 0 -12 -4 -7 -12 12 -53 -33 -47 -51 4 -10 2 -13 -5 -8 -7 4 -12 2
-12 -4 0 -6 -4 -8 -10 -5 -6 4 -7 -1 -3 -11 4 -12 3 -15 -5 -10 -7 4 -12 1
-12 -9 0 -10 5 -13 12 -9 7 4 8 3 4 -4 -4 -7 -14 -12 -23 -12 -9 0 -13 -6 -10
-14 4 -11 1 -13 -11 -9 -15 6 -15 5 -4 -10 12 -14 11 -16 -7 -12 -11 2 -24 -1
-27 -7 -4 -7 -2 -8 4 -4 7 4 12 1 12 -9 0 -9 -5 -13 -10 -10 -6 3 -10 1 -10
-5 0 -6 -5 -8 -12 -4 -8 5 -8 2 1 -10 8 -9 10 -16 5 -15 -21 4 -26 -2 -13 -18
13 -15 12 -15 -8 -5 -19 10 -20 9 -16 -8 3 -12 0 -20 -6 -20 -7 0 -9 6 -5 13
4 7 3 8 -2 4 -5 -5 -9 -16 -9 -25 0 -9 -6 -17 -12 -17 -7 0 -13 -4 -13 -10 0
-5 4 -10 9 -10 5 0 13 -4 18 -9 4 -5 3 -6 -4 -2 -6 3 -14 2 -18 -4 -4 -6 -11
-7 -17 -4 -7 5 -9 1 -5 -9 4 -10 -1 -18 -14 -22 -10 -4 -19 -11 -19 -17 0 -7
4 -7 13 1 10 8 14 7 14 -4 0 -8 -4 -12 -9 -9 -4 3 -8 0 -8 -7 0 -8 -5 -7 -17
2 -14 12 -15 12 -9 0 5 -8 3 -17 -5 -22 -11 -7 -9 -9 6 -9 15 0 12 -4 -13 -17
-18 -8 -30 -18 -28 -21 3 -3 14 1 23 9 16 12 17 12 6 -2 -7 -9 -9 -19 -5 -23
4 -4 3 -7 -3 -6 -20 4 -35 0 -35 -11 0 -5 4 -7 10 -4 6 3 7 -1 4 -9 -3 -9 -10
-13 -15 -10 -5 3 -9 -4 -9 -16 0 -12 -4 -18 -10 -15 -5 3 -10 -3 -10 -13 0
-11 -7 -22 -15 -26 -8 -3 -12 -12 -9 -20 3 -8 0 -17 -5 -21 -6 -3 -8 -11 -5
-17 4 -7 2 -8 -5 -4 -9 6 -9 12 1 24 11 15 11 15 -4 4 -9 -7 -15 -24 -13 -37
1 -17 -3 -25 -13 -25 -12 0 -12 -3 -2 -15 11 -13 10 -14 -3 -10 -8 4 -18 1
-23 -6 -5 -8 -3 -10 7 -3 10 5 8 0 -4 -19 -12 -19 -14 -27 -5 -27 8 0 5 -5 -5
-11 -9 -6 -14 -15 -11 -21 5 -7 2 -9 -8 -5 -21 8 -30 -3 -17 -20 8 -9 8 -13 1
-13 -7 0 -9 -8 -5 -17 6 -16 5 -16 -10 -4 -15 12 -17 12 -11 -4 5 -13 4 -16
-4 -11 -7 4 -12 2 -12 -3 0 -6 5 -11 10 -11 6 0 10 -5 10 -11 0 -5 -4 -7 -10
-4 -9 6 -15 -8 -11 -29 1 -5 -6 -3 -15 5 -10 8 -15 9 -11 2 8 -13 -12 -65 -22
-58 -4 2 -7 -5 -7 -16 0 -18 2 -18 12 -5 6 9 15 16 20 16 5 -1 -7 -15 -26 -31
-32 -28 -33 -31 -10 -25 25 6 25 6 2 -5 -12 -7 -22 -16 -22 -21 0 -5 5 -6 12
-2 7 5 8 3 4 -5 -5 -7 -15 -10 -23 -6 -13 4 -14 3 -3 -10 10 -12 10 -15 0 -15
-9 0 -10 -3 -1 -13 8 -11 7 -18 -7 -31 -10 -9 -21 -13 -25 -10 -3 3 -3 -4 0
-17 5 -17 3 -20 -8 -14 -12 7 -12 6 -1 -7 13 -16 1 -35 -16 -24 -5 3 -6 -9 -4
-26 3 -21 1 -29 -7 -24 -8 5 -8 0 -1 -18 5 -14 6 -25 2 -25 -18 3 -32 -2 -32
-12 0 -5 4 -7 10 -4 6 3 7 -1 4 -9 -3 -9 -11 -13 -18 -9 -6 4 -5 -1 3 -10 8
-10 11 -20 7 -24 -3 -3 -6 -1 -6 6 0 7 -5 9 -10 6 -7 -4 -7 -13 0 -25 8 -16 8
-18 -5 -14 -8 4 -15 1 -15 -5 0 -6 6 -11 13 -11 8 0 7 -4 -3 -10 -8 -5 -11
-10 -6 -10 4 0 -2 -9 -15 -21 l-24 -20 24 12 24 12 -21 -27 c-12 -16 -18 -34
-15 -43 4 -11 2 -14 -5 -9 -7 4 -12 2 -12 -4 0 -6 -6 -8 -12 -4 -8 4 -10 3 -5
-2 5 -5 13 -9 18 -9 11 0 12 -5 4 -27 -4 -10 -12 -15 -18 -11 -6 4 -7 1 -2 -7
4 -7 2 -15 -4 -20 -7 -4 -13 -13 -14 -21 -2 -8 -7 -21 -12 -29 -7 -13 -6 -13
8 -2 14 12 16 11 14 -6 0 -11 -6 -18 -13 -15 -9 3 -11 -3 -7 -18 4 -15 3 -20
-5 -15 -7 4 -12 2 -12 -3 0 -6 5 -11 11 -11 5 0 7 -5 4 -10 -4 -6 -11 -7 -17
-4 -6 4 -6 -2 1 -15 10 -18 9 -21 -6 -21 -14 0 -15 -2 -5 -9 11 -7 10 -9 -3
-15 -10 -3 -13 -11 -8 -18 13 -21 12 -37 -2 -32 -18 7 -13 -25 6 -37 11 -8 10
-9 -6 -7 -15 2 -21 -4 -23 -26 -2 -15 1 -26 6 -23 5 4 9 0 9 -8 0 -8 -4 -12
-8 -10 -4 3 -9 -2 -12 -9 -3 -8 -1 -17 6 -20 9 -3 8 -5 -1 -5 -10 -1 -10 -6
-1 -22 6 -12 7 -19 2 -16 -8 5 -11 -2128 -3 -2143 1 -3 2 -9 1 -14 -1 -4 5
-19 14 -32 14 -21 13 -24 -3 -33 -16 -10 -16 -10 2 -11 15 0 17 -6 14 -30 -3
-17 0 -30 5 -30 5 0 4 -6 -2 -13 -11 -14 -5 -27 13 -27 6 0 4 5 -4 10 -8 5
-10 10 -4 10 21 0 24 -14 7 -32 -16 -18 -16 -18 3 -11 19 7 19 7 0 -22 -13
-21 -15 -26 -4 -17 13 10 18 9 29 -5 8 -9 9 -14 2 -10 -6 4 -14 3 -18 -3 -3
-5 -1 -10 5 -10 7 0 9 -7 6 -16 -5 -14 -4 -15 9 -4 20 16 19 6 -1 -14 -14 -15
-14 -16 5 -16 12 0 21 -5 21 -11 0 -6 -8 -8 -17 -5 -11 4 -8 -2 7 -14 20 -17
21 -19 5 -14 -16 6 -18 5 -7 -7 9 -10 56 -13 205 -14 203 -1 240 2 231 16 -3
5 -10 7 -15 4 -5 -3 -6 1 -3 10 5 12 10 13 23 4 9 -6 3 0 -12 15 -16 14 -27
32 -24 39 2 6 -3 17 -11 23 -21 15 -24 57 -4 49 12 -4 13 -3 2 10 -7 8 -17 12
-24 8 -8 -4 -8 -2 1 7 8 9 7 16 -5 31 -9 10 -16 27 -17 38 -1 17 1 19 14 8 10
-7 9 -3 -3 10 -12 14 -17 32 -14 48 5 22 -2 29 -24 26 -3 0 -3 12 2 28 4 16 4
34 0 42 -5 7 -6 17 -3 23 3 5 1 6 -5 2 -7 -4 -12 -3 -12 3 0 5 6 12 13 14 6 3
1 6 -13 7 -22 0 -23 2 -7 11 13 8 15 14 8 23 -11 13 -19 46 -20 84 -1 16 -5
21 -13 16 -9 -5 -9 -2 1 9 11 15 11 17 -2 17 -19 0 -17 31 3 47 13 10 12 11
-4 10 -11 -1 -20 5 -21 16 -2 9 1 15 6 11 5 -3 6 -10 3 -16 -4 -7 -2 -8 4 -4
13 8 5 36 -10 36 -5 0 -6 5 -3 10 3 6 0 10 -7 10 -9 0 -9 3 2 10 13 9 8 14
-12 11 -13 -1 -1 32 18 47 16 12 16 14 2 9 -20 -7 -24 3 -7 20 9 9 6 10 -12 6
-24 -5 -24 -5 -4 11 11 10 15 15 9 12 -7 -3 -15 1 -18 10 -8 21 -8 24 5 24 5
0 7 -5 3 -12 -5 -7 -3 -8 5 -4 9 6 9 12 -3 25 -19 21 -21 35 -3 25 6 -4 4 1
-5 11 -13 14 -14 22 -5 42 8 18 7 26 -3 36 -10 10 -12 9 -7 -6 4 -11 3 -16 -4
-12 -13 9 -6 30 9 30 7 0 11 5 10 10 -2 6 -8 10 -13 9 -6 -1 -11 7 -11 17 0
14 3 16 15 6 12 -10 12 -7 -1 18 -14 28 -16 60 -4 72 3 3 1 14 -4 24 -7 12 -6
20 1 24 7 5 4 14 -8 28 -10 11 -12 17 -5 13 13 -8 17 6 5 18 -15 15 -11 38 5
32 15 -5 15 -4 0 8 -23 17 -23 27 0 20 14 -5 14 -4 3 4 -15 11 -24 55 -9 46 4
-3 8 0 8 5 0 6 -4 11 -10 11 -5 0 -10 5 -10 11 0 5 6 7 13 3 9 -6 9 -4 0 7
-17 17 -17 32 0 23 8 -5 8 -2 -2 9 -11 14 -11 17 0 17 8 0 6 5 -6 13 -14 11
-15 16 -5 22 9 6 11 4 5 -6 -7 -12 -5 -12 6 -1 12 11 12 14 -1 22 -13 9 -13
10 0 10 12 0 12 2 1 9 -9 6 -10 10 -2 16 9 5 9 10 0 21 -9 11 -8 14 2 14 10 0
10 3 3 8 -13 8 -13 50 -1 70 6 8 2 12 -10 13 -16 0 -16 1 2 9 13 6 15 9 5 9
-9 1 -11 4 -5 9 12 8 13 22 3 37 -4 6 -3 17 3 25 12 21 11 33 -3 24 -6 -4 -4
3 5 16 11 16 13 28 7 41 -7 12 -6 19 3 22 6 3 3 6 -8 7 -18 1 -18 2 3 11 13 5
21 13 17 18 -3 5 -1 13 5 16 8 5 6 15 -5 32 -10 15 -12 22 -4 18 9 -6 11 -2 7
13 -4 13 -1 22 5 22 7 0 5 5 -3 10 -11 7 -11 10 -2 10 7 0 10 5 7 10 -4 6 -11
8 -16 5 -5 -4 -9 -1 -9 4 0 6 10 11 23 11 12 0 17 3 11 8 -6 4 -13 17 -17 30
-5 20 -3 21 10 10 14 -12 15 -11 5 9 -9 16 -9 24 0 29 7 5 8 3 3 -7 -8 -12 -6
-12 8 0 18 14 22 22 9 20 -4 -1 -14 -1 -22 0 -13 1 -13 3 0 10 8 6 18 7 23 4
5 -3 3 4 -5 16 -11 17 -11 25 0 42 8 12 9 18 3 15 -5 -4 -9 2 -8 14 1 11 7 18
13 16 9 -3 10 3 4 25 -5 18 -5 29 1 29 6 0 6 7 -1 19 -7 14 -7 22 2 27 6 4 8
3 4 -4 -3 -6 -1 -14 6 -18 7 -4 10 -4 6 1 -4 4 -2 15 5 23 8 11 8 14 0 9 -6
-4 -14 -3 -18 3 -3 5 1 10 9 10 8 0 18 5 22 12 4 6 3 8 -3 5 -6 -4 -14 0 -17
9 -5 12 -2 15 9 10 11 -4 14 -2 8 7 -10 15 -11 77 -2 71 13 -7 18 23 6 35 -9
9 -8 11 4 6 10 -4 20 -1 25 6 4 7 3 10 -4 5 -6 -3 -13 -2 -17 4 -3 5 -1 10 5
10 7 0 10 6 7 14 -3 8 -1 17 6 20 8 3 7 5 -2 5 -12 1 -12 3 1 14 8 6 18 28 22
47 5 33 5 34 -9 16 -8 -11 -15 -16 -15 -11 0 5 10 19 22 32 16 17 18 23 7 24
-8 0 -4 4 9 9 22 10 31 30 11 30 -5 0 -7 -5 -3 -12 5 -7 3 -8 -6 -3 -10 6 -9
11 4 21 13 9 14 13 4 17 -10 4 -10 6 0 6 6 1 12 8 12 16 0 8 5 15 11 15 5 0 7
5 4 10 -4 6 -11 7 -17 4 -7 -4 -8 -2 -4 5 4 6 12 8 18 5 7 -5 9 -1 5 9 -3 10
-2 17 3 17 5 0 6 7 3 17 -4 9 -2 14 3 10 6 -3 9 7 8 24 -1 16 2 32 7 35 5 3 6
10 3 16 -5 7 -2 9 7 6 10 -4 15 1 16 13 1 13 -2 17 -10 12 -7 -4 -6 0 2 10 7
9 17 14 22 11 11 -6 12 10 2 20 -11 10 -12 37 -2 30 5 -3 6 -10 3 -16 -4 -7
-2 -8 5 -4 6 4 9 11 6 16 -3 4 -1 10 5 12 6 2 12 13 15 26 2 12 0 20 -4 18 -4
-3 -8 1 -8 8 0 8 9 12 21 10 12 -3 15 -2 9 2 -7 3 -13 10 -13 15 0 6 5 7 12 3
7 -5 8 -3 3 7 -16 25 -13 47 7 44 21 -4 33 11 17 21 -8 5 -9 3 -4 -6 5 -9 4
-11 -3 -6 -9 5 -9 13 -1 29 15 29 24 37 16 15 -3 -10 -3 -19 1 -22 4 -3 9 5 9
17 1 12 -3 25 -10 29 -7 5 -3 8 12 8 24 0 24 0 5 15 -19 14 -18 14 2 10 17 -3
21 1 17 15 -3 10 5 27 19 40 l23 22 -25 -6 c-14 -3 -19 -3 -12 0 6 3 10 10 7
14 -3 5 4 7 16 5 17 -3 19 -1 9 10 -8 10 -8 15 1 21 8 5 9 3 4 -6 -5 -9 -4
-11 4 -6 9 6 9 11 -1 24 -11 13 -10 15 5 9 10 -4 17 -2 18 6 2 33 11 62 19 65
6 2 10 10 10 18 0 9 5 12 10 9 6 -3 10 -1 10 4 0 6 -5 11 -11 11 -5 0 -7 5 -4
10 4 6 11 7 17 4 6 -4 5 3 -2 16 -11 20 -10 21 10 10 20 -10 21 -10 11 8 -8
16 -7 23 6 33 14 12 16 12 8 -1 -8 -13 -6 -13 8 -1 12 9 14 18 8 30 -9 16 7
51 24 51 5 0 0 -9 -9 -19 -13 -14 -14 -21 -5 -27 7 -4 10 -3 6 3 -4 6 0 16 8
23 7 6 11 19 8 27 -5 13 -2 15 13 10 18 -7 18 -6 1 7 -16 13 -16 14 5 20 19 5
20 8 8 16 -13 9 -13 10 0 11 8 1 18 1 22 0 4 0 5 5 2 13 -3 7 2 16 11 20 9 3
13 11 9 17 -4 7 4 20 17 31 13 11 18 17 11 13 -6 -3 -12 -1 -12 4 0 11 15 15
35 11 6 -1 7 2 3 6 -4 4 -2 14 4 23 10 13 10 14 -2 4 -8 -7 -19 -13 -24 -13
-6 0 1 8 15 18 19 12 25 24 23 42 -3 19 -2 21 6 10 8 -13 11 -13 22 -1 11 12
10 13 -2 7 -9 -5 -8 -2 2 7 21 16 24 32 6 21 -7 -4 -5 2 6 14 10 12 23 19 29
15 6 -3 7 -1 3 5 -4 7 -2 12 4 12 6 0 8 4 5 10 -6 10 25 59 38 60 5 0 5 -5 1
-12 -4 -7 -3 -8 5 -4 9 6 9 11 -1 24 -10 12 -10 14 0 8 6 -4 12 -2 12 3 0 6 5
10 12 8 7 -1 12 8 13 20 0 12 4 25 9 30 6 5 6 2 1 -7 -4 -8 1 -6 12 5 16 15
18 23 9 34 -8 11 -8 13 2 7 8 -5 12 -1 13 11 0 11 3 13 6 5 4 -10 8 -10 19 -1
11 9 11 15 3 25 -8 10 -6 12 10 9 11 -2 24 1 27 7 4 7 2 8 -4 4 -7 -4 -12 -1
-12 9 0 10 7 15 18 13 12 -2 16 3 14 16 -3 17 -2 18 13 6 14 -11 16 -11 13 1
-2 8 -7 18 -13 22 -6 5 0 7 12 4 24 -5 32 8 11 16 -8 3 -7 6 4 6 9 1 20 6 24
13 4 7 3 8 -4 4 -8 -5 -10 -2 -6 8 3 9 9 14 14 11 4 -2 16 2 26 11 18 14 18
15 -6 8 -14 -3 -23 -5 -20 -3 3 2 16 13 29 24 14 11 21 14 17 8 -4 -7 -2 -13
3 -13 6 0 11 11 11 25 0 14 5 25 11 25 5 0 7 5 3 12 -4 7 -3 8 5 4 15 -10 43
13 34 27 -4 7 0 8 12 3 15 -5 16 -4 5 9 -7 9 -9 15 -4 14 22 -4 35 2 28 13 -5
7 -2 9 9 5 12 -4 15 -1 12 14 -4 18 -2 19 13 8 9 -7 14 -10 10 -5 -12 14 12
48 29 42 13 -5 14 -4 4 8 -9 11 -9 16 0 22 8 5 10 3 4 -7 -4 -8 2 -4 14 9 12
12 26 20 30 17 5 -2 15 3 22 12 10 12 10 14 2 9 -7 -4 -13 -2 -13 3 0 6 6 11
13 11 19 0 49 35 40 45 -5 5 1 3 11 -5 18 -14 19 -14 8 7 -11 19 -9 21 13 18
19 -2 23 1 15 10 -8 10 -8 15 1 21 8 4 9 3 5 -4 -4 -7 -2 -12 3 -12 6 0 11 7
11 15 0 8 5 15 11 15 5 0 7 5 3 12 -4 6 -3 8 4 5 5 -4 17 -4 26 -1 14 5 14 9
4 22 -11 13 -10 14 9 3 20 -10 22 -9 16 5 -4 11 -3 15 5 10 6 -3 16 3 22 14 6
12 18 19 25 16 9 -3 12 1 10 14 -2 11 -1 19 3 19 19 -3 33 2 28 10 -9 14 27
23 36 9 5 -8 7 -4 4 13 -4 23 -1 25 24 24 16 -1 28 3 27 9 -1 6 3 10 9 9 7 -1
10 6 7 20 -4 18 -3 19 6 7 9 -13 11 -13 11 2 0 12 5 15 16 11 10 -4 17 1 21
16 3 11 9 18 14 15 5 -3 9 0 9 7 0 9 3 9 14 0 11 -9 16 -9 22 0 4 8 3 9 -4 5
-7 -4 -12 -3 -12 1 0 12 22 33 34 33 6 0 4 -5 -4 -10 -10 -7 -11 -10 -2 -10 7
0 15 6 18 14 3 9 13 12 22 9 13 -4 12 -2 -3 11 -11 10 -15 15 -9 12 7 -3 17 1
24 9 9 11 16 12 25 5 10 -8 15 -8 21 1 4 8 3 9 -4 5 -7 -4 -12 -3 -12 2 0 16
27 21 40 9 8 -8 11 -8 7 -1 -4 6 0 20 8 30 14 18 14 18 10 -4 -2 -13 0 -20 6
-17 5 4 7 10 4 14 -2 5 3 17 11 27 9 10 13 13 9 7 -3 -7 -1 -13 4 -13 6 0 11
7 11 16 0 14 3 14 15 4 13 -11 14 -10 9 5 -5 13 -4 16 4 11 8 -4 12 0 12 11 0
15 2 16 10 3 9 -13 14 -7 11 13 0 4 6 7 15 7 9 0 12 5 8 13 -6 10 -4 10 7 0
17 -16 33 -17 23 -1 -5 8 -2 9 11 4 14 -5 16 -4 6 7 -9 12 -6 14 14 12 14 -2
23 0 20 5 -3 4 3 14 12 21 14 12 16 12 9 0 -6 -9 -5 -12 5 -9 8 3 13 14 11 24
-3 18 -3 18 11 -1 9 -11 19 -17 23 -12 4 4 2 7 -5 7 -7 0 -9 5 -6 10 5 8 11 7
21 -1 12 -9 13 -9 9 3 -3 8 4 23 17 34 15 13 19 14 10 2 -8 -10 -9 -19 -3 -22
5 -4 12 3 16 14 5 16 12 19 27 14 13 -4 18 -2 14 4 -3 5 1 15 9 22 13 11 14
10 10 -2 -4 -9 0 -15 8 -15 9 0 13 8 10 21 -3 12 -1 17 4 11 4 -5 14 -11 22
-13 12 -3 12 -1 0 14 -13 16 -12 16 8 5 19 -10 22 -9 17 4 -5 11 -2 14 12 8
11 -4 15 -3 11 4 -7 11 22 28 31 18 3 -3 0 -5 -6 -5 -7 0 -12 -5 -12 -11 0 -8
5 -8 15 1 8 7 15 20 15 29 0 13 2 13 9 2 6 -10 10 -10 16 -1 4 6 13 9 21 6 8
-3 14 -1 14 3 0 5 8 8 18 6 9 -1 25 7 35 19 10 11 16 16 13 10 -3 -6 1 -11 9
-11 8 0 12 4 9 9 -8 12 10 10 26 -4 12 -11 12 -10 1 5 -10 12 -10 17 -2 17 7
0 9 6 6 13 -4 6 1 3 9 -7 13 -16 16 -17 16 -4 0 8 8 22 17 29 9 8 14 9 10 3
-11 -19 20 -24 35 -6 9 11 10 14 1 8 -7 -4 -13 -2 -13 4 0 6 11 8 25 6 14 -3
25 0 25 5 0 5 5 9 11 9 5 0 7 -4 4 -10 -3 -5 -1 -10 4 -10 10 0 15 14 12 33
-1 5 4 7 11 4 7 -2 12 -11 10 -18 -1 -9 2 -8 11 3 8 10 23 16 35 13 14 -2 19
1 16 10 -3 7 0 16 7 21 8 4 10 3 5 -4 -4 -7 -2 -12 3 -12 6 0 11 6 11 13 0 8
4 7 10 -3 9 -13 12 -13 24 3 14 18 15 18 25 0 9 -15 10 -15 11 -2 0 23 36 54
45 39 4 -6 4 -14 1 -17 -3 -4 -6 -1 -6 6 0 7 -4 9 -10 6 -5 -3 -10 -10 -10
-15 0 -13 31 -5 40 10 7 11 11 11 24 0 14 -11 16 -11 11 2 -7 17 26 21 37 4 5
-7 8 -7 8 3 0 8 6 11 16 7 9 -3 12 -2 9 5 -4 6 -13 8 -21 5 -7 -3 -16 -1 -19
4 -3 5 8 7 25 5 22 -3 29 -1 25 8 -4 7 1 3 9 -7 13 -16 16 -17 16 -4 0 11 8
14 31 12 24 -3 30 0 26 11 -4 9 -1 12 8 8 8 -3 12 -10 8 -17 -3 -6 3 -3 14 7
24 21 72 28 91 14 9 -7 11 -6 6 7 -5 12 -2 15 10 10 9 -3 13 -11 9 -17 -4 -6
-1 -7 6 -3 7 5 10 14 7 22 -4 11 -1 12 13 4 14 -7 20 -6 25 5 4 11 13 14 32 9
21 -6 25 -4 19 7 -5 8 1 6 12 -4 21 -18 22 -18 32 0 8 14 10 14 11 3 0 -13 1
-13 10 0 8 13 10 12 10 -3 0 -10 5 -15 10 -12 6 4 8 10 5 15 -3 5 -1 12 5 15
6 4 9 2 8 -3 -2 -6 2 -10 7 -11 6 -1 10 3 10 8 0 5 4 13 8 18 5 4 8 4 7 -2 -5
-21 0 -36 10 -30 6 4 8 12 4 18 -3 7 2 3 10 -7 14 -17 16 -17 16 -4 0 9 5 20
12 24 6 4 8 3 5 -3 -4 -6 -1 -13 7 -16 10 -4 12 1 9 16 -3 13 -1 18 4 12 13
-16 116 -12 131 5 8 8 11 10 8 5 -2 -6 -1 -17 5 -25 6 -10 9 -11 9 -2 0 6 7
12 16 12 8 0 12 4 9 10 -3 6 1 7 10 4 14 -6 14 -8 -2 -21 -17 -13 -16 -13 4
-4 12 6 41 9 65 7 37 -4 41 -3 25 9 -17 12 -16 13 7 11 13 0 22 -4 20 -7 -2
-4 3 -10 12 -13 8 -3 12 -2 9 4 -8 13 1 13 25 0 15 -8 18 -7 15 2 -4 9 5 14
25 14 16 1 30 -2 30 -6 0 -13 29 -20 36 -8 5 7 2 8 -6 3 -9 -5 -11 -4 -6 3 4
7 2 12 -5 12 -7 0 -9 3 -6 7 4 3 22 -7 39 -23 18 -16 26 -21 18 -11 -12 17
-11 18 12 12 15 -4 29 -2 32 4 9 14 26 14 26 0 0 -5 -5 -7 -12 -3 -7 4 -8 3
-4 -4 7 -11 31 -7 53 10 7 6 14 4 19 -3 4 -7 3 -9 -3 -6 -5 3 -10 -1 -10 -9 0
-10 4 -11 11 -4 5 5 18 10 28 10 10 0 18 5 18 12 0 6 3 8 6 5 4 -4 1 -13 -6
-22 -11 -13 -10 -14 4 -9 9 3 16 9 16 13 0 9 37 7 46 -2 10 -10 26 -9 20 1 -3
5 1 9 8 9 9 0 12 -7 9 -16 -5 -13 -3 -14 8 -3 7 6 19 12 27 12 8 0 10 -5 6
-12 -5 -8 0 -7 11 2 10 8 16 10 12 3 -4 -6 -2 -15 4 -19 7 -4 9 -3 5 4 -10 16
13 25 29 12 12 -10 15 -10 15 -1 0 8 6 7 16 -3 19 -19 35 -21 30 -3 -1 6 -1 9
2 4 2 -4 13 -12 24 -18 15 -8 19 -8 14 0 -11 18 6 13 21 -6 7 -10 13 -13 12
-8 -3 24 2 27 17 9 8 -10 13 -14 10 -7 -4 6 -2 14 3 17 5 3 11 -1 15 -9 4 -11
11 -13 30 -5 19 7 29 5 47 -11 13 -11 29 -17 36 -15 7 3 15 1 19 -5 4 -6 11
-6 20 2 11 9 14 9 14 0 0 -7 5 -9 10 -6 6 4 8 12 4 18 -3 7 1 3 10 -7 8 -10
12 -24 9 -30 -5 -8 -3 -8 8 0 24 18 48 24 55 12 4 -7 3 -8 -4 -4 -7 4 -12 2
-12 -3 0 -15 13 -14 29 2 11 10 13 10 7 0 -4 -7 -4 -13 1 -14 4 0 18 -2 31 -5
17 -3 21 -1 16 8 -6 10 -3 9 8 0 9 -8 14 -21 11 -30 -4 -14 -3 -15 5 -2 6 8 8
18 6 22 -3 4 0 8 5 8 6 0 11 -7 11 -16 0 -11 6 -14 20 -9 11 4 20 2 20 -4 0
-6 5 -11 11 -11 5 0 8 4 5 8 -2 4 6 8 19 8 13 0 21 -4 19 -8 -3 -5 -10 -5 -16
-2 -6 4 -8 3 -5 -2 3 -5 18 -9 34 -8 15 0 34 -6 41 -15 11 -13 12 -13 6 -1 -5
12 -4 12 6 3 7 -6 19 -9 26 -6 8 3 14 -1 14 -8 0 -11 3 -11 10 1 8 13 10 12
10 -2 0 -10 -5 -18 -12 -18 -6 0 -8 -3 -5 -6 4 -4 13 -1 22 6 12 10 15 10 15
0 0 -9 4 -9 17 1 11 10 14 10 9 2 -5 -9 1 -13 18 -13 18 0 26 -6 27 -17 0 -15
2 -15 9 2 8 19 11 18 14 -4 0 -5 5 -13 10 -18 5 -5 6 -3 2 5 -4 6 -3 12 3 12
5 0 12 -6 14 -12 4 -10 6 -10 6 -1 1 9 7 8 20 -4 11 -9 18 -20 16 -23 -3 -4 9
-6 26 -4 22 3 28 0 23 -9 -5 -8 -2 -7 9 2 14 11 17 11 17 0 0 -10 3 -10 12 -1
15 15 28 15 28 1 0 -5 -4 -7 -10 -4 -5 3 -10 -1 -10 -9 0 -9 3 -15 8 -15 4 1
9 0 12 -1 18 -7 50 -5 50 3 0 6 3 7 6 4 4 -4 2 -13 -5 -20 -9 -12 -7 -13 12
-10 13 3 29 -2 36 -11 7 -8 20 -12 28 -9 13 5 15 2 11 -15 -8 -29 0 -28 12 1
6 16 9 18 9 5 1 -12 6 -15 18 -11 12 5 15 2 10 -10 -6 -15 -3 -16 13 -7 16 9
20 8 20 -5 0 -9 9 -15 21 -15 12 0 28 -8 35 -17 13 -17 14 -17 8 2 -4 16 -2
15 9 -4 10 -16 16 -20 21 -12 6 8 12 9 20 2 7 -6 16 -7 20 -3 4 4 7 3 6 -3 -6
-29 0 -36 23 -24 20 11 21 11 8 -4 -12 -15 -11 -17 8 -17 11 0 21 5 21 12 0 6
3 8 7 4 5 -4 -1 -14 -12 -23 -13 -9 -15 -14 -5 -12 24 5 71 -11 65 -21 -3 -6
-1 -10 5 -10 7 0 9 -7 6 -16 -3 -9 -2 -12 5 -9 6 4 8 13 5 21 -3 8 -1 14 3 14
5 0 12 -7 15 -16 3 -9 11 -12 18 -8 10 6 10 4 0 -8 -11 -14 -10 -16 7 -11 12
3 21 1 21 -6 0 -6 10 -11 21 -11 19 0 20 -2 8 -17 -13 -15 -12 -15 11 -3 24
13 24 12 10 -5 -8 -10 -10 -16 -3 -12 6 4 14 3 18 -2 3 -6 12 -8 19 -5 8 3 16
-4 19 -17 5 -20 8 -21 23 -8 15 13 16 11 10 -11 -6 -20 -5 -22 4 -10 9 11 13
12 17 3 2 -7 14 -13 25 -13 11 0 22 -8 25 -20 3 -12 14 -20 26 -20 11 0 17 -3
14 -7 -9 -9 24 -32 47 -33 12 0 16 -5 13 -14 -4 -11 -1 -13 10 -9 11 4 14 2 9
-5 -9 -16 7 -15 22 0 15 15 15 3 1 -24 -8 -15 -8 -19 0 -13 7 4 20 1 29 -6 14
-11 15 -11 5 1 -18 20 -16 34 2 16 8 -8 15 -22 15 -31 0 -12 7 -16 28 -13 23
2 27 -1 26 -20 -1 -19 1 -20 14 -10 12 10 14 10 8 1 -4 -8 -1 -13 8 -13 9 0
16 -4 16 -8 0 -5 7 -17 16 -28 8 -10 13 -12 9 -4 -4 8 6 2 21 -15 15 -16 28
-28 30 -25 1 3 6 1 11 -4 5 -5 2 -6 -6 -1 -9 5 -12 4 -7 -3 4 -7 14 -12 22
-12 10 0 12 -5 8 -12 -6 -10 -5 -10 8 -1 15 13 28 8 28 -11 0 -6 -5 -4 -10 4
-8 13 -10 12 -10 -2 0 -12 8 -18 21 -18 19 0 20 -2 8 -17 -13 -15 -12 -15 11
-3 24 13 24 12 10 -5 -9 -11 -10 -16 -2 -11 7 4 12 2 12 -4 0 -6 5 -8 10 -5 6
3 10 1 10 -5 0 -6 5 -8 12 -4 6 4 8 3 5 -3 -4 -6 1 -19 11 -30 9 -10 14 -14
10 -9 -5 6 -8 14 -8 19 0 12 23 -14 39 -45 8 -15 18 -25 23 -22 4 3 8 0 8 -6
0 -6 5 -8 10 -5 6 3 10 -3 10 -13 0 -11 7 -23 16 -26 15 -6 15 -4 3 11 -12 17
-12 17 7 0 16 -15 17 -19 4 -28 -12 -8 -10 -9 7 -4 19 5 22 3 16 -12 -6 -16
-5 -16 11 -4 15 12 17 12 14 0 -2 -8 2 -13 8 -12 7 1 15 -12 18 -30 5 -23 9
-28 15 -18 7 11 10 9 16 -8 3 -12 11 -19 16 -16 5 4 9 -1 9 -10 0 -10 -5 -13
-12 -9 -9 5 -8 2 1 -10 10 -12 17 -14 25 -6 5 5 15 10 21 10 5 0 4 -4 -3 -9
-11 -6 -10 -11 3 -24 9 -10 13 -22 9 -29 -6 -10 -4 -10 8 0 13 10 18 10 24 1
4 -8 3 -9 -4 -5 -7 4 -12 3 -12 -1 0 -5 14 -14 30 -20 17 -6 30 -15 29 -20 -4
-22 2 -34 14 -27 7 5 7 1 -3 -12 -8 -10 -11 -16 -6 -12 10 8 36 -15 36 -31 0
-6 5 -11 11 -11 5 0 7 5 3 12 -4 7 -3 8 5 4 6 -4 9 -12 6 -17 -4 -5 1 -16 9
-25 11 -10 16 -12 16 -3 0 7 3 9 6 6 4 -4 1 -14 -7 -24 -9 -11 -10 -14 -1 -9
7 4 12 2 12 -4 0 -6 3 -9 8 -7 4 3 16 -7 26 -21 11 -14 15 -23 10 -19 -5 3
-10 -3 -10 -13 0 -14 3 -16 13 -8 9 7 13 7 13 -1 0 -7 5 -9 11 -5 8 5 8 1 0
-14 -9 -18 -8 -19 12 -15 18 4 19 3 7 -6 -13 -10 -8 -15 12 -12 4 0 4 -7 1
-17 -3 -9 -3 -14 2 -10 4 4 14 1 21 -7 19 -18 18 -31 -1 -15 -9 7 -15 8 -15 2
0 -13 29 -24 43 -15 7 3 9 2 4 -2 -4 -5 1 -17 10 -28 10 -11 12 -17 6 -13 -7
4 -13 2 -13 -3 0 -6 5 -11 11 -11 5 0 7 -4 4 -10 -3 -5 0 -7 9 -4 12 4 14 -1
11 -23 -2 -15 -2 -22 1 -15 8 17 20 15 22 -3 1 -8 3 -22 4 -30 1 -12 4 -12 17
-2 12 10 13 9 7 -1 -5 -9 -1 -19 13 -28 13 -9 18 -20 14 -27 -14 -22 -11 -36
4 -30 24 9 46 -26 30 -46 -6 -8 -7 -12 -2 -9 6 4 19 -1 30 -9 19 -15 19 -15
-5 -9 -14 3 -19 3 -12 0 6 -3 9 -10 6 -16 -3 -5 4 -12 16 -15 12 -3 19 -11 16
-19 -3 -7 -1 -16 5 -19 5 -4 6 -12 2 -18 -4 -7 1 -6 10 2 10 8 20 11 24 7 3
-3 2 -6 -4 -6 -6 0 -13 -7 -16 -14 -4 -10 -1 -13 9 -9 9 3 14 -1 14 -12 0 -9
7 -23 15 -32 8 -8 13 -18 10 -23 -3 -4 2 -11 11 -14 10 -4 14 -14 11 -26 -3
-11 0 -23 5 -27 6 -3 8 -2 5 4 -3 5 0 10 7 10 8 0 12 -6 9 -13 -2 -6 1 -15 7
-19 8 -5 6 -15 -6 -33 -16 -25 -16 -26 -1 -13 22 18 34 7 17 -14 -7 -9 -9 -15
-4 -14 26 5 36 -1 25 -15 -8 -10 -9 -16 -1 -21 6 -3 8 -11 5 -16 -3 -5 1 -6 9
-3 9 3 16 2 16 -4 0 -6 -6 -13 -12 -15 -7 -3 -3 -6 10 -6 12 -1 22 -6 22 -12
0 -5 -4 -8 -8 -5 -5 3 -9 -1 -9 -9 0 -8 5 -11 10 -8 6 4 8 0 4 -10 -4 -10 -1
-17 6 -17 15 0 38 -35 29 -44 -10 -10 -11 -37 -1 -30 5 3 9 0 9 -6 0 -6 4 -9
9 -5 5 3 12 1 15 -4 4 -5 1 -13 -5 -17 -8 -5 -9 -3 -4 6 5 9 4 11 -3 6 -19
-11 -14 -26 9 -26 11 0 17 -5 14 -10 -4 -6 -12 -7 -18 -4 -9 5 -9 4 0 -6 6 -7
10 -18 9 -24 -2 -6 -1 -8 1 -4 3 4 11 1 19 -6 17 -17 19 -30 2 -20 -6 4 -8 3
-4 -4 3 -5 3 -12 -1 -15 -5 -2 -2 -2 5 -1 6 2 12 -1 12 -7 0 -6 6 -7 13 -3 10
6 10 4 0 -7 -18 -19 -16 -32 3 -25 14 5 15 4 4 -9 -8 -10 -9 -15 -2 -15 7 0 9
-7 5 -17 -4 -11 -3 -14 5 -9 12 7 16 -5 13 -33 -2 -7 2 -10 7 -7 11 7 10 -19
-1 -30 -15 -15 -6 -26 10 -13 11 10 14 10 9 2 -4 -7 -3 -13 2 -13 6 0 8 -8 5
-19 -3 -10 0 -22 7 -26 8 -5 8 -10 -1 -21 -9 -12 -9 -13 2 -9 9 3 15 -1 15
-12 1 -10 5 -27 9 -37 7 -15 5 -18 -6 -12 -8 4 -3 -2 11 -13 20 -17 21 -20 5
-14 -18 6 -19 5 -5 -13 8 -10 20 -22 25 -26 7 -5 6 -8 0 -8 -6 0 -16 5 -21 10
-7 7 -11 6 -11 -4 0 -8 3 -15 6 -14 22 2 32 -5 29 -20 -2 -11 3 -26 11 -36 12
-15 12 -16 -5 -10 -18 5 -18 5 0 -10 11 -9 17 -16 13 -16 -4 0 -3 -10 4 -21 7
-13 7 -19 1 -15 -6 3 -14 1 -18 -5 -4 -7 -3 -9 4 -5 11 6 25 -9 28 -31 1 -7
-2 -15 -7 -18 -12 -8 11 -53 30 -58 13 -4 13 -5 -2 -6 -15 -1 -16 -4 -7 -22 7
-11 9 -27 6 -35 -3 -8 -1 -14 5 -14 6 0 7 -5 4 -10 -4 -6 -11 -7 -17 -4 -7 4
-8 2 -4 -4 4 -6 14 -8 23 -5 12 5 15 2 10 -10 -3 -9 -2 -19 3 -22 5 -3 6 -13
3 -21 -3 -9 0 -20 8 -26 10 -7 7 -8 -11 -4 -24 5 -24 4 -6 -9 26 -19 31 -49 8
-41 -13 4 -12 2 3 -9 17 -14 18 -17 5 -25 -12 -8 -11 -10 5 -10 17 0 17 -2 5
-10 -8 -5 -10 -10 -5 -10 6 0 11 -12 10 -27 0 -20 4 -27 15 -25 12 3 12 1 3
-9 -7 -7 -9 -19 -3 -34 5 -13 7 -25 4 -28 -8 -8 -11 -76 -3 -71 4 2 10 0 14
-6 3 -5 1 -10 -4 -10 -6 0 -11 -5 -11 -11 0 -5 4 -8 8 -5 4 2 9 -5 9 -17 2
-17 0 -19 -7 -7 -8 13 -10 12 -10 -2 0 -10 6 -18 13 -18 8 0 8 -3 -2 -9 -11
-7 -10 -10 5 -14 18 -4 18 -5 0 -6 -20 -1 -20 -1 0 -17 10 -8 14 -13 8 -10 -7
3 -15 -1 -18 -10 -3 -8 -2 -12 4 -9 9 6 12 -1 9 -22 -1 -5 -5 -7 -10 -6 -4 2
-5 -5 -2 -14 4 -11 8 -13 11 -5 2 7 7 12 10 12 9 0 7 -53 -2 -68 -4 -7 -2 -12
3 -12 6 0 11 -5 11 -11 0 -5 -4 -8 -8 -5 -4 2 -14 0 -22 -6 -13 -8 -12 -9 2
-5 22 7 30 -3 17 -20 -9 -9 -8 -13 0 -13 6 0 11 -5 11 -11 0 -5 -6 -7 -12 -3
-10 6 -10 4 0 -8 9 -11 10 -18 2 -23 -6 -3 -8 -11 -4 -16 3 -5 10 -6 16 -3 5
4 3 -5 -7 -19 -11 -17 -13 -27 -5 -32 8 -5 8 -11 0 -20 -7 -8 -8 -20 -4 -27
13 -21 14 -41 2 -56 -9 -10 -8 -16 2 -22 11 -7 11 -11 1 -24 -11 -12 -11 -16
-1 -16 10 0 10 -4 -1 -16 -7 -9 -9 -18 -3 -22 13 -10 17 -35 4 -27 -5 3 -10 1
-10 -4 0 -6 6 -11 13 -11 8 0 7 -4 -3 -10 -10 -6 -11 -10 -2 -10 6 0 12 -5 12
-11 0 -5 -5 -7 -11 -3 -8 5 -8 1 0 -14 7 -14 8 -23 1 -27 -6 -4 -8 -11 -5 -16
11 -17 14 -49 5 -54 -5 -3 -7 -12 -3 -20 3 -8 0 -15 -7 -15 -6 0 -8 5 -5 10 3
6 1 10 -4 10 -16 0 -13 -11 6 -32 16 -18 16 -18 0 -12 -10 3 -17 1 -17 -5 0
-6 5 -11 10 -11 6 0 10 -5 10 -11 0 -5 -4 -8 -8 -5 -4 2 -8 -4 -8 -14 0 -10 5
-16 11 -13 5 2 -1 -4 -15 -16 l-25 -20 25 5 c14 2 19 1 12 -2 -10 -5 -10 -9 0
-22 11 -13 11 -14 -1 -7 -11 6 -13 2 -9 -19 3 -14 1 -26 -4 -26 -5 0 -5 -7 1
-17 5 -10 5 -26 0 -41 -7 -17 -6 -30 3 -41 10 -13 10 -14 -2 -4 -20 18 -35 16
-20 -2 10 -12 10 -15 0 -15 -9 0 -7 -8 5 -26 9 -15 12 -23 6 -20 -6 4 -11 4
-12 -1 0 -4 -2 -26 -4 -48 -1 -21 -7 -41 -14 -43 -6 -2 -8 -8 -5 -13 3 -6 0
-16 -6 -24 -15 -18 1 -20 19 -2 11 10 11 8 0 -10 -7 -12 -17 -19 -22 -16 -5 3
-8 -3 -7 -13 4 -31 0 -45 -8 -40 -5 3 -9 -1 -9 -9 0 -8 3 -12 7 -10 4 2 7 -10
7 -28 1 -18 -1 -26 -4 -19 -10 25 -19 11 -15 -24 3 -21 1 -34 -5 -31 -5 3 -10
-3 -10 -14 -1 -11 3 -17 9 -13 6 4 6 -2 -1 -15 -7 -11 -14 -21 -17 -21 -3 0
-2 5 2 12 5 7 3 8 -5 4 -7 -5 -10 -11 -7 -14 3 -3 0 -12 -7 -20 -8 -10 -8 -13
-1 -9 7 4 15 0 18 -9 3 -8 2 -12 -4 -9 -9 5 -15 -24 -11 -49 1 -5 -5 -6 -13
-3 -9 4 -18 2 -21 -4 -4 -5 -3 -9 2 -8 20 3 34 -2 28 -11 -4 -6 -11 -8 -16 -5
-5 3 -6 -2 -2 -11 4 -11 2 -15 -4 -11 -7 4 -10 -4 -8 -23 1 -17 -1 -30 -5 -30
-4 0 -11 -7 -14 -16 -5 -14 -4 -15 9 -4 13 11 14 10 9 -4 -3 -9 -10 -16 -14
-16 -4 0 -10 -9 -13 -20 -3 -11 -1 -18 4 -14 5 3 6 -2 3 -10 -3 -9 -10 -13
-15 -10 -5 3 -9 0 -9 -5 0 -6 6 -11 13 -11 9 0 8 -3 -2 -9 -8 -5 -10 -14 -6
-22 6 -9 4 -11 -8 -6 -20 7 -32 -9 -15 -19 17 -11 418 -12 418 -1 0 4 5 5 10
2 14 -9 12 8 -2 24 -7 8 -8 11 -3 8 6 -2 19 7 30 22 15 20 15 23 2 12 -10 -8
-17 -9 -17 -3 0 6 5 14 10 17 6 3 10 15 10 26 0 14 4 18 13 13 9 -6 9 -4 -1 8
-10 13 -10 18 -1 24 8 5 9 3 4 -6 -5 -9 -4 -11 3 -6 9 5 9 13 1 28 -9 17 -9
20 4 15 11 -4 14 3 12 34 -2 27 1 39 10 39 8 0 16 4 20 9 3 6 -4 8 -16 6 -16
-3 -18 -1 -10 9 6 7 7 17 3 21 -4 5 1 5 10 2 12 -4 15 -2 11 8 -3 8 -10 12
-16 8 -6 -3 -7 -1 -3 5 4 7 15 12 24 13 11 0 13 2 4 6 -10 4 -10 8 0 21 11 13
11 15 -2 8 -8 -4 -7 -1 3 7 15 13 15 15 2 20 -8 4 -12 13 -9 22 3 8 10 13 14
10 5 -3 6 5 3 17 -4 22 -4 23 11 4 9 -11 16 -15 16 -9 0 7 -7 18 -15 27 -19
19 -19 27 0 20 13 -5 14 -2 5 20 -8 22 -7 26 7 26 15 0 14 2 -3 16 -10 8 -13
12 -5 8 11 -5 13 -3 8 10 -4 9 -3 15 2 12 5 -3 11 1 15 9 3 8 0 17 -6 21 -7 4
-8 3 -4 -4 4 -7 2 -12 -3 -12 -18 0 -13 20 6 28 10 4 19 13 21 21 3 12 1 12
-15 0 -17 -13 -17 -12 1 15 10 16 13 25 7 22 -6 -4 -11 -2 -11 3 0 6 6 11 13
11 7 0 8 3 2 8 -5 4 -11 16 -12 27 -1 20 -1 20 13 1 16 -23 18 -17 4 18 -6 17
-6 27 2 32 7 5 8 3 3 -6 -5 -9 -4 -11 3 -6 9 5 8 16 -3 42 -8 19 -10 32 -4 28
8 -4 9 1 4 17 -7 23 -7 23 8 4 14 -19 15 -18 10 8 -3 16 -10 24 -17 20 -6 -3
0 5 13 17 22 22 23 24 6 30 -17 6 -17 7 -2 13 15 5 15 10 5 26 -10 17 -9 24 7
42 11 12 15 20 10 16 -6 -3 -17 -2 -25 3 -12 7 -12 10 3 16 9 3 17 10 17 16 0
5 -4 7 -8 4 -5 -3 -9 1 -9 9 0 8 4 12 8 9 13 -8 17 20 6 41 -15 27 -17 46 -6
39 5 -3 9 -1 9 4 0 5 6 9 13 9 7 0 13 -8 13 -18 0 -10 -4 -15 -8 -13 -13 8 -9
-10 8 -34 14 -20 12 -26 -8 -23 -5 0 -8 -3 -8 -9 0 -9 14 -14 33 -11 4 0 7 -3
7 -9 0 -5 -10 -10 -22 -10 -18 0 -20 -2 -8 -9 8 -6 18 -7 24 -4 5 3 6 1 2 -6
-4 -6 -13 -9 -19 -5 -7 3 -4 -1 5 -8 15 -13 15 -15 0 -26 -9 -7 -11 -10 -4 -6
10 5 13 -2 11 -29 -2 -20 1 -40 5 -44 5 -5 6 -2 1 6 -6 10 -4 12 4 6 9 -5 10
-10 2 -18 -15 -15 -14 -40 0 -31 8 5 9 2 1 -12 -8 -14 -6 -21 6 -32 10 -7 12
-11 5 -8 -6 4 -14 2 -18 -4 -3 -5 -1 -10 4 -10 15 0 14 -43 -1 -60 -7 -8 -3
-6 10 5 17 14 23 16 20 5 -2 -8 -9 -20 -17 -26 -11 -9 -12 -12 -1 -19 9 -6 11
-4 5 5 -5 9 -4 11 4 6 9 -6 9 -11 -1 -24 -10 -12 -10 -14 0 -8 19 12 19 -47
-1 -74 -9 -12 -9 -13 3 -3 8 7 17 13 21 13 9 0 5 -27 -6 -37 -4 -4 -5 -2 0 6
5 9 4 12 -3 7 -6 -4 -9 -13 -5 -22 3 -10 9 -11 17 -5 8 7 12 4 12 -8 0 -12 -6
-17 -16 -14 -13 4 -13 4 0 -6 8 -6 20 -11 27 -11 8 0 11 248 11 993 -1 545 -3
998 -5 1005 -3 6 -10 12 -15 12 -6 0 -5 -6 2 -15 10 -12 10 -15 -1 -15 -11 0
-11 -2 1 -10 13 -9 13 -10 0 -10 -12 0 -12 -2 -1 -9 10 -6 10 -10 1 -16 -9 -6
-9 -10 1 -16 12 -7 12 -9 0 -9 -7 0 -11 -6 -7 -15 3 -8 0 -15 -7 -15 -8 0 -6
-4 3 -10 13 -9 13 -10 0 -11 -8 -1 -19 -1 -23 0 -5 1 -6 -3 -2 -9 3 -6 12 -7
18 -4 8 5 8 3 0 -7 -19 -20 -16 -33 5 -18 15 12 16 12 5 -2 -7 -9 -9 -20 -5
-24 4 -5 -1 -5 -10 -2 -15 5 -16 2 -8 -18 7 -17 6 -25 -1 -25 -8 0 -8 -4 0
-14 9 -10 9 -16 1 -21 -6 -4 -9 -13 -6 -21 3 -7 -1 -20 -9 -28 -8 -7 -12 -16
-9 -19 3 -3 1 -13 -4 -23 -7 -13 -6 -24 5 -41 13 -19 13 -22 1 -18 -9 4 -14
-2 -15 -15 -1 -13 2 -18 10 -14 8 5 8 3 0 -7 -17 -17 -17 -46 0 -52 7 -3 5 -6
-5 -6 -10 -1 -18 4 -18 11 0 6 -3 9 -6 6 -3 -4 3 -19 13 -34 16 -25 16 -27 1
-22 -12 5 -15 3 -11 -7 3 -8 8 -13 12 -10 4 2 8 -2 8 -9 0 -9 -7 -12 -16 -8
-9 3 -13 2 -9 -3 4 -4 2 -15 -5 -23 -8 -11 -8 -14 0 -9 6 4 14 3 17 -2 3 -5
-1 -12 -9 -15 -9 -3 -18 1 -21 9 -4 8 -11 12 -18 8 -6 -4 -5 1 3 10 7 9 9 17
3 17 -5 0 -9 11 -8 25 0 16 6 23 14 20 7 -3 10 0 7 5 -3 6 -14 10 -23 10 -13
0 -13 2 4 16 10 8 14 13 8 10 -7 -3 -15 1 -18 10 -3 8 -2 12 4 9 6 -3 10 1 10
9 0 10 -6 13 -17 9 -15 -5 -16 -3 -5 8 16 17 16 32 0 23 -9 -5 -9 -2 1 9 7 9
9 17 3 17 -5 0 -8 10 -5 23 3 14 2 18 -4 10 -5 -7 -8 3 -8 26 0 34 1 37 13 22
11 -14 12 -13 3 6 -8 16 -8 23 2 27 6 3 3 4 -9 1 -14 -4 -21 0 -21 9 0 9 4 13
9 10 4 -3 8 0 8 5 0 6 -6 11 -12 11 -10 0 -9 3 1 9 12 7 11 12 -1 30 -8 11
-19 18 -24 13 -4 -4 -3 1 5 10 9 12 10 22 2 36 -7 13 -7 23 2 32 7 8 8 11 1 7
-7 -4 -11 3 -11 18 0 15 4 22 11 18 6 -3 6 0 -1 8 -7 7 -13 24 -13 37 0 13 -4
20 -10 17 -10 -6 -14 6 -10 39 1 10 -2 16 -8 13 -5 -4 -9 0 -9 8 0 8 5 12 10
8 5 -3 6 3 2 16 -4 14 -2 21 6 21 7 0 9 3 6 6 -4 4 -13 1 -21 -5 -11 -9 -16
-9 -22 0 -4 7 -3 10 2 7 5 -3 15 0 22 8 10 12 10 14 -2 14 -10 0 -13 6 -9 17
5 13 2 15 -13 10 -18 -7 -18 -6 -1 7 21 16 22 26 2 26 -11 0 -12 5 -5 25 7 19
6 27 -8 34 -14 8 -14 11 -2 11 9 0 5 6 -10 15 -14 8 -19 14 -11 15 11 0 11 3
0 17 -10 11 -10 14 -1 9 6 -4 12 -3 12 3 0 5 -6 12 -12 14 -10 4 -10 6 0 6 7
1 5 8 -7 20 -12 12 -18 30 -16 48 2 15 -2 34 -7 40 -6 7 -7 20 -4 29 6 15 4
15 -11 3 -10 -7 -15 -9 -11 -5 4 5 2 16 -5 24 -10 13 -8 14 13 7 l25 -7 -24
21 c-21 18 -22 23 -10 37 12 15 11 16 -11 9 -22 -7 -23 -6 -11 9 10 12 10 16
1 16 -7 0 -10 8 -7 20 3 11 1 23 -4 26 -5 3 -9 10 -9 15 0 6 5 7 12 3 7 -4 8
-3 4 5 -5 8 -12 9 -20 2 -9 -8 -12 -3 -10 19 1 17 -3 30 -9 30 -7 0 -5 5 3 10
11 7 11 10 2 10 -7 0 -10 5 -7 10 3 6 2 10 -4 10 -5 0 -11 -6 -14 -12 -5 -12
-6 -3 -8 52 0 11 -6 20 -12 21 -7 0 -3 4 8 9 19 8 19 9 -2 9 -17 1 -21 5 -16
18 4 10 2 14 -4 10 -5 -3 -10 0 -10 8 0 8 5 11 11 8 6 -4 5 1 -3 10 -7 9 -10
17 -5 17 5 0 1 7 -9 14 -10 8 -19 27 -20 44 -1 20 -6 27 -12 21 -5 -5 -13 -9
-18 -9 -5 0 -1 7 8 16 12 12 13 19 4 30 -6 8 -15 12 -19 9 -4 -2 -6 7 -4 21 2
19 -1 24 -12 20 -9 -3 -12 -2 -9 5 4 6 -1 16 -11 23 -11 9 -13 15 -6 20 17 10
2 36 -22 37 -20 0 -20 1 -1 9 11 5 14 9 7 9 -7 1 -11 4 -9 9 7 10 -19 32 -28
24 -5 -4 -3 2 2 12 8 15 7 26 -4 42 -8 13 -11 29 -7 36 6 10 3 9 -9 -1 -10 -8
-17 -9 -17 -3 0 6 -6 12 -12 15 -7 2 -5 3 5 2 9 -2 17 1 17 6 0 5 -6 9 -14 9
-8 0 -18 4 -21 10 -4 6 1 7 12 4 17 -5 17 -5 1 9 -10 8 -18 19 -18 26 0 6 -3
10 -7 10 -20 -3 -23 3 -12 24 11 19 10 20 -3 10 -12 -10 -15 -10 -16 0 -3 32
-10 48 -28 63 -10 8 -13 13 -7 9 9 -4 11 -1 7 9 -3 9 -11 13 -18 9 -6 -4 -5 1
2 10 12 14 11 16 -5 13 -16 -3 -19 1 -17 26 1 16 0 27 -3 24 -3 -3 -12 2 -20
10 -8 8 -19 11 -25 8 -6 -4 -6 1 1 14 9 17 8 22 -10 27 -16 5 -18 10 -8 21 9
11 8 14 -6 14 -9 0 -19 9 -22 20 -3 11 -10 17 -17 13 -6 -4 -5 1 3 10 12 15
11 17 -4 17 -12 0 -15 5 -11 16 4 11 2 15 -8 11 -10 -4 -12 1 -9 16 4 18 3 19
-6 7 -9 -13 -11 -12 -11 3 0 22 -25 49 -35 39 -5 -4 -5 -1 -1 6 5 8 -2 21 -19
33 -22 18 -24 23 -13 37 10 12 10 14 1 8 -8 -4 -13 -1 -13 8 0 9 -7 16 -15 16
-8 0 -12 6 -9 15 4 10 0 13 -13 10 -12 -2 -20 2 -20 10 0 7 5 12 11 11 6 -2 8
-1 3 1 -4 3 -5 9 -2 14 4 5 0 6 -8 3 -8 -3 -20 3 -28 13 -12 16 -12 17 1 6 11
-8 20 -9 30 -2 13 9 13 10 0 8 -20 -3 -70 21 -71 35 -1 6 -1 17 0 24 2 10 -5
12 -21 7 -13 -3 -18 -3 -12 2 6 4 11 16 11 25 0 13 -4 15 -12 8 -9 -8 -12 -4
-10 14 2 19 -1 23 -13 19 -12 -5 -14 -2 -8 12 7 18 6 18 -16 0 -13 -11 -17
-13 -10 -5 14 17 16 34 2 25 -5 -3 -10 -1 -10 5 0 6 -4 9 -9 6 -5 -4 -7 2 -4
12 2 11 -3 24 -14 32 -15 12 -16 12 -5 0 19 -22 14 -32 -6 -12 -11 10 -15 22
-11 28 9 11 -8 34 -25 34 -5 0 -1 -7 10 -15 18 -13 18 -14 -4 -8 -17 4 -21 10
-16 25 4 15 2 19 -12 16 -10 -2 -19 3 -20 10 -1 6 -2 17 -3 22 0 6 -8 10 -17
10 -13 0 -14 3 -5 14 9 11 9 16 0 22 -7 4 -9 3 -6 -3 4 -6 1 -13 -7 -16 -10
-4 -12 0 -8 15 3 14 1 19 -6 14 -7 -4 -12 -1 -12 9 0 9 -4 13 -10 10 -5 -3
-10 -2 -10 4 0 5 -9 13 -21 16 -17 6 -18 9 -7 23 7 9 8 13 2 9 -6 -3 -17 5
-24 18 -13 24 -45 42 -64 36 -5 -1 -4 4 2 12 17 20 -8 42 -28 24 -8 -8 -11 -8
-7 -1 4 7 0 15 -9 18 -9 3 -14 13 -11 20 3 8 -1 17 -9 20 -8 3 -13 2 -9 -3 6
-11 -22 -8 -32 4 -4 4 -3 5 3 2 7 -4 15 0 18 9 9 24 7 31 -5 14 -8 -11 -12
-12 -16 -2 -2 6 -9 12 -14 12 -6 0 -7 -5 -3 -12 4 -6 3 -8 -4 -4 -6 3 -9 15
-7 25 3 15 -1 19 -17 16 -16 -3 -17 -1 -8 10 8 10 8 15 -1 20 -6 4 -15 1 -20
-6 -7 -11 -9 -10 -9 4 0 9 -5 17 -11 17 -6 0 -9 6 -6 14 4 10 -1 13 -19 11
-20 -2 -22 0 -12 12 6 8 7 13 2 12 -5 -1 -12 0 -16 1 -5 1 -11 3 -16 4 -19 3
-62 46 -62 62 0 16 -2 17 -11 4 -9 -12 -10 -10 -6 8 3 13 3 21 0 18 -4 -3 -13
0 -22 7 -14 10 -14 10 -3 -5 12 -15 11 -16 -12 -5 -14 7 -21 14 -16 15 13 5
13 32 -1 32 -5 0 -7 -4 -4 -10 3 -5 -2 -10 -11 -10 -10 0 -14 3 -11 6 9 10
-12 46 -24 39 -5 -4 -9 0 -9 7 0 10 -2 10 -9 -1 -7 -11 -10 -9 -16 8 -4 14
-15 21 -30 21 -13 0 -27 5 -31 11 -4 8 1 9 16 4 20 -6 21 -5 9 7 -7 8 -21 13
-30 11 -9 -3 -20 0 -23 6 -4 7 -1 8 8 5 9 -3 16 -1 16 5 0 6 -3 10 -7 10 -24
-4 -53 2 -53 12 0 5 5 7 12 3 7 -4 8 -3 4 5 -6 9 -11 9 -22 0 -11 -9 -14 -7
-14 9 0 16 -5 19 -22 14 -20 -5 -21 -3 -10 10 10 13 10 18 1 24 -7 4 -9 3 -5
-4 4 -6 -1 -10 -13 -9 -11 0 -17 5 -15 9 5 8 -11 12 -29 9 -5 -1 -5 4 -1 10 5
9 2 10 -10 6 -13 -5 -17 -3 -13 7 4 10 1 13 -7 10 -8 -3 -17 0 -22 7 -4 7 -3
10 4 5 6 -3 13 -2 16 3 4 6 -11 8 -34 7 -34 -3 -37 -1 -23 9 15 11 14 13 -8
24 -23 11 -23 11 -5 -3 11 -9 15 -16 8 -16 -13 0 -52 39 -52 53 0 5 -7 6 -16
3 -8 -3 -25 0 -37 6 -12 7 -26 11 -30 10 -5 -1 -6 2 -2 8 6 9 -7 14 -27 11 -5
0 -8 6 -8 15 0 11 -7 14 -30 10 -17 -2 -28 0 -24 5 3 5 11 7 17 3 7 -3 3 2 -7
10 -11 9 -28 16 -38 16 -10 0 -18 5 -18 10 0 6 -5 10 -11 10 -5 0 -7 -5 -3
-12 4 -6 3 -8 -4 -4 -6 3 -9 16 -7 29 4 21 4 21 -10 3 -8 -11 -16 -17 -16 -13
-1 4 -2 11 -3 16 0 5 -5 13 -10 18 -5 5 -6 3 -2 -4 4 -7 2 -13 -3 -13 -6 0
-11 7 -11 16 0 12 -3 14 -13 6 -8 -7 -18 -7 -27 -2 -8 6 -10 10 -5 10 6 0 2 5
-8 11 -9 5 -22 7 -29 3 -6 -4 -8 -3 -4 4 3 6 2 13 -4 17 -5 3 -10 1 -10 -5 0
-21 -20 1 -21 23 0 21 -1 21 -9 2 -5 -11 -9 -15 -9 -8 -1 6 -10 10 -21 8 -11
-2 -23 1 -26 7 -4 7 -2 8 4 4 7 -4 12 -5 12 -2 0 3 -10 10 -21 17 -12 6 -19 7
-16 2 3 -5 -3 -9 -13 -9 -14 0 -16 4 -9 12 8 9 5 11 -10 7 -12 -3 -21 -1 -21
6 0 6 -5 11 -11 11 -5 0 -7 -6 -4 -12 4 -7 -2 -3 -13 9 -12 14 -33 23 -55 25
-30 2 -34 4 -24 17 10 11 9 13 -3 9 -8 -3 -26 4 -39 16 -13 11 -21 15 -17 9 4
-7 2 -13 -4 -13 -6 0 -8 -6 -4 -12 4 -7 -2 -5 -12 5 -16 15 -17 19 -4 27 9 6
10 10 3 10 -6 0 -15 -5 -19 -11 -4 -8 -9 -7 -15 2 -4 8 -14 14 -21 15 -34 3
-39 5 -34 12 3 5 -1 9 -9 9 -8 0 -12 -4 -9 -9 3 -4 0 -8 -5 -8 -6 0 -11 4 -11
10 0 5 -10 14 -22 20 -21 10 -21 10 -6 -3 10 -8 15 -17 11 -20 -9 -10 -44 34
-36 46 4 6 1 7 -6 3 -7 -5 -10 -14 -8 -20 3 -7 -1 -13 -9 -13 -7 0 -10 5 -7
10 4 7 -1 8 -12 3 -14 -5 -15 -4 -7 7 8 10 6 13 -9 14 -10 1 -19 -4 -19 -10
-1 -7 -7 -1 -16 13 l-15 25 6 -25 c5 -24 5 -24 -6 -3 -6 12 -18 24 -26 27 -8
3 -12 2 -8 -3 9 -16 -19 -18 -42 -3 -13 8 -23 11 -23 7 0 -3 -7 1 -16 10 -14
13 -19 14 -25 3 -6 -9 -9 -8 -9 7 0 17 -2 17 -10 5 -6 -10 -10 -11 -10 -2 0 6
-6 12 -14 12 -8 0 -17 -6 -20 -12 -4 -7 -4 -2 -2 12 5 24 4 24 -9 6 -14 -18
-15 -18 -15 -2 0 9 -4 14 -10 11 -5 -3 -10 -1 -10 5 0 6 -12 8 -31 5 -23 -4
-29 -2 -23 7 6 9 3 9 -9 -1 -10 -7 -17 -9 -17 -3 0 11 -18 11 -37 -1 -17 -11
-33 0 -27 17 3 8 0 17 -7 22 -7 4 -10 3 -6 -3 4 -6 -1 -19 -9 -29 -9 -10 -13
-13 -9 -7 3 7 1 21 -5 30 -10 16 -11 16 -6 1 4 -14 1 -16 -19 -8 -16 6 -27 6
-31 -1 -4 -7 -10 -6 -19 1 -8 7 -19 9 -24 6 -5 -4 -13 -1 -17 5 -4 8 -3 9 4 5
7 -4 12 -2 12 3 0 13 -17 15 -24 3 -4 -7 -40 -8 -56 -2 -3 1 -9 2 -13 1 -5 -1
-6 3 -2 9 3 6 12 7 18 4 7 -4 8 -3 4 1 -14 16 -37 14 -37 -3 -1 -15 -2 -15
-11 1 -6 10 -15 14 -22 10 -15 -9 -57 -12 -57 -3 0 3 6 12 13 20 6 8 -1 4 -17
-10 -21 -18 -28 -20 -23 -8 4 12 2 15 -9 11 -7 -3 -14 -10 -14 -16 0 -6 -3 -7
-6 -4 -4 4 -2 13 4 20 9 11 7 13 -9 12 -11 -1 -25 -8 -30 -16 -7 -12 -9 -12
-9 1 0 14 -41 16 -337 18 -252 1 -341 -2 -352 -11 -9 -7 -12 -7 -8 -1 4 8 -15
11 -63 11 -45 0 -67 -3 -63 -10 3 -6 1 -7 -5 -3 -19 12 -53 16 -47 5 8 -11 -7
-12 -21 0 -6 5 -9 6 -7 3z m1477 -109 c4 -11 1 -11 -14 -3 -24 13 -25 17 -5
17 8 0 16 -6 19 -14z m581 -173 c3 -5 1 -10 -4 -10 -6 0 -11 5 -11 10 0 6 2
10 4 10 3 0 8 -4 11 -10z m-855 -184 c-7 -7 -13 -7 -20 0 -6 6 -3 10 10 10 13
0 16 -4 10 -10z m300 -50 c0 -2 -7 -7 -16 -10 -8 -3 -12 -2 -9 4 6 10 25 14
25 6z m-3240 -56 c0 -5 -5 -10 -11 -10 -5 0 -7 5 -4 10 3 6 8 10 11 10 2 0 4
-4 4 -10z m4500 -55 c11 -13 10 -14 -4 -9 -9 3 -16 10 -16 15 0 13 6 11 20 -6z
m-4693 -70 c0 -8 -4 -12 -9 -9 -5 3 -6 10 -3 15 9 13 12 11 12 -6z m4033 -45
c0 -5 -2 -10 -4 -10 -3 0 -8 5 -11 10 -3 6 -1 10 4 10 6 0 11 -4 11 -10z m517
-282 c-3 -8 -6 -5 -6 6 -1 11 2 17 5 13 3 -3 4 -12 1 -19z m40 -30 c-3 -8 -6
-5 -6 6 -1 11 2 17 5 13 3 -3 4 -12 1 -19z m157 -94 c3 -8 2 -12 -4 -9 -6 3
-10 10 -10 16 0 14 7 11 14 -7z m-4834 -98 c0 -2 -7 -7 -16 -10 -8 -3 -12 -2
-9 4 6 10 25 14 25 6z m5707 -131 c0 -8 -4 -12 -9 -9 -5 4 -7 9 -4 12 3 3 -2
15 -11 26 -18 21 -18 21 3 3 11 -9 21 -24 21 -32z m-6046 -158 c-10 -9 -11 -8
-5 6 3 10 9 15 12 12 3 -3 0 -11 -7 -18z m-742 -230 c-2 -1 -13 -9 -24 -17
-19 -14 -19 -14 -6 3 7 9 18 17 24 17 6 0 8 -1 6 -3z m7198 -793 c-3 -3 -12
-4 -19 -1 -8 3 -5 6 6 6 11 1 17 -2 13 -5z m467 -42 c3 -5 -1 -9 -9 -9 -8 0
-12 4 -9 9 3 4 7 8 9 8 2 0 6 -4 9 -8z m-278 -304 c3 -4 -1 -5 -10 -4 -8 1
-18 5 -22 8 -3 4 1 5 10 4 8 -1 18 -5 22 -8z m-7756 -322 c0 -3 -4 -8 -10 -11
-5 -3 -10 -1 -10 4 0 6 5 11 10 11 6 0 10 -2 10 -4z m-476 -184 c3 -5 -1 -9
-9 -9 -8 0 -12 4 -9 9 3 4 7 8 9 8 2 0 6 -4 9 -8z m8537 -429 c13 -16 12 -17
-3 -4 -10 7 -18 15 -18 17 0 8 8 3 21 -13z m563 -342 c3 -5 -1 -11 -9 -14 -9
-4 -12 -1 -8 9 6 16 10 17 17 5z m-8903 -244 c-6 -8 -7 -18 -3 -22 4 -5 1 -5
-6 -1 -10 6 -10 11 -1 22 6 8 14 14 16 14 3 0 0 -6 -6 -13z m8834 -37 c3 -5
13 -6 23 -3 15 6 15 4 4 -9 -8 -10 -11 -30 -9 -47 3 -17 1 -31 -4 -31 -5 0 -4
-11 1 -25 6 -16 6 -26 -1 -31 -6 -4 -6 -11 2 -20 10 -12 9 -13 -5 -8 -10 4
-15 12 -12 20 3 7 -2 18 -9 24 -8 7 -12 17 -8 24 13 19 12 40 0 49 -8 6 -5 7
7 3 16 -6 17 -4 6 9 -9 11 -9 15 -1 15 7 0 9 5 6 10 -4 6 -10 8 -14 6 -4 -3
-8 1 -8 9 0 17 13 20 22 5z m9 -210 c-6 -6 -10 -3 -10 10 0 13 4 16 10 10 7
-7 7 -13 0 -20z m3 -60 c-1 -11 -5 -20 -9 -20 -10 0 -10 4 -2 24 8 22 13 20
11 -4z m0 -129 c0 -11 -5 -18 -9 -15 -4 3 -5 11 -1 19 7 21 12 19 10 -4z m0
-80 c0 -11 -5 -18 -9 -15 -4 3 -5 11 -1 19 7 21 12 19 10 -4z m0 -53 c-3 -8
-6 -5 -6 6 -1 11 2 17 5 13 3 -3 4 -12 1 -19z m1 -52 c1 -23 -4 -36 -15 -40
-13 -5 -14 -4 -4 8 7 8 11 20 10 28 -2 17 0 38 4 38 2 0 4 -15 5 -34z m2 -61
c0 -8 -4 -15 -10 -15 -5 0 -7 7 -4 15 4 8 8 15 10 15 2 0 4 -7 4 -15z m-8865
-23 c-3 -3 -11 0 -18 7 -9 10 -8 11 6 5 10 -3 15 -9 12 -12z m8870 -11 c3 -6
-3 -9 -14 -8 -11 0 -17 5 -15 9 7 11 22 10 29 -1z m-8870 -30 c3 -5 2 -12 -3
-15 -5 -3 -9 1 -9 9 0 17 3 19 12 6z m100 -691 c3 -5 1 -10 -4 -10 -6 0 -11 5
-11 10 0 6 2 10 4 10 3 0 8 -4 11 -10z"/>
<path d="M9246 2971 c-3 -5 1 -14 8 -20 12 -10 13 -8 9 8 -6 23 -9 25 -17 12z"/>
<path d="M5310 7526 c0 -2 8 -10 18 -17 15 -13 16 -12 3 4 -13 16 -21 21 -21
13z"/>
<path d="M5390 7498 c0 -14 18 -17 28 -5 8 10 6 13 -9 13 -10 0 -19 -4 -19 -8z"/>
<path d="M3676 7467 c3 -10 9 -15 12 -12 3 3 0 11 -7 18 -10 9 -11 8 -5 -6z"/>
<path d="M5515 7470 c-3 -5 -1 -10 4 -10 6 0 11 5 11 10 0 6 -2 10 -4 10 -3 0
-8 -4 -11 -10z"/>
<path d="M3583 7443 c0 -8 6 -9 19 -2 10 5 18 11 18 12 0 2 -8 3 -18 3 -10 0
-19 -6 -19 -13z"/>
<path d="M5830 7401 c0 -6 4 -13 10 -16 6 -3 7 1 4 9 -7 18 -14 21 -14 7z"/>
<path d="M6345 7220 c-3 -6 1 -7 9 -4 18 7 21 14 7 14 -6 0 -13 -4 -16 -10z"/>
<path d="M4596 7128 c3 -5 10 -6 15 -3 13 9 11 12 -6 12 -8 0 -12 -4 -9 -9z"/>
<path d="M4250 7100 c0 -5 5 -10 11 -10 5 0 7 5 4 10 -3 6 -8 10 -11 10 -2 0
-4 -4 -4 -10z"/>
<path d="M5080 7100 c-12 -7 -10 -9 7 -7 12 0 19 5 17 9 -6 10 -6 10 -24 -2z"/>
<path d="M3953 7075 c0 -8 4 -12 9 -9 4 3 8 9 8 15 0 5 -4 9 -8 9 -5 0 -9 -7
-9 -15z"/>
<path d="M4655 6809 c3 -9 -2 -22 -12 -30 -16 -12 -17 -12 -6 2 7 9 10 19 6
22 -3 4 -12 -1 -20 -11 -7 -9 -13 -12 -12 -7 3 24 -2 26 -19 5 -14 -18 -19
-19 -19 -7 0 9 4 14 9 11 4 -3 8 -1 8 5 0 5 -9 9 -20 8 -12 -1 -18 -7 -16 -14
3 -7 -1 -10 -10 -6 -8 3 -22 -1 -31 -8 -12 -10 -15 -10 -9 -1 5 8 -1 12 -23
12 -16 0 -32 6 -34 13 -4 9 -6 9 -6 -1 -1 -7 -6 -10 -13 -6 -7 4 -8 3 -4 -4 4
-7 2 -12 -4 -12 -6 0 -8 -5 -4 -11 5 -8 1 -8 -13 0 -15 7 -23 7 -32 -2 -7 -7
-11 -7 -9 -2 2 6 -1 10 -7 10 -5 0 -9 -4 -7 -10 1 -5 -3 -3 -10 5 -7 8 -19 16
-27 18 -12 3 -12 1 0 -14 13 -16 12 -17 -6 -7 -15 9 -22 8 -33 -5 -7 -10 -11
-11 -7 -4 3 6 3 12 -2 13 -4 0 -16 2 -26 4 -9 2 -15 -1 -11 -6 3 -5 11 -6 17
-3 7 4 8 3 4 -1 -11 -12 -37 -15 -37 -4 0 14 -24 6 -32 -11 -5 -12 -7 -12 -7
3 -1 9 -6 17 -12 17 -6 0 -8 -7 -5 -16 3 -8 2 -13 -3 -9 -5 3 -11 0 -13 -7 -3
-7 -7 -5 -11 6 -5 11 -3 15 5 10 7 -4 8 -3 4 4 -10 17 -23 15 -30 -4 -4 -10
-2 -13 7 -8 9 5 8 3 -1 -7 -11 -12 -14 -12 -22 1 -9 13 -10 13 -10 0 0 -13 -1
-13 -10 0 -9 14 -15 6 -10 -15 1 -5 -8 -1 -19 9 -19 17 -19 17 -14 -6 3 -13 1
-18 -4 -12 -4 6 -21 14 -38 17 -28 5 -29 4 -10 -10 20 -14 20 -15 0 -11 -13 2
-19 -2 -17 -11 2 -11 0 -12 -11 -3 -7 7 -31 10 -53 8 -21 -2 -46 2 -54 7 -12
9 -13 9 -2 -3 17 -20 15 -35 -3 -20 -13 11 -14 10 -8 -6 6 -17 5 -18 -12 -4
-11 9 -16 10 -11 3 4 -7 3 -13 -3 -13 -5 0 -12 6 -14 13 -3 7 -6 4 -6 -6 -1
-12 -5 -15 -13 -11 -22 14 -45 11 -44 -5 1 -10 -6 -15 -16 -13 -9 1 -19 -2
-23 -8 -5 -8 -11 -8 -20 0 -10 8 -15 8 -21 -1 -5 -8 -3 -9 6 -4 9 6 11 4 5 -5
-6 -10 -11 -9 -22 5 -11 16 -13 16 -13 3 0 -24 -24 -40 -38 -26 -9 9 -12 9
-12 -1 0 -10 -3 -11 -14 -2 -10 8 -16 9 -21 1 -3 -6 -12 -7 -18 -3 -8 5 -8 2
1 -9 10 -13 9 -15 -13 -10 -17 3 -25 0 -23 -8 2 -7 -7 -13 -19 -15 -12 -1 -20
2 -17 7 3 4 0 8 -5 8 -10 0 -15 -13 -12 -32 0 -3 -13 -5 -30 -3 -19 3 -27 0
-23 -6 4 -6 -4 -6 -17 2 -21 11 -22 10 -12 -2 10 -12 8 -15 -8 -16 -11 -1 -17
2 -14 7 3 5 1 11 -4 14 -10 7 -9 -13 2 -31 4 -6 2 -15 -4 -19 -7 -4 -9 -3 -6
3 4 6 -2 13 -13 16 -11 3 -23 0 -27 -5 -3 -7 -1 -8 5 -4 18 11 14 0 -5 -15
-10 -8 -14 -9 -10 -2 4 6 3 14 -3 18 -6 3 -10 -4 -11 -17 0 -13 -3 -17 -6 -10
-4 10 -8 9 -17 -4 -10 -13 -15 -14 -21 -4 -6 9 -4 11 5 5 9 -5 11 -4 6 3 -5 9
-12 9 -26 0 -10 -7 -16 -16 -14 -20 3 -4 -4 -9 -15 -9 -36 -2 -40 -4 -53 -18
-11 -12 -10 -13 2 -7 8 4 6 0 -4 -8 -11 -9 -25 -16 -30 -16 -6 0 -4 4 4 10 8
5 11 12 7 17 -10 9 -28 -18 -23 -33 2 -6 -10 -10 -30 -9 -26 2 -38 -3 -47 -19
-6 -12 -10 -24 -9 -28 1 -4 -10 -5 -23 -2 -14 2 -25 0 -25 -6 0 -6 -5 -8 -12
-4 -8 5 -9 1 -4 -12 6 -15 5 -16 -5 -7 -9 9 -16 7 -30 -11 -13 -17 -27 -23
-48 -21 -23 2 -28 -1 -23 -13 3 -9 1 -13 -5 -9 -6 4 -14 1 -16 -5 -4 -10 -7
-10 -15 0 -7 11 -10 10 -16 -3 -9 -25 -7 -32 5 -15 9 13 10 13 6 0 -2 -8 -9
-16 -15 -16 -7 -1 -19 -2 -27 -3 -8 0 -14 -7 -13 -13 2 -7 -3 -12 -11 -10 -21
4 -51 -8 -48 -20 1 -6 -9 -14 -23 -18 -14 -3 -30 -17 -37 -30 -7 -14 -17 -26
-23 -26 -5 -1 -15 -2 -21 -3 -5 0 -7 -6 -4 -12 4 -6 0 -9 -10 -7 -10 2 -20 -3
-23 -11 -3 -9 0 -11 9 -6 8 5 11 5 7 1 -3 -4 -10 -8 -15 -8 -4 0 -14 -5 -22
-11 -12 -9 -13 -9 -7 1 4 6 2 12 -3 12 -9 0 -15 -19 -13 -41 1 -3 -6 -6 -13
-6 -12 0 -12 3 -2 16 11 14 10 14 -5 2 -10 -7 -18 -19 -18 -27 0 -7 -5 -16
-12 -20 -8 -5 -9 -2 -4 11 5 13 -1 11 -20 -8 -14 -14 -23 -31 -19 -37 4 -6 3
-10 -2 -9 -26 5 -45 -2 -40 -15 4 -10 0 -14 -13 -11 -21 4 -42 -16 -38 -35 2
-7 -5 -14 -16 -15 -10 -2 -24 -9 -30 -16 -8 -9 -7 -10 4 -4 13 8 13 6 1 -8 -7
-9 -17 -14 -22 -11 -5 3 -9 0 -9 -6 0 -6 -4 -8 -10 -5 -6 3 -10 -4 -10 -17 0
-17 -3 -19 -9 -9 -10 16 -20 3 -16 -22 2 -10 -1 -14 -7 -11 -6 4 -17 -1 -24
-10 -7 -10 -16 -18 -21 -19 -4 -1 -7 -6 -5 -11 2 -5 -4 -6 -12 -3 -8 3 -20 -2
-28 -11 -7 -9 -8 -13 -2 -9 7 4 14 0 17 -8 4 -10 1 -12 -10 -8 -13 5 -15 2
-10 -13 7 -18 6 -18 -7 -1 -16 21 -27 22 -20 2 4 -8 1 -15 -5 -15 -6 0 -11 -7
-11 -15 0 -8 -5 -15 -11 -15 -5 0 -7 5 -3 12 4 7 3 8 -5 4 -9 -6 -9 -11 -1
-21 12 -15 -14 -30 -33 -18 -7 4 -5 -2 3 -12 14 -17 13 -18 -4 -12 -14 6 -17
4 -12 -8 3 -9 0 -15 -9 -15 -8 0 -15 -5 -15 -11 0 -5 -6 -7 -12 -3 -10 6 -10
5 0 -8 10 -13 9 -18 -5 -29 -17 -13 -17 -13 -3 5 13 17 13 19 0 14 -8 -3 -15
-14 -14 -25 0 -15 -5 -19 -23 -17 -13 1 -21 -2 -17 -7 10 -16 -7 -51 -22 -45
-14 5 -41 -31 -36 -48 2 -5 -5 -5 -15 -2 -9 4 -14 4 -10 0 4 -4 1 -14 -6 -22
-8 -11 -8 -14 0 -9 6 4 15 3 18 -3 4 -6 3 -10 -2 -9 -23 4 -35 -2 -29 -16 3
-8 2 -14 -2 -14 -18 3 -32 -2 -32 -12 0 -5 6 -7 13 -3 6 4 1 -4 -13 -17 -13
-13 -28 -25 -32 -25 -5 -1 -11 -2 -15 -3 -5 -1 1 -9 12 -17 20 -16 20 -16 -3
-9 -20 6 -22 4 -18 -18 2 -15 -1 -24 -9 -24 -7 0 -11 7 -8 16 4 14 3 14 -5 2
-7 -10 -7 -21 0 -35 10 -19 10 -20 -5 -7 -12 9 -17 10 -17 2 0 -7 -5 -9 -12
-5 -7 4 -8 3 -4 -5 4 -6 12 -8 18 -5 7 4 8 2 4 -4 -4 -7 -14 -12 -21 -12 -9 0
-12 -6 -9 -15 5 -11 2 -13 -10 -9 -12 5 -15 2 -10 -9 3 -9 13 -14 22 -10 14 4
15 3 2 -5 -10 -8 -18 -8 -27 0 -11 8 -12 7 -7 -7 6 -14 4 -16 -6 -10 -8 5 -11
4 -7 -2 4 -6 0 -14 -9 -17 -8 -3 -13 -10 -10 -14 3 -5 -3 -25 -14 -44 -10 -20
-16 -39 -12 -42 3 -4 -2 -4 -13 0 -11 4 -17 3 -12 -1 4 -5 0 -16 -8 -25 -9
-10 -15 -24 -13 -31 2 -8 -4 -13 -14 -13 -11 1 -14 -4 -11 -14 5 -11 3 -13 -8
-7 -12 7 -12 6 -1 -7 10 -13 10 -18 1 -24 -8 -5 -9 -3 -4 6 5 9 4 11 -3 6 -7
-4 -12 -13 -12 -21 0 -7 -7 -16 -15 -19 -13 -5 -14 -10 -4 -27 9 -17 8 -20 -2
-14 -9 6 -11 3 -6 -8 4 -11 1 -17 -8 -17 -8 0 -15 -5 -15 -11 0 -5 -5 -7 -11
-3 -8 4 -8 1 -1 -13 8 -15 6 -22 -9 -32 -17 -10 -19 -15 -8 -29 8 -9 9 -14 5
-10 -14 12 -36 -11 -29 -29 5 -12 3 -14 -8 -8 -12 7 -12 6 -1 -7 10 -13 10
-18 1 -24 -8 -5 -9 -3 -4 6 5 9 4 11 -4 6 -8 -6 -9 -12 -2 -20 6 -7 8 -16 4
-19 -12 -12 -23 -7 -24 11 0 11 -2 12 -6 4 -3 -7 1 -20 9 -29 7 -9 9 -14 3
-11 -5 3 -19 -6 -29 -20 -11 -14 -14 -22 -8 -18 6 3 13 2 17 -4 3 -5 2 -10 -2
-10 -5 0 -14 -9 -21 -21 -9 -14 -10 -19 -2 -14 8 5 8 0 -1 -16 -7 -13 -12 -27
-11 -31 2 -8 -13 -12 -33 -9 -5 1 -2 -5 8 -13 13 -10 15 -15 5 -18 -10 -4 -10
-9 2 -24 14 -17 13 -18 -1 -7 -16 13 -29 8 -29 -9 0 -5 5 -6 12 -2 13 8 3 -12
-20 -38 -7 -9 -11 -22 -7 -27 3 -6 -2 -11 -11 -11 -17 0 -16 -1 1 -13 14 -11
15 -16 5 -22 -9 -6 -11 -4 -5 6 7 12 5 12 -6 1 -12 -11 -12 -14 1 -22 13 -8
13 -10 -2 -10 -9 0 -20 -5 -24 -12 -5 -8 -2 -9 10 -5 10 4 15 3 11 -3 -3 -6
-13 -10 -21 -10 -8 0 -14 -5 -14 -11 0 -5 5 -7 10 -4 5 3 10 1 10 -4 0 -6 -4
-11 -10 -11 -5 0 -6 -7 -3 -17 5 -12 3 -14 -8 -8 -11 7 -11 5 1 -10 14 -17 13
-18 -5 -11 -11 4 -16 4 -12 0 4 -4 2 -13 -4 -20 -6 -7 -7 -19 -3 -26 14 -22
13 -40 -1 -34 -11 4 -12 0 -4 -21 8 -22 7 -24 -5 -14 -11 9 -16 9 -22 0 -4 -8
-3 -9 4 -5 18 11 14 -10 -4 -28 -8 -9 -12 -16 -7 -16 5 0 14 5 21 12 9 9 9 5
0 -14 -7 -15 -16 -24 -21 -21 -4 2 -6 -1 -5 -9 2 -7 -3 -12 -10 -10 -8 1 -11
-2 -7 -8 5 -8 11 -8 20 0 10 8 15 8 21 -1 5 -8 3 -9 -6 -4 -10 6 -12 4 -7 -8
4 -12 2 -14 -11 -10 -15 6 -16 5 -2 -12 8 -10 10 -16 3 -12 -8 5 -12 0 -11
-15 2 -44 -2 -57 -19 -61 -17 -4 -17 -5 0 -6 9 0 17 -5 17 -10 0 -6 -10 -8
-23 -6 -20 4 -21 3 -4 -9 16 -12 16 -14 2 -20 -9 -3 -13 -11 -10 -17 4 -6 14
-8 22 -5 8 3 11 1 8 -4 -3 -6 -13 -10 -21 -10 -11 0 -13 -6 -9 -21 5 -15 4
-19 -4 -15 -8 5 -8 0 -1 -18 6 -16 6 -27 0 -31 -6 -4 -10 -15 -10 -26 0 -14 4
-18 12 -13 9 6 9 3 0 -9 -8 -9 -11 -21 -7 -26 3 -7 0 -8 -9 -5 -9 3 -16 1 -16
-5 0 -6 5 -11 11 -11 6 0 4 -7 -5 -15 -11 -12 -13 -22 -6 -40 7 -18 6 -25 -3
-25 -6 0 -3 -7 7 -15 11 -8 14 -15 7 -15 -7 0 -9 -4 -6 -10 3 -5 0 -7 -8 -4
-10 3 -14 -2 -13 -18 1 -13 -2 -29 -7 -36 -6 -7 -7 -15 -3 -19 3 -3 6 -1 6 5
0 7 5 12 11 12 7 0 4 -11 -6 -26 -9 -15 -12 -23 -6 -20 7 5 9 1 5 -8 -3 -9
-11 -13 -18 -9 -6 3 -6 1 2 -8 15 -16 16 -43 1 -34 -5 4 -3 -10 5 -30 15 -35
15 -36 -1 -24 -15 13 -15 12 -5 -8 9 -16 9 -23 -1 -26 -9 -4 -9 -6 1 -6 6 -1
12 -8 12 -16 0 -8 -6 -15 -12 -15 -8 0 -9 -3 -3 -8 12 -8 15 -73 3 -66 -4 3
-8 1 -8 -5 0 -5 6 -12 13 -14 9 -4 8 -8 -3 -16 -10 -7 -11 -11 -2 -11 6 0 12
-8 12 -17 0 -13 -2 -15 -8 -5 -6 8 -9 0 -9 -23 0 -25 5 -35 16 -35 14 0 14 -2
1 -10 -8 -5 -11 -10 -6 -10 6 0 5 -5 -1 -11 -9 -9 -8 -19 3 -41 9 -17 13 -32
10 -36 -3 -3 -6 0 -6 6 0 7 -4 12 -8 12 -5 0 -9 -7 -9 -15 0 -8 4 -15 9 -15 5
0 6 -4 3 -10 -3 -5 0 -10 7 -11 7 0 4 -4 -7 -9 -11 -5 -14 -9 -6 -9 10 -1 11
-4 2 -15 -8 -10 -9 -16 -1 -21 5 -3 10 -11 10 -16 0 -6 -4 -8 -8 -5 -5 3 -9
-1 -9 -9 0 -8 2 -13 5 -11 2 3 14 -7 26 -21 20 -23 22 -24 22 -5 0 11 -4 18
-8 16 -4 -3 -8 8 -8 25 0 16 6 32 13 34 9 4 9 6 0 6 -7 1 -13 6 -13 12 0 5 6
7 13 3 9 -6 9 -4 0 7 -17 17 -17 43 0 33 9 -6 9 -4 1 7 -12 15 -15 51 -4 44 4
-2 7 2 7 10 0 8 -4 12 -9 9 -4 -3 -8 0 -8 6 0 6 -5 8 -12 4 -6 -4 -8 -3 -5 4
4 5 17 8 30 5 18 -4 19 -3 7 6 -8 6 -10 11 -5 11 6 0 3 5 -5 10 -10 6 -11 10
-2 10 6 0 12 5 12 11 0 5 -6 7 -13 3 -9 -6 -9 -5 0 7 9 11 9 19 2 26 -8 8 -7
13 2 18 8 5 10 4 5 -3 -4 -7 -2 -12 4 -12 14 0 4 51 -12 63 -9 6 -6 7 10 4 12
-3 22 -2 22 2 0 5 -10 13 -22 20 -20 10 -21 11 -3 8 18 -3 20 1 20 35 0 41 -3
45 -25 25 -8 -6 -6 -2 4 10 10 13 23 20 29 16 6 -3 7 -1 3 6 -4 6 -12 9 -17 5
-6 -3 -5 3 2 14 10 16 10 23 0 35 -9 11 -9 17 -1 22 6 4 9 13 6 21 -3 7 0 16
6 20 7 5 8 2 3 -6 -5 -8 -4 -11 3 -6 6 4 8 14 5 23 -5 12 -3 14 8 9 11 -6 10
-4 -1 6 -8 7 -16 19 -18 27 -3 12 0 12 13 1 13 -11 15 -10 9 4 -3 9 0 24 7 33
8 9 10 14 4 11 -5 -3 -17 1 -25 10 -13 14 -12 15 3 9 9 -3 19 -2 22 3 4 6 3
10 -2 10 -4 0 -8 16 -8 35 0 29 2 33 11 20 10 -14 12 -12 10 9 0 13 -5 22 -11
18 -5 -3 -7 -2 -3 3 4 4 2 15 -5 23 -9 13 -9 14 1 8 7 -4 12 -2 12 4 0 6 4 8
10 5 14 -9 12 8 -2 24 -11 11 -10 12 0 6 10 -5 12 0 9 24 -3 17 -2 30 1 30 21
-3 23 3 6 16 -18 15 -18 15 0 8 12 -4 17 -3 13 4 -4 5 0 19 8 29 8 10 14 24
15 29 0 6 -4 4 -9 -4 -7 -10 -9 -7 -8 12 1 15 5 27 10 27 4 0 7 9 7 21 0 11 5
17 10 14 6 -3 10 -1 10 4 0 6 -6 11 -12 11 -9 0 -9 3 -2 8 12 8 28 45 16 38
-5 -3 -9 1 -9 9 0 8 5 11 10 8 6 -4 8 1 4 11 -4 9 -3 15 1 12 4 -2 13 7 19 21
10 21 10 24 -4 18 -15 -5 -15 -4 -1 12 17 20 32 57 20 49 -4 -2 -8 5 -9 17 0
12 1 16 4 10 3 -7 9 -13 14 -13 6 0 9 6 8 13 -3 27 1 38 14 31 8 -6 8 -3 -1 9
-16 19 -8 37 16 37 15 0 15 2 2 10 -12 7 -12 12 -2 22 16 16 16 31 0 23 -7 -4
-2 3 12 15 14 12 19 19 13 15 -9 -4 -11 -1 -7 10 4 10 13 14 22 10 13 -5 12
-2 -2 14 -18 20 -18 20 5 16 22 -4 23 -3 6 9 -16 12 -16 14 -1 20 10 4 14 12
10 22 -6 15 -4 15 10 3 16 -13 16 -12 5 9 -9 16 -9 22 0 22 6 0 9 8 6 19 -4
15 -1 18 12 13 14 -5 14 -4 2 11 -12 15 -12 17 1 12 12 -5 15 1 14 22 -1 20 6
31 23 39 20 10 21 13 6 16 -17 3 -17 4 0 18 15 12 17 12 10 1 -5 -9 -4 -12 3
-7 6 4 8 14 5 23 -5 12 -3 14 8 8 11 -7 11 -5 -1 10 -14 17 -13 18 3 12 10 -4
16 -3 12 2 -3 5 -1 12 4 16 5 3 8 14 6 25 -3 13 0 18 7 14 8 -5 9 -1 4 11 -5
15 -4 16 8 6 12 -10 13 -8 9 10 -5 17 -3 20 7 14 10 -6 11 -4 4 6 -11 18 -14
39 -6 37 4 -1 15 2 24 6 14 6 15 12 8 26 -8 16 -7 18 10 15 17 -3 19 -1 10 15
-9 17 -8 19 7 13 15 -6 16 -4 6 9 -17 19 -4 31 16 16 9 -7 13 -8 9 -4 -4 5 -2
16 5 24 9 13 9 14 0 8 -7 -4 -13 -3 -13 2 0 5 9 12 20 15 14 4 18 10 13 23 -5
13 -3 16 10 11 11 -4 14 -2 10 8 -3 8 -9 12 -14 9 -15 -9 -10 3 8 17 9 8 14 9
10 3 -3 -6 0 -11 8 -11 10 0 11 5 4 18 -7 14 -6 17 5 13 9 -4 13 2 12 18 -1
16 4 23 17 22 14 -2 15 1 6 12 -9 11 -9 14 0 14 7 0 9 6 6 13 -4 6 1 3 11 -8
13 -16 16 -17 11 -3 -3 10 -2 20 4 24 6 3 8 13 5 21 -4 11 -2 13 9 9 10 -4 15
1 15 14 0 11 5 20 10 20 6 0 10 6 10 14 0 19 25 27 41 13 11 -10 11 -9 0 5 -7
9 -20 15 -29 12 -9 -3 -7 1 6 8 12 8 19 18 15 23 -4 4 -3 5 3 2 12 -7 70 51
61 60 -3 2 -13 -7 -22 -21 -10 -14 -21 -26 -26 -26 -5 0 3 14 18 30 17 19 33
28 42 25 13 -5 14 -4 4 6 -19 19 -16 34 4 18 11 -10 14 -10 9 -1 -4 6 -2 12 3
12 6 0 11 9 11 21 0 14 5 19 14 16 10 -4 13 -1 10 7 -3 8 6 23 20 33 14 11 22
24 18 28 -4 5 2 5 12 1 17 -6 17 -5 5 11 -12 14 -12 16 0 8 11 -6 13 -4 8 8
-4 11 -2 14 8 10 8 -3 12 -10 8 -16 -3 -6 -1 -7 6 -3 9 6 9 11 -1 24 -10 12
-10 14 0 8 7 -4 12 -2 12 4 0 6 5 8 13 4 9 -6 9 -4 -1 8 -10 13 -10 18 -1 24
8 4 9 3 5 -4 -4 -7 -2 -12 3 -12 6 0 11 5 11 11 0 15 47 59 54 51 3 -3 11 9
17 27 9 24 14 29 20 19 7 -10 9 -10 9 0 0 8 5 10 13 6 8 -5 7 -2 -2 9 -12 15
-12 17 2 12 10 -4 15 -1 14 11 -1 9 5 19 13 21 13 4 13 3 0 -7 -13 -10 -13
-11 0 -7 8 2 14 14 14 26 -1 15 3 20 12 17 16 -6 57 30 49 43 -3 5 5 7 17 5
13 -2 17 -1 10 2 -10 5 -10 9 -1 20 6 8 17 14 23 14 6 0 4 -5 -4 -10 -10 -7
-11 -10 -2 -10 7 0 17 11 22 25 11 28 22 34 14 8 -4 -14 -2 -13 7 2 8 11 14
23 14 27 0 13 55 49 66 42 8 -4 9 1 4 17 -5 19 -4 21 4 9 9 -13 15 -8 13 11
-1 3 10 5 24 3 21 -2 24 1 18 18 -5 17 -3 18 13 9 15 -8 20 -7 20 4 0 8 -5 11
-11 8 -6 -4 -5 1 3 10 15 18 26 23 16 7 -3 -5 -1 -10 4 -10 6 0 11 8 11 18 0
14 2 15 10 2 7 -11 10 -11 10 -2 0 7 5 10 11 6 8 -5 8 -1 0 13 -9 18 -7 20 13
16 14 -3 27 2 36 14 12 15 12 16 0 6 -8 -7 -19 -13 -24 -13 -6 0 6 11 26 25
20 14 42 25 48 25 6 0 8 5 5 10 -3 6 -1 10 4 10 6 0 11 -5 11 -10 0 -6 6 -5
14 2 8 7 11 17 8 22 -3 5 7 7 21 4 23 -4 25 -3 17 13 -11 19 4 37 15 19 3 -5
11 -10 16 -10 6 0 7 5 3 12 -5 8 -2 9 11 4 16 -6 16 -4 4 11 -7 10 -10 15 -5
11 5 -4 18 -3 29 3 13 7 17 7 13 1 -3 -6 -1 -14 5 -18 7 -4 9 -3 5 4 -3 6 2
15 11 21 14 8 15 10 3 11 -13 0 -13 1 0 10 9 6 17 5 22 -3 5 -8 8 -7 8 4 0 9
7 16 16 15 9 0 19 5 22 13 3 9 0 11 -8 6 -8 -5 -11 -4 -6 3 9 15 38 3 29 -12
-3 -6 -2 -7 3 -3 5 5 10 13 10 18 1 5 2 14 3 19 0 6 4 9 9 9 26 -4 62 3 57 11
-3 6 1 10 9 10 9 0 16 5 16 10 0 6 5 10 11 10 5 0 7 -6 3 -12 -6 -10 -5 -10 8
-1 8 7 18 9 23 5 4 -4 3 3 -4 15 -9 17 -8 21 4 19 8 -1 18 -6 22 -11 4 -4 2
-5 -6 0 -10 6 -12 4 -7 -4 6 -9 11 -9 22 0 17 14 18 23 2 13 -8 -4 -10 -3 -5
2 9 9 13 10 43 13 8 0 12 6 9 11 -3 6 -2 10 4 10 5 0 12 -6 14 -12 3 -8 6 -7
6 4 1 9 6 20 13 24 7 4 8 3 4 -4 -4 -7 -2 -12 3 -12 10 0 15 14 12 33 -1 5 3
6 9 2 6 -3 8 -12 4 -18 -3 -7 2 -3 10 7 9 11 16 14 16 8 0 -7 5 -12 11 -12 5
0 7 5 4 10 -3 6 3 10 14 10 11 0 22 9 26 20 4 11 11 17 17 14 7 -4 6 -9 -2
-14 -8 -5 -3 -7 12 -7 22 2 25 5 16 21 -7 14 -7 17 2 11 7 -4 17 -1 22 6 7 10
8 7 4 -11 -3 -14 -3 -19 0 -12 5 10 9 10 22 0 15 -12 16 -11 3 4 -11 15 -11
19 1 23 8 3 27 4 41 1 20 -3 25 -1 22 13 -3 15 2 18 26 15 16 -2 29 1 29 7 0
6 9 9 20 6 11 -3 18 -1 15 3 -3 5 -1 11 5 15 5 3 10 0 10 -7 0 -10 2 -10 9 1
6 10 19 12 42 7 29 -5 31 -5 16 6 -16 12 -15 13 8 14 16 1 23 -2 19 -10 -3 -6
1 -3 9 7 15 18 16 18 27 0 10 -16 11 -16 6 0 -5 17 18 25 27 10 2 -5 2 -2 1 5
-2 6 5 12 15 12 11 0 22 -6 25 -12 3 -7 3 -2 0 11 -3 13 -2 21 2 19 5 -3 18
-2 29 2 11 4 30 4 41 -1 12 -4 25 -5 29 -1 6 7 10 8 36 11 5 0 7 7 4 14 -4 6
0 4 8 -5 16 -20 28 -14 21 10 -3 10 1 6 9 -7 12 -20 15 -21 20 -7 5 11 3 15
-5 10 -6 -4 -8 -3 -5 4 8 11 25 11 44 -1 7 -4 16 0 21 9 9 15 12 15 40 2 28
-15 32 -14 50 2 11 11 24 15 32 10 8 -5 25 0 43 11 23 13 34 15 44 7 10 -8 13
-7 13 3 0 9 3 10 8 3 11 -16 42 -25 36 -11 -2 7 4 13 16 14 11 1 20 -4 21 -10
0 -7 4 -3 9 8 l9 20 0 -20 c1 -17 3 -17 11 -5 8 12 10 12 11 -5 0 -18 1 -19 8
-2 8 22 21 24 32 5 7 -10 9 -10 9 0 0 6 7 12 15 12 8 0 15 5 15 12 0 6 6 3 14
-7 13 -18 13 -18 24 1 6 10 12 14 12 7 0 -7 10 -18 23 -24 20 -11 21 -11 8 5
-12 14 -12 16 3 10 9 -3 16 -11 16 -17 0 -6 7 -2 15 9 8 10 15 15 15 9 0 -5 5
-3 11 5 9 13 10 13 6 -2 -3 -9 0 -19 8 -22 10 -3 12 0 8 12 -5 13 -3 14 7 5 7
-6 19 -9 27 -6 8 3 19 0 24 -8 6 -10 9 -10 9 -1 0 6 7 12 16 12 8 0 13 -4 10
-8 -3 -5 1 -9 9 -9 8 0 12 4 10 8 -10 14 23 17 43 3 15 -10 23 -11 28 -3 4 8
9 7 15 -2 7 -12 9 -11 9 0 0 11 4 10 16 -5 8 -10 12 -13 8 -5 -5 10 -3 13 9 8
9 -3 18 -1 21 6 2 7 5 3 5 -7 1 -20 1 -20 16 0 14 19 14 19 15 -1 l1 -20 9 20
c5 11 9 14 9 8 1 -7 8 -13 17 -13 8 0 12 5 9 10 -10 16 1 11 16 -7 8 -10 9
-14 2 -10 -6 4 -14 4 -17 -1 -2 -4 6 -8 19 -8 16 0 21 5 18 16 -3 8 5 4 17
-10 12 -14 19 -19 15 -12 -3 6 -2 12 2 12 5 0 15 -6 22 -12 7 -7 12 -8 11 -3
-5 25 2 28 15 5 9 -16 14 -19 15 -10 0 9 9 16 19 16 16 0 18 -3 8 -16 -6 -8
-7 -12 -3 -8 5 4 15 3 23 -4 11 -8 12 -7 7 6 -3 9 -1 16 5 16 6 0 11 -4 11
-10 0 -5 5 -10 11 -10 5 0 8 4 5 8 -3 5 2 9 10 9 8 0 13 -6 10 -13 -3 -8 0
-16 6 -20 7 -4 8 -3 4 4 -4 7 -1 12 8 12 9 0 16 -6 16 -12 0 -9 4 -8 10 2 6
10 10 11 10 3 0 -7 4 -13 10 -13 5 0 7 8 3 18 -4 11 1 9 16 -8 12 -14 20 -19
16 -12 -3 6 -1 12 4 12 6 0 11 -4 11 -9 0 -5 7 -12 16 -15 14 -5 15 -4 4 9
-11 13 -10 14 2 10 9 -4 20 -16 26 -28 6 -12 11 -16 11 -9 1 6 10 12 21 12 11
0 20 -6 21 -12 0 -7 4 -4 9 7 7 17 9 17 9 3 1 -21 12 -23 29 -6 9 9 12 9 12
-1 0 -7 4 -10 9 -7 4 3 17 -2 27 -10 10 -9 13 -12 5 -8 -8 4 -12 3 -8 -3 3 -5
20 -8 37 -5 22 3 35 -1 46 -14 9 -11 13 -13 9 -7 -4 9 -1 11 9 7 9 -3 14 -9
11 -13 -2 -4 2 -8 10 -8 8 0 12 3 10 7 -2 4 2 7 9 7 8 0 12 -6 9 -12 -3 -9 4
-11 23 -7 17 3 25 1 21 -6 -4 -5 1 -13 11 -17 32 -14 41 -13 36 3 -5 14 -4 14
6 0 11 -19 36 -26 25 -8 -10 16 1 11 16 -7 8 -10 9 -14 2 -10 -6 4 -14 3 -17
-2 -7 -10 13 -9 31 2 6 4 15 2 19 -4 5 -8 3 -9 -7 -4 -12 8 -12 6 0 -8 14 -18
26 -23 16 -8 -3 5 -1 12 5 16 6 3 10 -4 10 -16 0 -22 0 -22 15 -3 13 18 14 18
9 -6 -5 -20 -3 -22 5 -10 8 12 14 13 28 3 10 -6 17 -15 16 -20 -1 -5 8 -10 20
-10 17 -2 19 0 7 7 -8 5 -11 10 -7 10 4 0 19 -7 32 -16 13 -9 29 -13 34 -9 7
4 8 -1 4 -12 -6 -15 -4 -16 9 -6 12 11 18 9 34 -10 l19 -22 -22 19 c-13 11
-23 14 -23 9 0 -12 29 -27 47 -24 8 1 10 -5 7 -16 -4 -11 -3 -14 3 -7 4 6 16
11 25 11 13 0 15 -4 8 -12 -8 -9 -4 -12 15 -10 28 4 31 -4 13 -25 -11 -12 -10
-12 3 -2 9 6 20 8 24 4 5 -4 5 -2 2 5 -5 7 0 9 13 6 10 -3 22 -14 25 -24 4
-10 9 -18 13 -18 22 3 34 -3 29 -14 -3 -8 1 -14 8 -14 7 0 11 7 9 16 -3 9 1 6
7 -6 7 -13 20 -23 29 -23 10 0 21 -7 24 -16 4 -10 14 -14 25 -11 15 4 19 0 16
-15 -4 -17 -2 -18 12 -6 15 11 16 11 10 -5 -6 -15 -4 -16 14 -6 19 10 20 9 10
-10 -9 -17 -9 -20 4 -15 16 7 48 -20 37 -31 -4 -4 3 -3 15 4 26 13 44 15 23 1
-13 -8 -12 -12 4 -27 19 -17 19 -17 7 0 -12 15 -12 17 0 12 8 -3 19 -15 24
-28 6 -13 21 -23 38 -25 25 -3 32 -12 28 -36 -1 -5 4 -4 12 2 19 16 30 3 15
-17 -7 -9 -8 -13 -3 -8 4 4 16 0 26 -9 13 -12 19 -12 25 -3 5 8 3 10 -6 4 -9
-6 -11 -4 -6 4 9 14 19 7 22 -14 1 -8 -3 -15 -9 -15 -5 0 -7 -3 -4 -6 4 -4 14
-1 24 7 11 9 14 10 9 2 -7 -12 5 -18 27 -14 5 1 6 -3 2 -9 -3 -6 -12 -8 -18
-4 -7 3 -1 -4 13 -17 14 -12 24 -26 22 -30 -1 -5 2 -9 8 -9 17 0 11 18 -12 34
-12 9 -18 16 -13 16 19 -1 45 -27 48 -50 4 -22 13 -27 59 -32 9 -1 15 -5 12
-9 -2 -4 2 -14 10 -22 8 -8 12 -17 9 -21 -4 -3 1 -6 11 -6 10 0 14 5 10 12 -4
7 -3 8 5 4 9 -6 9 -11 1 -21 -14 -17 11 -40 27 -24 8 8 13 5 18 -10 4 -13 11
-18 18 -14 7 4 6 -1 -2 -11 -8 -9 -10 -16 -5 -14 5 2 10 -1 11 -6 2 -15 32
-28 45 -20 6 4 8 3 5 -3 -4 -6 0 -19 8 -29 15 -18 15 -18 9 1 -5 18 -4 18 6 2
6 -9 8 -22 5 -27 -3 -6 1 -7 9 -4 9 3 16 1 16 -5 0 -6 8 -11 18 -12 14 0 14
-2 -3 -9 -19 -8 -19 -9 3 -9 15 -1 22 -7 22 -21 0 -14 6 -20 18 -18 11 2 18
-5 20 -20 3 -18 8 -22 25 -18 12 3 16 3 10 0 -14 -6 -18 -35 -5 -33 19 3 30
-2 37 -18 5 -15 4 -16 -6 -5 -7 6 -18 12 -23 12 -6 0 -3 -5 7 -11 9 -6 15 -14
12 -20 -3 -5 1 -6 9 -3 9 3 16 1 16 -6 0 -6 5 -8 13 -4 7 5 6 0 -3 -11 -8 -10
-10 -16 -3 -12 6 4 14 1 16 -5 4 -10 8 -9 17 2 9 12 10 11 5 -7 -4 -14 -2 -23
4 -23 6 0 11 -5 11 -11 0 -5 -4 -7 -10 -4 -6 3 -7 -1 -4 -10 6 -14 8 -14 19 2
13 17 13 17 12 -2 -1 -13 3 -19 12 -17 12 3 12 1 0 -14 -12 -16 -12 -17 3 -12
23 9 29 -1 16 -26 -10 -18 -9 -19 4 -9 19 17 31 4 15 -15 -9 -13 -9 -14 1 -8
11 7 17 -5 13 -28 -1 -5 6 -3 15 5 13 10 16 11 10 1 -5 -9 0 -19 14 -29 15
-10 18 -18 11 -23 -9 -5 -7 -11 5 -21 15 -12 17 -12 9 0 -5 10 -4 12 4 7 9 -6
9 -11 -1 -24 -12 -14 -10 -14 11 -3 19 11 22 11 15 -1 -15 -23 -14 -41 1 -28
10 8 15 8 21 -1 4 -8 3 -9 -4 -5 -17 10 -15 -3 4 -21 8 -9 13 -22 10 -30 -3
-8 -1 -11 4 -8 10 6 13 -5 11 -35 0 -10 1 -11 5 -2 3 6 10 12 15 12 6 0 7 -4
4 -10 -3 -5 -1 -10 4 -10 6 0 10 -3 10 -7 -3 -20 2 -33 14 -33 8 0 13 -10 12
-22 -2 -28 15 -59 29 -51 5 4 7 -3 3 -17 -4 -16 -1 -23 13 -27 10 -3 17 -12
15 -21 -1 -10 3 -20 8 -24 7 -4 6 -12 -2 -22 -8 -9 -9 -16 -4 -16 6 0 15 10
21 23 10 20 10 19 8 -11 -2 -18 1 -35 5 -38 5 -3 7 -9 4 -13 -2 -5 8 -21 23
-37 15 -15 22 -25 16 -21 -6 3 -11 0 -11 -8 0 -10 5 -11 19 -4 10 5 18 6 17 2
-1 -4 0 -12 1 -18 1 -5 3 -14 5 -20 1 -5 3 -18 3 -28 1 -12 7 -16 15 -11 6 4
9 3 4 -1 -4 -5 0 -19 8 -31 9 -14 11 -25 5 -29 -14 -9 8 -47 23 -40 7 4 3 -1
-8 -11 -20 -16 -20 -16 2 -11 19 4 21 1 18 -24 -3 -19 0 -27 6 -23 12 7 9 -38
-3 -46 -4 -3 2 -11 13 -19 16 -9 19 -9 14 0 -5 7 -4 10 1 7 5 -4 9 -27 8 -52
0 -25 2 -44 5 -42 3 2 11 -2 18 -9 10 -11 10 -15 0 -18 -7 -3 -3 -6 8 -7 l20
-1 -20 -9 c-17 -7 -17 -9 -2 -9 9 -1 17 -6 17 -12 0 -5 -4 -7 -10 -4 -6 3 -7
-1 -4 -9 3 -9 10 -13 15 -10 5 3 9 1 9 -5 0 -5 -6 -12 -12 -14 -8 -3 -7 -6 4
-6 9 -1 20 -5 23 -11 3 -6 -1 -7 -10 -4 -11 5 -14 2 -9 -10 3 -9 14 -16 23
-17 12 0 12 -2 -4 -9 -11 -5 -14 -9 -6 -9 9 -1 12 -10 9 -31 -3 -20 0 -30 8
-30 10 0 11 -6 4 -25 -6 -16 -6 -26 1 -31 6 -3 8 -12 5 -20 -3 -8 0 -11 8 -8
7 3 16 -2 19 -10 4 -10 1 -13 -9 -9 -7 3 -14 1 -14 -5 0 -5 7 -12 15 -16 8 -3
15 -13 15 -21 0 -10 -5 -14 -12 -10 -7 4 -5 0 5 -8 18 -15 24 -32 7 -22 -5 3
-10 1 -10 -4 0 -6 5 -11 11 -11 8 0 7 -6 -2 -17 -10 -11 -10 -14 -1 -9 7 4 12
1 12 -9 0 -10 -5 -13 -12 -9 -7 4 -8 3 -4 -4 4 -6 13 -9 21 -6 9 4 12 0 10
-13 -2 -10 -4 -18 -5 -18 -8 0 -6 -56 2 -61 6 -4 8 -2 4 4 -3 6 -3 13 2 16 4
2 8 -6 8 -19 0 -13 -3 -22 -7 -19 -4 2 -11 0 -14 -6 -4 -6 -3 -10 2 -9 20 3
34 -2 28 -11 -4 -6 -12 -7 -18 -3 -8 5 -8 2 0 -9 7 -8 10 -18 6 -21 -3 -4 -1
-7 6 -7 7 0 10 -4 7 -8 -3 -5 1 -21 9 -36 13 -24 12 -28 -1 -33 -12 -5 -13 -7
-3 -14 11 -6 10 -9 -4 -14 -15 -6 -14 -9 6 -27 12 -11 16 -17 10 -13 -16 7
-17 -11 -3 -20 8 -5 7 -12 -2 -23 -10 -12 -10 -14 0 -8 6 4 12 3 12 -3 0 -5
-6 -12 -12 -14 -10 -4 -10 -6 0 -6 6 -1 12 -6 12 -12 0 -5 -4 -7 -10 -4 -5 3
-10 2 -10 -3 0 -6 7 -13 16 -16 15 -6 15 -8 -2 -28 -11 -12 -14 -18 -8 -15 7
4 15 -1 19 -11 14 -31 13 -41 -2 -35 -13 5 -13 2 -4 -15 8 -15 8 -22 -2 -25
-9 -4 -9 -6 1 -6 6 -1 12 -5 12 -11 0 -5 -8 -6 -17 -3 -15 6 -16 5 -3 -9 8 -9
18 -14 22 -11 4 2 5 -3 2 -11 -3 -9 -11 -13 -18 -9 -7 4 -7 1 1 -7 10 -11 9
-16 -5 -27 -9 -7 -12 -12 -7 -11 11 3 15 -4 15 -28 0 -9 -5 -12 -12 -8 -7 4
-8 3 -4 -4 4 -6 12 -9 19 -6 15 5 21 -33 6 -41 -5 -3 -6 1 -3 9 3 9 1 16 -6
16 -6 0 -9 -4 -6 -9 4 -5 0 -12 -6 -14 -10 -4 -10 -6 0 -6 6 -1 12 -9 12 -18
0 -16 2 -16 11 -3 9 13 10 13 6 0 -2 -8 -13 -14 -23 -13 -18 1 -18 1 0 -13 12
-8 15 -14 7 -14 -10 0 -9 -6 3 -24 14 -23 14 -26 -1 -42 -19 -19 -25 -54 -9
-54 6 0 4 -4 -4 -10 -12 -8 -12 -10 3 -16 17 -6 17 -7 0 -20 -15 -11 -15 -13
-3 -14 13 0 13 -2 1 -9 -13 -8 -13 -12 0 -27 12 -15 12 -17 0 -9 -11 6 -13 4
-8 -8 3 -10 2 -17 -3 -17 -5 0 -6 -7 -3 -17 4 -11 3 -14 -5 -9 -7 4 -12 2 -12
-3 0 -6 10 -11 23 -12 l22 0 -22 -9 c-13 -5 -23 -12 -23 -15 0 -4 4 -4 9 0 6
3 9 -4 8 -15 -1 -11 -6 -19 -12 -17 -11 5 -12 -89 -1 -100 3 -4 -1 -15 -11
-25 -9 -10 -11 -18 -5 -18 5 0 9 -8 7 -17 -1 -10 -9 -18 -17 -17 -16 1 -20
-37 -4 -48 6 -4 5 -12 -3 -21 -6 -8 -10 -28 -7 -43 5 -27 4 -28 -9 -10 -13 18
-14 18 -12 -3 1 -11 5 -21 10 -21 4 0 5 -5 2 -10 -4 -6 -10 -8 -15 -5 -5 3 -7
-6 -4 -21 3 -14 -1 -33 -8 -42 -11 -13 -11 -14 0 -8 19 11 12 -25 -8 -44 -9
-8 -10 -11 -3 -6 7 5 13 5 14 0 0 -5 2 -19 3 -32 2 -16 -1 -21 -11 -18 -8 3
-11 1 -8 -4 3 -6 14 -10 23 -11 11 0 13 -2 4 -6 -10 -4 -9 -9 5 -20 17 -14 17
-14 -1 -9 -15 5 -17 4 -8 -7 7 -8 8 -18 4 -22 -4 -5 0 -6 9 -2 12 4 16 1 12
-12 -3 -12 2 -20 16 -24 14 -3 19 -10 15 -20 -3 -8 0 -18 5 -22 6 -3 9 -11 6
-16 -3 -5 2 -6 11 -2 12 4 15 3 10 -5 -4 -7 -2 -12 3 -12 6 0 11 -8 12 -17 0
-15 2 -15 9 2 8 18 9 18 9 2 1 -12 5 -16 14 -11 9 6 9 4 -1 -8 -12 -14 -10
-16 10 -10 20 5 21 4 10 -11 -12 -14 -11 -15 16 -7 35 9 43 5 34 -18 -5 -15
-4 -15 12 -3 13 11 16 11 14 1 -2 -7 7 -13 19 -15 12 -1 20 1 18 5 -2 4 2 7
10 7 8 0 12 -4 9 -9 -8 -13 10 -10 25 5 11 10 13 9 8 -5 -3 -10 -2 -20 4 -23
5 -4 9 -3 8 2 -5 28 2 34 19 16 9 -10 13 -14 9 -7 -4 7 -3 15 3 19 5 3 10 2
10 -4 0 -10 14 -9 42 3 9 4 22 5 27 1 7 -3 8 0 5 9 -4 11 0 16 11 16 10 0 13
4 9 13 -5 7 -1 7 10 -2 15 -13 19 -13 27 0 5 8 7 20 4 27 -3 7 -1 10 4 7 5 -3
13 0 16 6 4 5 13 8 21 5 8 -3 13 -2 13 2 -4 22 2 42 11 37 6 -3 10 1 10 10 0
12 5 15 17 11 15 -6 15 -5 -1 13 -13 14 -14 21 -5 27 8 4 10 3 5 -4 -4 -7 -3
-12 2 -12 12 0 24 29 16 41 -3 5 0 9 6 9 6 0 8 5 4 12 -5 8 -2 9 11 4 15 -5
16 -4 5 9 -7 8 -17 12 -23 8 -6 -4 -7 -1 -3 6 5 7 15 10 23 7 8 -3 12 -2 8 3
-3 5 -2 11 2 14 5 2 2 2 -4 1 -19 -5 -10 20 12 33 15 9 16 13 5 14 -8 1 -18 1
-22 0 -17 -2 -7 10 15 19 18 7 18 9 4 9 -10 1 -15 6 -12 11 4 6 12 7 18 3 7
-4 4 4 -5 19 -16 24 -16 27 3 46 20 22 26 37 10 27 -5 -3 -13 0 -17 6 -4 7 -3
9 3 6 6 -4 17 1 24 10 8 9 9 14 3 10 -7 -4 -14 0 -17 8 -4 9 -1 12 7 9 10 -4
12 7 8 46 -4 45 -2 50 14 44 12 -3 15 -3 8 3 -6 4 -10 16 -8 26 1 9 -2 15 -7
11 -5 -3 -6 -10 -3 -16 5 -7 2 -8 -6 -3 -10 6 -6 14 16 33 16 14 22 23 13 20
-9 -4 -16 -1 -16 8 0 7 5 10 10 7 5 -3 7 0 5 8 -3 8 -11 13 -17 11 -7 -1 -10
2 -6 8 3 5 14 10 23 10 13 0 13 2 -4 16 -10 8 -14 13 -7 10 6 -4 14 -2 18 4 3
5 1 10 -4 10 -6 0 -11 5 -11 11 0 5 6 7 13 3 9 -6 9 -4 1 7 -17 22 -26 51 -13
43 6 -4 9 1 8 12 -2 11 0 25 4 32 5 6 4 12 -1 12 -10 0 -9 30 2 48 4 7 2 12
-6 13 -7 0 -4 4 7 9 l20 9 -20 0 c-15 1 -17 3 -6 10 11 7 11 9 0 14 -11 4 -10
9 5 21 20 16 20 16 0 16 -14 0 -16 2 -5 9 11 7 11 9 0 14 -11 4 -10 9 5 21 19
15 19 16 2 16 -15 0 -16 3 -6 15 7 8 17 12 24 8 6 -3 1 5 -11 18 -26 29 -27
38 -5 63 9 11 12 16 6 13 -7 -4 -17 0 -24 8 -11 13 -10 14 6 8 16 -6 17 -4 7
8 -7 9 -8 20 -3 29 11 18 3 33 -13 23 -7 -3 -3 3 7 15 12 14 14 22 7 22 -7 0
-9 4 -6 10 3 5 7 25 9 45 2 29 -1 35 -13 30 -14 -4 -14 -3 0 8 13 10 14 15 4
24 -7 7 -16 9 -21 5 -4 -4 -4 -1 0 6 4 7 11 10 16 7 4 -3 10 2 14 10 3 8 0 17
-6 21 -7 5 -8 2 -3 -7 8 -12 6 -12 -8 0 -17 13 -24 26 -9 18 4 -3 12 1 19 8
10 10 9 15 -5 20 -14 5 -14 7 -2 16 12 8 10 10 -8 6 -19 -5 -21 -3 -11 9 6 8
8 14 4 14 -5 0 0 10 11 21 19 22 19 22 -2 11 -21 -11 -21 -10 -18 51 3 43 1
57 -6 47 -5 -8 -10 -10 -10 -4 0 5 5 15 12 22 9 9 9 12 -1 12 -11 0 -11 3 -1
15 13 16 6 35 -13 34 -9 0 -9 -2 1 -6 6 -2 12 -9 12 -15 0 -6 -7 -5 -16 3 -14
11 -13 15 8 32 13 10 17 16 11 12 -9 -4 -13 2 -13 20 0 18 -4 24 -12 19 -8 -5
-7 0 2 11 14 17 13 18 -4 11 -20 -7 -20 -7 0 15 15 17 15 21 3 17 -9 -4 -16
-1 -16 8 0 7 4 11 8 8 4 -2 11 1 15 7 4 8 3 9 -4 5 -7 -4 -12 -2 -12 4 0 6 -5
8 -12 4 -6 -4 -8 -3 -4 4 3 5 0 13 -6 16 -7 3 -2 3 12 0 22 -4 23 -3 9 8 -16
13 -19 19 -19 39 0 5 -6 7 -12 3 -10 -6 -10 -4 0 7 14 15 17 33 4 25 -5 -3 -9
1 -9 9 0 8 3 12 7 10 4 -2 7 9 7 26 0 19 -3 25 -9 17 -5 -10 -8 -8 -8 5 0 12
-4 16 -12 11 -9 -5 -9 -2 1 9 10 13 10 17 1 17 -9 0 -9 4 1 17 9 10 9 14 2 10
-9 -6 -11 2 -9 28 2 19 0 32 -5 29 -5 -3 -6 -10 -3 -16 4 -7 2 -8 -4 -4 -6 4
-9 14 -6 24 5 14 3 14 -10 -2 -9 -11 -16 -15 -16 -10 0 6 5 15 11 21 7 7 8 19
4 30 -4 10 -9 26 -10 36 -1 9 -10 24 -21 33 -18 14 -18 15 3 5 16 -8 24 -8 29
1 4 7 3 8 -4 4 -7 -4 -12 -1 -12 9 0 10 -5 13 -12 9 -8 -5 -9 -2 -5 9 3 9 2
27 -3 39 -5 13 -9 17 -9 9 -1 -8 -4 -11 -7 -8 -4 4 -1 13 5 21 10 12 8 19 -13
37 -25 22 -25 23 -8 42 16 19 16 20 0 14 -10 -4 -18 -2 -18 3 0 6 6 10 13 10
8 0 7 3 -3 9 -8 6 -18 7 -22 5 -4 -3 -3 7 2 22 8 20 8 29 -2 35 -6 4 -15 6
-18 4 -4 -2 -7 2 -7 10 0 8 4 12 8 9 4 -2 11 0 14 6 4 6 3 10 -2 9 -4 -1 -15
-1 -23 0 -13 1 -13 2 0 11 12 8 12 10 1 10 -8 0 -11 7 -8 19 3 15 1 18 -12 14
-12 -3 -11 0 4 13 17 14 17 16 3 11 -13 -5 -18 -1 -18 14 0 11 -4 18 -8 15 -5
-3 -8 5 -8 17 1 13 -4 21 -11 20 -7 -2 -13 2 -13 7 0 6 6 10 13 11 6 0 3 4 -8
9 -19 8 -19 9 -1 9 20 1 20 1 1 15 -11 8 -23 12 -27 10 -5 -3 -8 0 -8 6 0 7 7
10 15 6 8 -3 15 -1 15 4 0 5 -9 12 -20 15 -18 6 -18 8 -5 21 18 19 20 31 3 16
-9 -7 -17 -5 -28 6 -13 14 -12 15 4 9 11 -4 6 4 -13 22 -17 16 -31 33 -31 38
0 4 10 -3 21 -17 18 -23 19 -23 9 -2 -6 12 -7 22 -3 23 4 0 -3 5 -16 10 -20 8
-22 11 -10 26 12 15 12 16 -3 10 -10 -3 -20 -1 -24 5 -4 7 -3 8 4 4 7 -4 12
-2 12 3 0 6 -4 11 -10 11 -5 0 -10 12 -10 26 0 14 -4 23 -10 19 -5 -3 -10 -1
-10 5 0 6 -4 9 -9 6 -11 -7 -8 21 4 31 4 4 5 2 0 -6 -5 -10 -4 -12 4 -7 17 11
4 25 -20 21 -16 -3 -18 -1 -10 8 12 15 -2 42 -21 42 -8 0 -13 11 -12 28 1 15
-3 27 -7 27 -5 0 -9 -5 -9 -12 0 -6 -3 -8 -6 -5 -4 4 -2 13 4 20 12 14 6 27
-12 27 -6 0 -4 -5 4 -10 8 -5 10 -10 5 -10 -17 0 -34 21 -28 36 3 8 -3 17 -12
20 -12 5 -13 9 -5 14 9 6 6 17 -14 42 -14 19 -23 38 -18 43 4 4 -4 2 -18 -5
-23 -12 -24 -12 -11 3 9 11 10 17 2 17 -6 0 -10 6 -8 13 1 6 -3 11 -10 10 -6
-1 -14 4 -17 13 -4 10 -1 13 7 9 6 -4 0 3 -15 15 -16 12 -28 28 -28 37 0 19
-25 44 -36 35 -5 -4 -3 0 3 8 9 11 8 19 -1 32 -7 10 -16 15 -19 11 -4 -3 -7
-1 -7 6 0 7 -5 9 -12 5 -8 -5 -7 0 2 11 14 17 13 18 -2 13 -22 -9 -30 2 -15
20 9 13 9 14 0 8 -7 -4 -13 -2 -13 3 0 6 -6 10 -12 9 -8 -2 -13 8 -12 24 0 15
-2 25 -5 23 -2 -3 -10 4 -18 15 -8 11 -22 20 -31 20 -15 0 -15 2 -2 10 13 8
12 10 -2 10 -10 0 -18 5 -18 11 0 5 -6 7 -12 3 -8 -5 -7 0 2 11 14 17 13 18
-5 13 -21 -5 -23 -1 -27 49 -1 7 -5 10 -9 7 -4 -2 -14 2 -22 10 -8 8 -18 12
-21 8 -4 -3 -4 1 0 11 4 12 1 17 -11 17 -11 0 -15 5 -12 14 4 11 1 13 -11 9
-15 -6 -15 -5 -4 10 12 14 11 16 -8 12 -18 -3 -20 -2 -10 10 9 11 7 12 -11 8
-18 -5 -21 -3 -16 11 5 13 1 19 -13 23 -10 3 -22 14 -26 25 -4 13 -12 18 -25
15 -15 -4 -17 -2 -9 13 8 15 6 17 -13 13 -18 -4 -19 -3 -7 6 13 10 13 11 0 11
-8 0 -26 10 -40 21 -21 17 -22 19 -3 10 15 -8 24 -8 28 -1 4 6 3 9 -2 8 -20
-7 -72 26 -83 52 -8 18 -17 27 -26 23 -10 -4 -12 0 -7 13 4 12 3 15 -5 10 -7
-4 -12 -2 -12 4 0 6 -5 8 -12 4 -8 -5 -9 -2 -4 11 5 15 4 16 -9 5 -12 -10 -15
-10 -15 3 0 8 -13 21 -30 29 -16 7 -30 20 -30 29 0 21 -17 34 -52 43 -16 3
-28 13 -28 21 0 8 -5 15 -11 15 -5 0 -7 6 -3 13 6 9 5 9 -7 0 -16 -13 -39 -1
-39 21 0 5 7 1 16 -10 15 -18 15 -18 4 3 -7 15 -16 20 -27 16 -13 -5 -15 -2
-10 18 6 23 5 23 -8 5 -15 -19 -15 -19 -15 5 0 18 -3 20 -9 10 -7 -11 -13 -7
-26 15 -9 16 -14 20 -11 9 6 -19 5 -19 -7 -3 -8 10 -17 15 -21 11 -4 -4 -4 1
0 10 3 10 3 17 -2 16 -30 -5 -46 2 -42 19 4 13 -1 18 -16 20 -17 1 -18 -1 -6
-9 13 -9 13 -10 0 -6 -8 2 -14 11 -14 20 1 9 -2 15 -6 12 -12 -8 -41 6 -34 16
3 5 0 9 -5 9 -6 0 -11 -6 -11 -12 0 -7 -9 2 -20 20 -17 27 -24 31 -35 22 -10
-8 -18 -6 -34 11 -12 13 -21 27 -21 31 0 5 -4 6 -10 3 -5 -3 -10 1 -10 10 0 9
-5 13 -10 10 -6 -4 -8 -11 -5 -16 3 -5 -1 -6 -10 -3 -12 5 -13 9 -4 20 10 12
8 13 -6 8 -14 -6 -16 -4 -10 7 7 11 5 11 -10 -1 -11 -9 -16 -10 -11 -2 4 7 1
12 -8 12 -9 0 -16 5 -16 10 0 6 -12 10 -26 10 -22 0 -24 3 -15 14 10 12 8 13
-8 9 -12 -3 -18 -10 -14 -16 3 -5 1 -7 -5 -3 -6 3 -9 19 -6 34 3 21 2 24 -6
12 -9 -13 -13 -12 -29 7 -17 20 -20 21 -26 6 -5 -15 -8 -15 -15 -3 -5 8 -6 18
-3 24 4 5 1 6 -6 1 -7 -4 -23 3 -38 16 -15 13 -23 19 -19 12 4 -8 -1 -11 -14
-10 -11 1 -20 5 -20 10 0 4 -4 5 -10 2 -5 -3 -10 1 -10 11 0 14 -2 15 -17 3
-9 -8 -14 -9 -11 -4 4 6 3 17 -3 25 -7 13 -9 12 -9 -2 0 -10 -4 -18 -10 -18
-5 0 -7 6 -4 14 3 7 -2 16 -11 20 -9 3 -13 2 -10 -3 3 -5 0 -13 -6 -17 -8 -4
-9 -3 -5 4 4 7 2 12 -4 12 -6 0 -8 5 -5 10 3 6 1 10 -5 10 -6 0 -8 5 -4 12 5
7 3 8 -5 4 -7 -5 -10 -14 -7 -22 4 -11 2 -11 -14 -2 -10 7 -16 17 -12 23 3 5
-1 4 -10 -3 -13 -11 -16 -10 -14 4 0 9 -7 18 -17 19 -9 2 -15 -1 -11 -6 3 -5
10 -6 16 -3 7 4 8 2 4 -5 -4 -6 -13 -8 -19 -4 -7 4 -18 8 -26 10 -7 1 -19 7
-25 13 -8 8 -7 11 4 8 8 -2 19 -7 23 -13 5 -6 7 -4 5 4 -2 8 -12 16 -21 18 -9
1 -25 5 -34 7 -10 2 -21 -2 -25 -8 -5 -7 -8 -4 -8 7 0 15 -13 21 -47 20 -7 -1
-13 3 -13 7 0 4 -7 11 -16 14 -14 5 -15 4 -5 -8 10 -12 9 -14 -8 -9 -13 3 -18
10 -14 21 4 10 2 14 -2 9 -5 -4 -17 1 -28 10 -11 10 -17 13 -14 7 4 -7 -2 -14
-14 -17 -15 -4 -19 -2 -15 9 4 12 2 12 -14 4 -22 -12 -54 0 -78 29 -12 14 -13
14 -8 -1 4 -15 2 -16 -19 -6 -21 9 -23 14 -13 27 10 13 9 13 -7 -1 -20 -16
-47 -12 -47 8 0 5 -5 7 -11 5 -38 -12 -47 -12 -47 -1 0 10 -3 10 -14 1 -11 -9
-16 -9 -22 0 -4 7 -3 9 3 6 5 -3 10 0 10 7 0 11 -4 12 -20 3 -15 -9 -21 -9
-24 1 -3 6 -9 12 -14 12 -6 0 -8 -4 -5 -9 4 -5 -3 -7 -14 -4 -19 5 -20 6 -3
20 17 13 16 13 -4 4 -12 -6 -23 -14 -25 -18 -3 -5 -3 -2 -2 5 4 15 -1 15 -26
2 -16 -9 -18 -8 -13 6 5 14 3 15 -15 5 -15 -8 -22 -8 -22 -1 0 7 -6 8 -19 1
-14 -8 -22 -7 -30 3 -8 9 -7 13 4 13 8 0 11 -5 8 -10 -3 -6 -1 -7 6 -3 16 10
5 25 -17 21 -9 -2 -21 -4 -25 -4 -5 -1 -5 -5 -2 -11 3 -5 1 -10 -4 -10 -6 0
-11 10 -12 23 0 21 -1 21 -9 2 -6 -13 -9 -15 -9 -5 -1 13 -2 13 -11 0 -9 -13
-10 -13 -10 0 0 11 -9 15 -27 14 -16 -1 -34 -3 -41 -3 -7 -1 -10 -6 -6 -13 4
-7 3 -8 -4 -4 -6 4 -8 14 -5 24 3 9 2 14 -2 9 -5 -4 -16 0 -25 8 -15 14 -18
14 -23 2 -3 -9 1 -14 10 -13 9 0 17 -5 19 -12 1 -7 0 -8 -2 -3 -4 6 -14 7 -30
1 -13 -5 -23 -6 -23 -2 5 28 -2 35 -17 16 -10 -12 -14 -13 -11 -4 3 11 -3 15
-24 14 -16 0 -32 -4 -36 -7 -3 -4 -13 -1 -21 6 -13 9 -14 9 -8 0 5 -9 2 -11
-8 -7 -9 3 -13 11 -9 18 3 6 -2 3 -13 -6 -18 -16 -22 -16 -42 -2 -20 14 -23
14 -28 0 -7 -18 -25 -22 -21 -5 1 6 -4 14 -12 17 -8 2 -11 0 -8 -5 3 -5 0 -10
-8 -10 -8 0 -12 4 -9 8 2 4 0 11 -6 14 -6 4 -10 3 -9 -2 3 -20 -2 -27 -11 -13
-9 13 -10 13 -10 0 0 -13 -1 -13 -10 0 -8 13 -11 13 -22 1 -11 -11 -11 -13 1
-6 9 5 12 4 7 -3 -10 -17 -15 -15 -26 11 -8 19 -9 20 -9 3 -1 -20 -1 -20 -16
0 -10 13 -13 14 -10 3z m-197 -44 c-3 -3 -9 2 -12 12 -6 14 -5 15 5 6 7 -7 10
-15 7 -18z m1387 -145 c3 -5 1 -10 -4 -10 -6 0 -11 5 -11 10 0 6 2 10 4 10 3
0 8 -4 11 -10z m100 -40 c3 -5 1 -10 -4 -10 -6 0 -11 5 -11 10 0 6 2 10 4 10
3 0 8 -4 11 -10z m-1824 -147 c13 -16 12 -17 -3 -4 -10 7 -18 15 -18 17 0 8 8
3 21 -13z m-51 -15 c0 -14 -15 -16 -27 -3 -10 11 -9 13 7 12 11 -1 20 -5 20
-9z m2278 -13 c-3 -3 -9 2 -12 12 -6 14 -5 15 5 6 7 -7 10 -15 7 -18z m77 -24
c3 -5 2 -12 -3 -15 -5 -3 -9 1 -9 9 0 17 3 19 12 6z m-1098 -23 c-3 -8 -6 -5
-6 6 -1 11 2 17 5 13 3 -3 4 -12 1 -19z m363 -108 c0 -5 -2 -10 -4 -10 -3 0
-8 5 -11 10 -3 6 -1 10 4 10 6 0 11 -4 11 -10z m-3005 -79 c3 -5 2 -12 -3 -15
-5 -3 -9 1 -9 9 0 17 3 19 12 6z m-65 -41 c0 -5 -5 -10 -11 -10 -5 0 -7 5 -4
10 3 6 8 10 11 10 2 0 4 -4 4 -10z m4515 -221 c11 -16 1 -19 -13 -3 -7 8 -8
14 -3 14 5 0 13 -5 16 -11z m-605 -102 c11 -5 9 -6 -4 -4 -11 1 -21 9 -23 17
-3 10 -2 11 4 4 4 -6 15 -14 23 -17z m236 -176 c-4 -5 -1 -11 6 -13 8 -3 6 -6
-4 -10 -11 -5 -15 -2 -13 10 5 23 4 22 11 22 3 0 3 -4 0 -9z m682 -36 c-3 -3
-9 2 -12 12 -6 14 -5 15 5 6 7 -7 10 -15 7 -18z m267 -284 c3 -5 2 -12 -3 -15
-5 -3 -9 1 -9 9 0 17 3 19 12 6z m119 -159 c3 -5 -1 -9 -9 -9 -8 0 -12 4 -9 9
3 4 7 8 9 8 2 0 6 -4 9 -8z m157 -239 c12 -16 12 -17 -2 -6 -9 7 -20 9 -24 5
-5 -4 -5 -1 -1 6 9 16 11 15 27 -5z m-6571 -143 c-24 -15 -36 -11 -14 4 10 8
21 12 24 10 2 -3 -2 -9 -10 -14z m6145 -138 c-3 -3 -11 0 -18 7 -9 10 -8 11 6
5 10 -3 15 -9 12 -12z m102 -199 c0 -9 -4 -10 -14 -2 -7 6 -13 12 -13 14 0 1
6 2 13 2 8 0 14 -6 14 -14z m153 -338 c0 -2 -6 -5 -13 -8 -8 -3 -14 1 -14 8 0
7 6 11 14 8 7 -3 13 -6 13 -8z m104 -397 c-9 -14 -23 2 -17 18 4 12 8 13 14 3
4 -7 5 -17 3 -21z m-6964 -433 c14 -19 14 -19 -2 -6 -10 7 -18 18 -18 24 0 6
1 8 3 6 1 -2 9 -13 17 -24z m14 -273 c3 -5 -1 -9 -9 -9 -8 0 -12 4 -9 9 3 4 7
8 9 8 2 0 6 -4 9 -8z m-39 -141 c3 -5 2 -12 -3 -15 -5 -3 -9 1 -9 9 0 17 3 19
12 6z m7695 -185 c0 -3 -4 -8 -10 -11 -5 -3 -10 -1 -10 4 0 6 5 11 10 11 6 0
10 -2 10 -4z m-612 -91 c-3 -3 -9 2 -12 12 -6 14 -5 15 5 6 7 -7 10 -15 7 -18z
m387 -974 c3 -5 2 -12 -3 -15 -5 -3 -9 1 -9 9 0 17 3 19 12 6z"/>
<path d="M4875 6800 c3 -5 8 -10 11 -10 2 0 4 5 4 10 0 6 -5 10 -11 10 -5 0
-7 -4 -4 -10z"/>
<path d="M4376 6792 c-3 -4 4 -9 15 -9 23 -2 25 3 4 10 -8 4 -16 3 -19 -1z"/>
<path d="M6473 6685 c0 -8 4 -12 8 -9 4 2 10 -2 12 -8 4 -8 6 -9 6 -2 1 6 -5
17 -12 23 -10 8 -14 7 -14 -4z"/>
<path d="M3673 6655 c0 -8 4 -12 9 -9 5 3 6 10 3 15 -9 13 -12 11 -12 -6z"/>
<path d="M5725 6660 c3 -5 8 -10 11 -10 2 0 4 5 4 10 0 6 -5 10 -11 10 -5 0
-7 -4 -4 -10z"/>
<path d="M5770 6661 c0 -7 -4 -9 -10 -6 -5 3 -10 1 -10 -4 0 -6 4 -11 9 -11
13 0 25 20 17 27 -3 4 -6 1 -6 -6z"/>
<path d="M3588 6633 c6 -2 9 -10 6 -15 -4 -7 -2 -8 5 -4 13 9 5 26 -12 25 -9
0 -8 -2 1 -6z"/>
<path d="M7480 6533 c0 -5 11 -20 24 -32 18 -17 26 -19 31 -10 5 7 4 10 -3 5
-6 -3 -20 6 -31 20 -12 15 -21 22 -21 17z"/>
<path d="M6295 6460 c3 -5 8 -10 11 -10 2 0 4 5 4 10 0 6 -5 10 -11 10 -5 0
-7 -4 -4 -10z"/>
<path d="M2355 6440 c-3 -5 -1 -10 4 -10 6 0 11 5 11 10 0 6 -2 10 -4 10 -3 0
-8 -4 -11 -10z"/>
<path d="M4700 6446 c0 -2 8 -10 18 -17 15 -13 16 -12 3 4 -13 16 -21 21 -21
13z"/>
<path d="M4166 6424 c-11 -8 -16 -14 -10 -14 13 0 39 18 34 24 -3 2 -14 -2
-24 -10z"/>
<path d="M6895 6430 c-3 -5 -1 -10 4 -10 6 0 11 5 11 10 0 6 -2 10 -4 10 -3 0
-8 -4 -11 -10z"/>
<path d="M2965 6360 c-4 -6 -11 -7 -17 -4 -7 4 -8 2 -4 -5 6 -9 11 -9 22 0 14
11 18 19 10 19 -3 0 -8 -5 -11 -10z"/>
<path d="M3750 6349 c0 -5 5 -7 10 -4 6 3 10 8 10 11 0 2 -4 4 -10 4 -5 0 -10
-5 -10 -11z"/>
<path d="M5415 6320 c-2 -3 5 -7 16 -7 10 -1 19 2 19 6 0 9 -29 10 -35 1z"/>
<path d="M2850 6292 c0 -12 3 -12 15 -2 8 7 15 13 15 15 0 1 -7 2 -15 2 -8 0
-15 -7 -15 -15z"/>
<path d="M3551 6284 c0 -11 3 -14 6 -6 3 7 2 16 -1 19 -3 4 -6 -2 -5 -13z"/>
<path d="M7145 6259 c-4 -6 -5 -12 -2 -15 2 -3 7 2 10 11 7 17 1 20 -8 4z"/>
<path d="M6675 6240 c21 -24 26 -25 19 -6 -3 8 -13 17 -22 21 -13 5 -13 2 3
-15z"/>
<path d="M6145 6029 c-4 -6 -4 -13 -1 -16 3 -4 6 -1 6 6 0 7 5 9 12 5 7 -4 8
-3 4 4 -9 15 -13 15 -21 1z"/>
<path d="M7087 5949 c7 -7 15 -10 18 -7 3 3 -2 9 -12 12 -14 6 -15 5 -6 -5z"/>
<path d="M7170 5890 c-9 -6 -10 -10 -3 -10 6 0 15 5 18 10 8 12 4 12 -15 0z"/>
<path d="M2210 5841 c0 -6 4 -13 10 -16 6 -3 7 1 4 9 -7 18 -14 21 -14 7z"/>
<path d="M2585 5831 c-3 -5 0 -13 6 -17 7 -4 9 -3 5 4 -3 5 0 13 6 15 9 4 10
6 1 6 -6 1 -14 -3 -18 -8z"/>
<path d="M7310 5764 c0 -20 27 -37 36 -23 4 7 3 9 -4 5 -6 -3 -15 2 -21 11 -6
10 -11 13 -11 7z"/>
<path d="M8220 5755 c7 -8 17 -15 22 -15 5 0 3 7 -6 15 -8 8 -18 15 -22 15 -3
0 -1 -7 6 -15z"/>
<path d="M7760 5653 c8 -4 21 -13 28 -22 10 -13 12 -14 10 -1 -4 19 -18 30
-38 29 -13 -1 -13 -1 0 -6z"/>
<path d="M2335 5640 c-3 -5 -1 -10 4 -10 6 0 11 5 11 10 0 6 -2 10 -4 10 -3 0
-8 -4 -11 -10z"/>
<path d="M8352 5591 c-11 -6 -10 -10 0 -19 11 -8 14 -7 14 9 0 10 0 19 -1 19
0 0 -6 -4 -13 -9z"/>
<path d="M6790 5570 c0 -5 5 -10 11 -10 5 0 7 5 4 10 -3 6 -8 10 -11 10 -2 0
-4 -4 -4 -10z"/>
<path d="M7910 5460 c0 -5 5 -10 11 -10 5 0 7 5 4 10 -3 6 -8 10 -11 10 -2 0
-4 -4 -4 -10z"/>
<path d="M1835 5440 c-3 -5 -1 -10 4 -10 6 0 11 5 11 10 0 6 -2 10 -4 10 -3 0
-8 -4 -11 -10z"/>
<path d="M8483 5395 c0 -8 4 -12 9 -9 5 3 6 10 3 15 -9 13 -12 11 -12 -6z"/>
<path d="M1225 5331 c-3 -5 0 -13 6 -17 7 -4 9 -3 5 4 -3 5 0 13 6 15 9 4 10
6 1 6 -6 1 -14 -3 -18 -8z"/>
<path d="M7085 5280 c-3 -5 -1 -10 4 -10 6 0 11 5 11 10 0 6 -2 10 -4 10 -3 0
-8 -4 -11 -10z"/>
<path d="M8053 5275 c0 -8 4 -12 9 -9 5 3 6 10 3 15 -9 13 -12 11 -12 -6z"/>
<path d="M1186 5258 c3 -5 10 -6 15 -3 13 9 11 12 -6 12 -8 0 -12 -4 -9 -9z"/>
<path d="M1871 5176 c-9 -11 -9 -16 1 -22 7 -4 10 -4 6 1 -4 4 -3 14 3 22 6 7
9 13 6 13 -2 0 -10 -6 -16 -14z"/>
<path d="M8155 5120 c3 -5 11 -10 16 -10 6 0 7 5 4 10 -3 6 -11 10 -16 10 -6
0 -7 -4 -4 -10z"/>
<path d="M7887 5069 c7 -7 15 -10 18 -7 3 3 -2 9 -12 12 -14 6 -15 5 -6 -5z"/>
<path d="M540 5000 c-9 -6 -10 -10 -3 -10 6 0 15 5 18 10 8 12 4 12 -15 0z"/>
<path d="M1496 4965 c-11 -8 -15 -15 -9 -15 6 0 16 7 23 15 16 19 11 19 -14 0z"/>
<path d="M7427 4799 c7 -7 15 -10 18 -7 3 3 -2 9 -12 12 -14 6 -15 5 -6 -5z"/>
<path d="M8335 4800 c-3 -5 -1 -10 4 -10 6 0 11 5 11 10 0 6 -2 10 -4 10 -3 0
-8 -4 -11 -10z"/>
<path d="M8370 4740 c0 -5 5 -10 11 -10 5 0 7 5 4 10 -3 6 -8 10 -11 10 -2 0
-4 -4 -4 -10z"/>
<path d="M375 4640 c-3 -5 -2 -10 4 -10 5 0 13 5 16 10 3 6 2 10 -4 10 -5 0
-13 -4 -16 -10z"/>
<path d="M1429 4523 c-13 -16 -12 -17 4 -4 9 7 17 15 17 17 0 8 -8 3 -21 -13z"/>
<path d="M8470 4506 c0 -2 7 -7 16 -10 8 -3 12 -2 9 4 -6 10 -25 14 -25 6z"/>
<path d="M8937 4473 c3 -7 6 -13 8 -13 2 0 5 6 8 13 3 8 -1 14 -8 14 -7 0 -11
-6 -8 -14z"/>
<path d="M1195 4390 c-3 -5 -1 -10 4 -10 6 0 11 5 11 10 0 6 -2 10 -4 10 -3 0
-8 -4 -11 -10z"/>
<path d="M1315 4300 c-3 -5 -1 -10 4 -10 6 0 11 5 11 10 0 6 -2 10 -4 10 -3 0
-8 -4 -11 -10z"/>
<path d="M220 4200 c-9 -6 -10 -10 -3 -10 6 0 15 5 18 10 8 12 4 12 -15 0z"/>
<path d="M635 4160 c-3 -5 -1 -10 4 -10 6 0 11 5 11 10 0 6 -2 10 -4 10 -3 0
-8 -4 -11 -10z"/>
<path d="M9063 4095 c0 -7 6 -11 14 -8 7 3 13 6 13 8 0 2 -6 5 -13 8 -8 3 -14
-1 -14 -8z"/>
<path d="M9096 3993 c-6 -14 -5 -15 5 -6 7 7 10 15 7 18 -3 3 -9 -2 -12 -12z"/>
<path d="M505 3681 c-3 -5 -2 -12 3 -15 5 -3 9 1 9 9 0 17 -3 19 -12 6z"/>
<path d="M7325 3630 c3 -6 0 -10 -8 -10 -8 0 -17 -6 -20 -14 -6 -14 -30 -16
-43 -3 -11 11 -46 -14 -40 -28 3 -9 0 -12 -9 -8 -8 3 -12 10 -8 16 3 6 1 7 -5
3 -7 -4 -12 -15 -13 -24 -1 -11 -4 -8 -9 8 -4 14 -8 19 -9 12 -1 -7 -5 -10
-11 -7 -6 3 -7 -1 -4 -9 3 -9 1 -16 -5 -16 -6 0 -11 6 -11 13 0 8 -3 7 -9 -3
-6 -8 -8 -17 -6 -20 5 -8 -42 -6 -50 2 -4 4 -17 2 -29 -4 -11 -6 -22 -10 -24
-9 -2 2 -6 0 -9 -3 -3 -3 5 -3 17 -1 12 2 20 1 16 -2 -12 -12 -40 -12 -48 0
-5 8 -8 7 -8 -5 0 -23 -18 -32 -34 -19 -15 13 -41 -10 -28 -24 4 -5 2 -5 -5
-1 -7 4 -10 14 -7 24 5 14 4 15 -5 2 -6 -8 -11 -10 -11 -5 0 6 -7 2 -15 -9 -8
-10 -19 -15 -26 -10 -9 5 -10 2 -5 -12 6 -15 5 -17 -5 -6 -15 14 -43 16 -34 2
4 -6 -1 -7 -11 -3 -13 5 -15 3 -9 -8 8 -12 6 -12 -8 0 -15 12 -17 12 -12 0 4
-10 -2 -15 -17 -16 -19 -2 -20 0 -8 8 12 9 12 10 -3 5 -10 -3 -21 -6 -23 -6
-3 0 -3 -4 0 -9 3 -5 -7 -8 -23 -7 -17 1 -27 -2 -25 -6 3 -5 -6 -7 -20 -4 -17
3 -24 1 -20 -6 4 -6 -1 -8 -14 -4 -12 4 -23 2 -28 -5 -4 -7 -3 -9 2 -6 6 3 16
2 24 -3 12 -7 10 -9 -5 -8 -11 1 -35 -2 -54 -6 -26 -6 -32 -5 -26 4 6 9 4 11
-4 6 -7 -5 -10 -15 -6 -24 5 -14 3 -14 -13 1 -10 9 -22 14 -26 10 -4 -5 -13
-8 -19 -8 -7 0 -11 -8 -9 -18 3 -20 -14 -23 -22 -4 -3 8 -12 4 -27 -13 l-22
-25 7 25 c3 14 3 19 0 12 -3 -6 -11 -9 -16 -6 -6 4 -8 2 -5 -3 8 -12 -20 -39
-30 -30 -3 4 -15 1 -27 -5 -19 -10 -20 -10 -7 6 8 10 21 14 32 11 14 -5 19 -1
18 12 0 10 -3 13 -6 5 -2 -6 -8 -10 -13 -7 -14 9 -72 -26 -66 -41 4 -11 0 -10
-19 2 -22 14 -25 14 -19 1 3 -8 0 -18 -7 -23 -8 -4 -10 -3 -5 4 11 18 -9 14
-24 -3 -7 -9 -15 -13 -18 -10 -3 3 -11 0 -18 -6 -8 -7 -14 -6 -20 2 -4 7 -3 9
4 5 6 -3 13 -2 17 4 4 6 10 8 15 5 5 -3 11 -1 14 4 5 8 -15 8 -34 1 -3 -1 -9
-2 -13 -1 -4 1 -10 -6 -13 -14 -3 -8 -10 -12 -15 -9 -5 3 -6 11 -2 17 5 8 2 8
-9 0 -8 -7 -18 -10 -22 -6 -4 4 -4 -1 0 -11 5 -13 4 -17 -4 -12 -6 3 -16 -2
-22 -11 -9 -15 -10 -15 -4 5 6 23 6 24 -13 5 -11 -10 -18 -22 -15 -27 3 -5 0
-6 -7 -2 -6 4 -18 2 -26 -4 -11 -9 -15 -9 -15 -1 0 6 5 11 10 11 6 0 10 5 10
12 0 6 -14 -1 -31 -18 -31 -28 -31 -28 -20 -4 12 25 12 25 -6 4 -10 -11 -25
-18 -32 -16 -9 3 -11 0 -6 -9 6 -11 5 -11 -5 -2 -14 13 -43 6 -34 -8 3 -5 -2
-6 -10 -3 -17 7 -49 -19 -38 -31 4 -5 0 -4 -8 1 -29 17 -50 15 -44 -4 5 -14 4
-14 -4 -3 -15 21 -43 23 -40 3 2 -9 -1 -17 -7 -17 -5 0 -16 -4 -22 -8 -9 -6
-11 -3 -7 10 5 17 5 17 -8 1 -12 -14 -17 -15 -29 -5 -8 7 -13 11 -12 8 6 -11
-20 -42 -33 -37 -8 3 -14 1 -14 -5 0 -6 -5 -7 -10 -4 -6 4 -19 1 -28 -7 -15
-12 -16 -11 -3 5 8 9 11 20 7 24 -3 3 -6 1 -6 -5 0 -7 -7 -12 -16 -12 -8 0
-12 -5 -8 -11 4 -7 -1 -7 -16 1 -15 8 -20 8 -16 1 4 -6 2 -11 -5 -11 -6 0 -18
-8 -25 -17 -13 -17 -14 -17 -8 0 5 13 2 16 -10 11 -9 -3 -13 -10 -10 -15 3 -5
1 -9 -5 -9 -5 0 -12 6 -14 13 -3 6 -6 3 -7 -8 l-1 -20 -9 20 c-8 18 -9 18 -9
-5 -1 -14 -5 -20 -9 -15 -4 6 -13 11 -21 13 -12 3 -12 1 0 -14 13 -16 12 -16
-8 -5 -13 6 -23 8 -23 3 0 -5 -15 -8 -34 -7 -23 0 -33 -4 -32 -14 1 -7 -5 -16
-11 -18 -7 -3 -13 0 -13 7 0 6 5 8 12 4 7 -5 8 -3 3 6 -6 10 -11 9 -21 -4 -9
-13 -13 -14 -17 -4 -4 9 -6 7 -6 -4 -1 -9 -6 -20 -13 -24 -8 -5 -9 -2 -5 9 3
10 3 17 -2 17 -5 0 -11 -9 -14 -21 -5 -17 -9 -19 -26 -10 -26 15 -34 14 -28
-2 3 -8 -1 -14 -9 -14 -7 0 -11 3 -9 7 2 4 -3 7 -11 7 -9 0 -13 -6 -10 -14 3
-8 1 -11 -4 -8 -6 3 -10 0 -10 -7 0 -10 -3 -9 -10 2 -7 12 -12 11 -31 -5 -12
-11 -20 -15 -16 -10 3 6 -3 11 -13 11 -15 0 -16 -3 -8 -13 9 -11 6 -12 -16 -3
-23 8 -28 7 -36 -13 -5 -12 -9 -17 -9 -10 -1 12 -25 12 -37 0 -12 -12 -26 -8
-18 5 4 7 3 8 -5 4 -6 -4 -9 -17 -6 -29 2 -12 2 -16 -1 -9 -3 6 -11 9 -17 5
-6 -4 -8 0 -4 10 4 12 2 14 -10 10 -12 -5 -14 -3 -8 7 5 9 4 11 -3 6 -7 -4
-18 -3 -26 1 -14 8 -16 12 -16 31 0 4 -9 8 -20 9 -13 1 -18 -2 -14 -9 5 -7 2
-8 -5 -4 -7 5 -16 18 -21 30 -7 17 -9 18 -9 3 -1 -15 -3 -16 -15 -5 -8 7 -12
16 -10 19 5 9 -35 4 -43 -6 -5 -4 -3 -5 3 -2 6 4 20 0 30 -9 18 -14 18 -15 -3
-4 -13 6 -23 7 -23 3 0 -4 -7 1 -15 11 -12 16 -15 17 -15 4 0 -10 -8 -14 -26
-12 -19 2 -24 -1 -20 -12 3 -9 1 -12 -4 -9 -6 3 -10 14 -10 23 0 14 -2 14 -9
3 -5 -8 -8 -19 -7 -25 2 -6 1 -8 -1 -3 -3 4 -9 7 -14 7 -6 0 -7 -6 -3 -12 5
-9 2 -9 -9 1 -12 9 -17 10 -17 2 0 -7 -5 -9 -12 -5 -7 4 -8 3 -4 -5 4 -6 12
-8 18 -5 7 5 8 2 4 -5 -5 -7 -15 -10 -23 -6 -13 4 -14 3 -3 -10 11 -13 10 -14
-4 -9 -9 3 -16 11 -16 18 0 6 -4 5 -9 -4 -6 -8 -7 -18 -5 -22 3 -4 0 -8 -5 -8
-6 0 -11 -5 -11 -11 0 -5 5 -7 12 -3 7 5 8 3 4 -5 -5 -7 -14 -10 -22 -7 -8 3
-13 2 -13 -2 3 -20 -2 -33 -11 -27 -6 3 -7 -1 -4 -9 3 -9 11 -13 18 -9 6 3 5
0 -2 -8 -11 -12 -14 -12 -22 1 -8 12 -10 11 -7 -5 1 -11 6 -25 10 -32 4 -6 2
-15 -4 -19 -8 -5 -9 -3 -4 6 5 9 4 11 -4 6 -6 -4 -9 -11 -6 -16 3 -4 0 -10 -7
-12 -9 -3 -9 -6 0 -12 7 -4 12 -2 12 3 0 6 4 11 10 11 13 0 0 -32 -19 -47 -14
-11 -13 -12 4 -9 16 3 20 -1 20 -20 -1 -13 -4 -26 -7 -30 -3 -3 5 -16 19 -30
13 -13 21 -29 18 -34 -3 -6 -1 -10 6 -10 8 0 7 -5 -2 -17 -12 -14 -12 -16 2
-11 10 4 22 -3 34 -18 9 -13 23 -21 29 -17 6 4 5 0 -2 -9 -11 -14 -10 -16 7
-11 13 3 21 1 21 -6 0 -7 5 -9 10 -6 6 3 10 1 10 -5 0 -6 5 -8 10 -5 6 4 7 12
3 18 -4 7 0 6 10 -2 9 -7 17 -19 17 -25 0 -6 -5 -4 -10 4 -5 8 -10 10 -10 4 0
-6 8 -18 18 -25 9 -7 14 -9 10 -5 -4 5 -3 15 3 23 9 10 15 10 25 2 8 -6 21 -8
30 -5 14 5 15 4 4 -9 -19 -23 -3 -18 21 8 12 12 20 18 17 12 -3 -5 1 -17 10
-25 14 -13 15 -12 9 3 -5 12 0 18 19 23 14 4 28 4 31 0 3 -3 12 -1 20 5 10 9
11 15 2 26 -9 11 -9 12 3 8 9 -4 18 1 22 10 3 9 11 13 18 9 7 -5 9 -1 6 13 -3
12 0 20 7 20 7 0 11 -7 8 -16 -3 -11 -1 -11 7 2 8 13 9 22 1 31 -9 10 -6 13
13 11 19 -2 23 1 19 13 -5 11 -3 13 7 7 9 -6 11 -4 5 5 -6 10 -11 9 -23 -6
-14 -18 -14 -18 -8 -1 3 10 6 21 6 23 0 2 8 4 18 4 14 0 15 2 2 10 -11 7 -11
10 -2 10 7 0 11 4 8 9 -3 4 4 8 17 7 14 -1 22 4 21 15 -1 9 5 16 12 16 7 0 11
-4 8 -9 -3 -4 2 -5 10 -2 9 3 13 11 9 18 -3 6 4 2 17 -9 13 -11 20 -14 16 -7
-4 6 -2 12 4 12 6 0 8 6 4 13 -4 6 -4 9 1 5 4 -4 14 -3 22 3 7 6 13 8 13 4 0
-4 7 -2 15 5 13 11 14 10 9 -6 -6 -16 -4 -16 15 4 25 26 40 30 20 5 -13 -15
-12 -15 7 -5 12 6 25 8 30 4 5 -4 3 0 -3 8 -10 13 -8 16 7 16 10 0 17 -3 15
-6 -2 -3 5 -6 15 -6 15 0 16 3 8 13 -9 11 -6 12 15 4 28 -11 44 0 31 21 -4 6
-3 8 4 4 6 -3 13 -2 17 3 4 7 15 7 30 1 17 -7 25 -6 25 1 0 8 5 7 15 -1 9 -7
18 -10 22 -6 3 3 1 6 -5 6 -7 0 -11 6 -10 13 2 6 -3 11 -10 9 -8 -1 -11 2 -7
8 4 6 13 5 26 -3 16 -10 21 -9 28 2 5 8 10 9 12 2 6 -15 47 -2 52 18 4 13 5
13 6 -2 0 -10 6 -15 11 -12 6 4 7 12 3 18 -4 7 0 6 10 -2 14 -11 18 -11 22 2
4 8 19 15 38 15 49 0 50 1 36 19 -13 17 -13 17 12 1 21 -13 26 -14 26 -2 0 8
-5 14 -10 14 -6 0 -7 3 -4 6 4 4 18 -1 31 -10 19 -12 24 -12 20 -3 -4 11 5 13
35 12 22 -1 38 2 35 7 -3 4 -10 6 -15 3 -5 -4 -9 -2 -9 3 0 15 43 23 52 9 6
-9 8 -9 8 2 0 7 6 11 15 8 8 -4 17 -1 21 5 4 7 3 8 -4 4 -7 -4 -12 -5 -12 -2
0 3 10 10 21 17 15 8 19 8 15 0 -4 -6 -2 -11 3 -11 6 0 11 4 11 10 0 5 7 7 15
4 8 -4 15 -1 15 5 0 6 5 11 11 11 5 0 8 -4 5 -9 -7 -11 21 -8 31 4 4 4 3 5 -3
2 -6 -3 -11 0 -11 7 0 8 12 12 31 11 18 -1 36 5 44 14 8 9 11 11 8 4 -4 -7 1
-11 14 -10 11 1 20 5 20 9 0 4 9 8 21 8 11 0 18 4 15 8 -3 5 1 9 9 9 8 0 12
-4 9 -9 -3 -4 2 -5 10 -2 9 3 13 11 9 18 -3 6 -3 8 2 4 4 -4 16 -3 26 2 11 6
20 6 23 1 5 -8 27 -8 46 -1 3 1 9 2 13 1 5 -1 6 3 3 7 -3 5 4 18 17 28 16 15
19 15 9 2 -12 -15 -11 -17 6 -15 13 1 18 6 14 17 -5 13 -4 13 13 0 10 -8 16
-10 12 -4 -4 7 0 14 8 18 8 3 17 0 21 -6 5 -7 2 -8 -6 -3 -9 5 -11 4 -6 -4 5
-8 13 -7 28 3 11 8 28 12 37 9 13 -4 14 -3 1 6 -21 14 -6 25 19 12 13 -8 22
-8 26 -1 4 6 10 8 15 5 5 -3 12 0 16 6 4 7 3 9 -4 5 -6 -3 -14 -1 -18 6 -4 7
-4 10 1 6 4 -4 15 -2 23 5 13 9 14 9 8 0 -4 -7 -2 -13 3 -13 6 0 11 5 11 11 0
5 5 7 10 4 6 -4 7 -11 4 -17 -4 -7 -2 -8 5 -4 6 4 8 12 5 18 -4 6 -1 9 7 6 8
-3 20 2 27 11 12 14 13 14 8 -3 -5 -15 -4 -17 7 -8 8 7 18 8 23 4 4 -4 2 2 -6
12 -14 18 -14 19 9 7 13 -7 21 -8 17 -3 -3 6 -2 13 4 17 5 3 10 2 10 -3 0 -5
7 -9 15 -9 12 0 12 3 2 15 -10 13 -9 14 11 3 13 -7 22 -8 22 -2 0 6 7 8 15 5
9 -4 18 1 21 11 5 13 9 14 15 3 7 -10 9 -10 9 0 0 10 5 10 23 1 20 -11 21 -11
8 5 -12 14 -12 16 4 10 14 -6 16 -4 10 6 -5 8 -4 11 3 6 5 -3 13 0 16 6 3 7 3
2 0 -12 -5 -25 -5 -25 8 -3 11 18 17 20 32 11 16 -9 23 -7 38 12 10 12 18 19
18 15 0 -5 8 -1 18 8 10 10 21 14 25 11 3 -4 14 -3 24 1 10 5 23 7 28 5 26 -7
64 -7 60 1 -3 4 -14 6 -25 4 -12 -2 -18 0 -15 5 3 4 16 7 30 5 14 -1 25 3 25
8 0 7 4 7 11 0 13 -13 47 1 62 25 11 17 25 15 30 -5 4 -16 5 -16 6 -2 0 9 8
19 15 22 11 4 13 1 10 -11 -5 -16 -5 -16 6 0 6 10 17 15 27 11 10 -4 14 -2 10
4 -10 16 18 24 33 10 9 -9 11 -9 7 -1 -4 7 0 15 9 18 8 3 12 2 9 -4 -4 -6 2
-7 17 -1 13 4 31 7 41 5 9 -1 15 2 11 7 -3 5 -10 6 -16 3 -7 -4 -8 -2 -4 4 4
6 14 8 23 5 10 -4 14 -2 10 4 -5 7 1 9 15 5 14 -3 19 -2 14 6 -4 7 -2 12 3 12
6 0 11 -5 11 -10 0 -6 10 -2 22 9 16 16 25 18 35 9 11 -9 15 -7 20 11 4 16 11
20 27 16 11 -2 15 -2 9 1 -7 3 -13 10 -13 15 0 6 5 7 10 4 6 -4 10 6 10 22 0
16 5 34 12 41 9 9 9 15 -1 25 -10 10 -11 8 -6 -8 5 -14 4 -16 -3 -7 -5 7 -7
24 -4 38 2 14 1 24 -4 23 -15 -3 -44 12 -44 23 0 6 7 5 15 -2 9 -7 18 -10 21
-7 3 3 -4 10 -15 17 -12 6 -21 7 -21 3 0 -4 -4 -2 -9 6 -7 11 -15 11 -40 3
-18 -6 -29 -7 -26 -3 3 5 -2 12 -11 15 -8 3 -12 2 -9 -4z m72 -32 c-3 -8 -6
-5 -6 6 -1 11 2 17 5 13 3 -3 4 -12 1 -19z m-147 -8 c0 -5 -5 -10 -11 -10 -5
0 -7 5 -4 10 3 6 8 10 11 10 2 0 4 -4 4 -10z m-769 -243 c-10 -9 -11 -8 -5 6
3 10 9 15 12 12 3 -3 0 -11 -7 -18z m313 -139 c-3 -4 -9 -8 -15 -8 -5 0 -9 4
-9 8 0 5 7 9 15 9 8 0 12 -4 9 -9z m-494 -132 c0 -2 -8 -10 -17 -17 -16 -13
-17 -12 -4 4 13 16 21 21 21 13z m-152 -58 c-5 -14 -38 -20 -38 -6 0 6 7 8 15
4 8 -3 15 -1 15 4 0 6 3 10 6 10 3 0 4 -5 2 -12z m-681 -210 c-3 -8 -6 -5 -6
6 -1 11 2 17 5 13 3 -3 4 -12 1 -19z m-252 -78 c3 -6 -1 -7 -9 -4 -18 7 -21
14 -7 14 6 0 13 -4 16 -10z m-445 -284 c0 -3 -4 -8 -10 -11 -5 -3 -10 -1 -10
4 0 6 5 11 10 11 6 0 10 -2 10 -4z"/>
<path d="M956 3542 c-3 -5 1 -9 9 -9 8 0 12 4 9 9 -3 4 -7 8 -9 8 -2 0 -6 -4
-9 -8z"/>
<path d="M9195 3531 c-3 -5 -2 -12 3 -15 5 -3 9 1 9 9 0 17 -3 19 -12 6z"/>
<path d="M6955 3510 c-3 -5 -1 -10 4 -10 6 0 11 5 11 10 0 6 -2 10 -4 10 -3 0
-8 -4 -11 -10z"/>
<path d="M6545 3390 c-3 -6 1 -7 9 -4 18 7 21 14 7 14 -6 0 -13 -4 -16 -10z"/>
<path d="M7382 3387 c-8 -10 -6 -13 11 -14 12 0 16 1 9 4 -6 3 -10 9 -6 14 8
14 -2 11 -14 -4z"/>
<path d="M7973 3267 c0 -8 6 -14 14 -14 9 0 10 4 2 14 -6 7 -12 13 -14 13 -1
0 -2 -6 -2 -13z"/>
<path d="M6846 3232 c-2 -4 -1 -14 4 -22 7 -11 9 -9 7 8 -1 24 -3 26 -11 14z"/>
<path d="M8595 3180 c-3 -5 -1 -10 4 -10 6 0 11 5 11 10 0 6 -2 10 -4 10 -3 0
-8 -4 -11 -10z"/>
<path d="M5786 3158 c3 -5 10 -6 15 -3 13 9 11 12 -6 12 -8 0 -12 -4 -9 -9z"/>
<path d="M985 3130 c-3 -5 -1 -10 4 -10 6 0 11 5 11 10 0 6 -2 10 -4 10 -3 0
-8 -4 -11 -10z"/>
<path d="M5586 3098 c3 -4 9 -8 15 -8 5 0 9 4 9 8 0 5 -7 9 -15 9 -8 0 -12 -4
-9 -9z"/>
<path d="M7998 2993 c7 -3 16 -2 19 1 4 3 -2 6 -13 5 -11 0 -14 -3 -6 -6z"/>
<path d="M6076 2978 c3 -5 10 -6 15 -3 13 9 11 12 -6 12 -8 0 -12 -4 -9 -9z"/>
<path d="M5890 2919 c0 -5 5 -7 10 -4 6 3 10 8 10 11 0 2 -4 4 -10 4 -5 0 -10
-5 -10 -11z"/>
<path d="M960 2719 c0 -5 5 -7 10 -4 6 3 10 8 10 11 0 2 -4 4 -10 4 -5 0 -10
-5 -10 -11z"/>
<path d="M7995 2630 c-3 -5 -2 -10 4 -10 5 0 13 5 16 10 3 6 2 10 -4 10 -5 0
-13 -4 -16 -10z"/>
<path d="M4389 2561 c6 -10 7 -22 3 -26 -4 -5 -1 -5 6 -1 9 5 9 12 2 27 -6 10
-13 19 -16 19 -2 0 0 -8 5 -19z"/>
<path d="M924 2555 c14 -37 15 -85 3 -78 -7 3 -8 2 -4 -3 14 -14 56 -12 50 3
-3 7 -9 13 -14 13 -11 0 -12 27 0 32 4 2 -3 14 -17 28 -21 21 -24 22 -18 5z"/>
<path d="M930 2450 c-18 -6 -20 -8 -7 -9 10 -1 16 -5 12 -10 -3 -5 4 -12 15
-16 20 -7 28 -25 10 -25 -5 0 -10 4 -10 8 0 5 -7 9 -16 9 -14 0 -15 -2 -2 -11
15 -11 18 -17 18 -37 0 -8 4 -9 13 0 8 6 18 7 22 3 5 -4 4 0 0 8 -5 8 -10 23
-11 34 0 11 -6 22 -12 24 -7 2 -12 8 -12 13 0 6 5 7 12 3 7 -4 8 -3 4 4 -4 7
-8 12 -9 11 -1 -1 -13 -5 -27 -9z"/>
<path d="M4590 2411 c0 -6 4 -13 10 -16 6 -3 7 1 4 9 -7 18 -14 21 -14 7z"/>
<path d="M8836 2382 c-3 -5 1 -9 9 -9 8 0 12 4 9 9 -3 4 -7 8 -9 8 -2 0 -6 -4
-9 -8z"/>
<path d="M8838 2353 c7 -3 16 -2 19 1 4 3 -2 6 -13 5 -11 0 -14 -3 -6 -6z"/>
<path d="M963 2343 c-7 -2 -13 -9 -13 -14 0 -6 4 -8 9 -5 5 3 12 -1 15 -10 9
-22 8 -26 -6 -18 -6 4 -8 3 -4 -4 3 -5 0 -13 -6 -15 -10 -4 -10 -6 0 -6 6 -1
12 -5 12 -11 0 -5 -8 -7 -17 -4 -17 5 -17 5 -1 -6 27 -17 31 -16 34 3 1 9 -2
17 -8 17 -6 0 -6 5 1 14 9 11 9 20 2 34 -6 11 -7 22 -4 26 7 7 4 7 -14 -1z"/>
<path d="M957 2219 c7 -7 15 -10 18 -7 3 3 -2 9 -12 12 -14 6 -15 5 -6 -5z"/>
<path d="M7930 2186 c0 -2 8 -10 18 -17 15 -13 16 -12 3 4 -13 16 -21 21 -21
13z"/>
<path d="M976 2167 c3 -10 9 -15 12 -12 3 3 0 11 -7 18 -10 9 -11 8 -5 -6z"/>
<path d="M425 2160 c-3 -5 -1 -10 4 -10 6 0 11 5 11 10 0 6 -2 10 -4 10 -3 0
-8 -4 -11 -10z"/>
<path d="M971 2127 c-8 -10 -7 -14 2 -14 8 0 14 6 14 14 0 7 -1 13 -2 13 -2 0
-8 -6 -14 -13z"/>
<path d="M8813 2085 c0 -8 4 -12 9 -9 5 3 6 10 3 15 -9 13 -12 11 -12 -6z"/>
<path d="M8796 2048 c3 -5 10 -6 15 -3 13 9 11 12 -6 12 -8 0 -12 -4 -9 -9z"/>
<path d="M446 1981 c-4 -5 -2 -12 3 -15 5 -4 12 -2 15 3 4 5 2 12 -3 15 -5 4
-12 2 -15 -3z"/>
<path d="M8565 1961 c-6 -11 9 -23 19 -14 9 9 7 23 -3 23 -6 0 -12 -4 -16 -9z"/>
<path d="M8785 1960 c-3 -6 1 -7 9 -4 18 7 21 14 7 14 -6 0 -13 -4 -16 -10z"/>
<path d="M8780 1879 c0 -5 5 -7 10 -4 6 3 10 8 10 11 0 2 -4 4 -10 4 -5 0 -10
-5 -10 -11z"/>
<path d="M9352 1717 c15 -12 15 -14 0 -25 -9 -7 -12 -10 -5 -7 14 6 27 -11 14
-19 -11 -7 -7 -42 4 -39 5 2 10 25 11 53 3 46 1 50 -19 50 -20 -1 -20 -2 -5
-13z"/>
<path d="M7935 1691 c-3 -5 0 -13 6 -17 7 -4 9 -3 5 4 -3 5 0 13 6 15 9 4 10
6 1 6 -6 1 -14 -3 -18 -8z"/>
<path d="M120 1520 c0 -5 5 -10 11 -10 5 0 7 5 4 10 -3 6 -8 10 -11 10 -2 0
-4 -4 -4 -10z"/>
<path d="M560 1425 c0 -2 6 -8 13 -14 10 -8 14 -7 14 2 0 8 -6 14 -14 14 -7 0
-13 -1 -13 -2z"/>
<path d="M596 1321 c-3 -5 1 -11 9 -14 9 -4 12 -1 8 9 -6 16 -10 17 -17 5z"/>
</g>
</svg>
